<svg width="318" height="318" viewBox="0 0 318 318" fill="none" xmlns="http://www.w3.org/2000/svg">
<path d="M273.005 126.576H265.402V134.184H273.005V126.576Z" fill="white"/>
<path d="M273.005 118.969H265.402V126.577H273.005V118.969Z" fill="white"/>
<path d="M273.005 111.359H265.402V118.967H273.005V111.359Z" fill="white"/>
<path d="M273.005 103.758H265.402V111.36H273.005V103.758Z" fill="white"/>
<path d="M273.005 96.1504H265.402V103.758H273.005V96.1504Z" fill="white"/>
<path d="M273.005 88.541H265.402V96.149H273.005V88.541Z" fill="white"/>
<path d="M265.403 134.184H257.795V141.792H265.403V134.184Z" fill="white"/>
<path d="M265.403 80.9336H257.795V88.5416H265.403V80.9336Z" fill="white"/>
<path d="M257.794 141.793H250.186V149.396H257.794V141.793Z" fill="white"/>
<path d="M257.794 73.332H250.186V80.9346H257.794V73.332Z" fill="white"/>
<path d="M250.186 141.793H242.578V149.396H250.186V141.793Z" fill="white"/>
<path d="M250.186 73.332H242.578V80.9346H250.186V73.332Z" fill="white"/>
<path d="M242.579 141.793H234.977V149.396H242.579V141.793Z" fill="white"/>
<path d="M242.579 73.332H234.977V80.9346H242.579V73.332Z" fill="white"/>
<path d="M234.975 141.793H227.367V149.396H234.975V141.793Z" fill="white"/>
<path d="M234.975 73.332H227.367V80.9346H234.975V73.332Z" fill="white"/>
<path d="M227.368 149.395H219.76V157.003H227.368V149.395Z" fill="white"/>
<path d="M227.368 73.332H219.76V80.9346H227.368V73.332Z" fill="white"/>
<path d="M219.76 157.004H212.152V164.612H219.76V157.004Z" fill="white"/>
<path d="M219.76 73.332H212.152V80.9346H219.76V73.332Z" fill="white"/>
<path d="M212.151 164.611H204.549V172.219H212.151V164.611Z" fill="white"/>
<path d="M212.151 73.332H204.549V80.9346H212.151V73.332Z" fill="white"/>
<path d="M204.549 164.611H196.941V172.219H204.549V164.611Z" fill="white"/>
<path d="M204.549 157.004H196.941V164.612H204.549V157.004Z" fill="white"/>
<path d="M204.549 149.395H196.941V157.003H204.549V149.395Z" fill="white"/>
<path d="M204.549 73.332H196.941V80.9346H204.549V73.332Z" fill="white"/>
<path d="M196.942 141.793H189.334V149.396H196.942V141.793Z" fill="white"/>
<path d="M196.942 73.332H189.334V80.9346H196.942V73.332Z" fill="white"/>
<path d="M189.333 141.793H181.725V149.396H189.333V141.793Z" fill="white"/>
<path d="M189.333 73.332H181.725V80.9346H189.333V73.332Z" fill="white"/>
<path d="M181.726 134.184H174.123V141.792H181.726V134.184Z" fill="white"/>
<path d="M181.726 80.9336H174.123V88.5416H181.726V80.9336Z" fill="white"/>
<path d="M174.122 126.576H166.514V134.184H174.122V126.576Z" fill="white"/>
<path d="M174.122 118.969H166.514V126.577H174.122V118.969Z" fill="white"/>
<path d="M174.122 111.359H166.514V118.967H174.122V111.359Z" fill="white"/>
<path d="M174.122 103.758H166.514V111.36H174.122V103.758Z" fill="white"/>
<path d="M174.122 96.1504H166.514V103.758H174.122V96.1504Z" fill="white"/>
<path d="M174.122 88.541H166.514V96.149H174.122V88.541Z" fill="white"/>
<path d="M151.298 198.84H143.695V206.448H151.298V198.84Z" fill="white"/>
<path d="M151.298 191.23H143.695V198.838H151.298V191.23Z" fill="white"/>
<path d="M151.298 183.629H143.695V191.231H151.298V183.629Z" fill="white"/>
<path d="M151.298 176.02H143.695V183.628H151.298V176.02Z" fill="white"/>
<path d="M151.298 168.412H143.695V176.02H151.298V168.412Z" fill="white"/>
<path d="M151.298 160.805H143.695V168.413H151.298V160.805Z" fill="white"/>
<path d="M143.696 206.447H136.088V214.055H143.696V206.447Z" fill="white"/>
<path d="M143.696 153.201H136.088V160.804H143.696V153.201Z" fill="white"/>
<path d="M136.088 214.055H128.48V221.657H136.088V214.055Z" fill="white"/>
<path d="M136.088 145.594H128.48V153.202H136.088V145.594Z" fill="white"/>
<path d="M128.479 214.055H120.871V221.657H128.479V214.055Z" fill="white"/>
<path d="M128.479 145.594H120.871V153.202H128.479V145.594Z" fill="white"/>
<path d="M120.872 214.055H113.27V221.657H120.872V214.055Z" fill="white"/>
<path d="M120.872 145.594H113.27V153.202H120.872V145.594Z" fill="white"/>
<path d="M113.27 214.055H105.662V221.657H113.27V214.055Z" fill="white"/>
<path d="M113.27 145.594H105.662V153.202H113.27V145.594Z" fill="white"/>
<path d="M105.661 221.658H98.0527V229.266H105.661V221.658Z" fill="white"/>
<path d="M105.661 145.594H98.0527V153.202H105.661V145.594Z" fill="white"/>
<path d="M98.0533 229.266H90.4453V236.874H98.0533V229.266Z" fill="white"/>
<path d="M98.0533 145.594H90.4453V153.202H98.0533V145.594Z" fill="white"/>
<path d="M90.4443 236.873H82.8418V244.481H90.4443V236.873Z" fill="white"/>
<path d="M90.4443 145.594H82.8418V153.202H90.4443V145.594Z" fill="white"/>
<path d="M82.8424 236.873H75.2344V244.481H82.8424V236.873Z" fill="white"/>
<path d="M82.8424 229.266H75.2344V236.874H82.8424V229.266Z" fill="white"/>
<path d="M82.8424 221.658H75.2344V229.266H82.8424V221.658Z" fill="white"/>
<path d="M82.8424 145.594H75.2344V153.202H82.8424V145.594Z" fill="white"/>
<path d="M75.235 214.055H67.627V221.657H75.235V214.055Z" fill="white"/>
<path d="M128.479 178.201H120.871V185.809H128.479V178.201Z" fill="white"/>
<path d="M128.479 170.592H120.871V178.2H128.479V170.592Z" fill="white"/>
<path d="M120.872 185.809H113.27V193.411H120.872V185.809Z" fill="white"/>
<path d="M120.872 162.984H113.27V170.592H120.872V162.984Z" fill="white"/>
<path d="M113.27 193.412H105.662V201.02H113.27V193.412Z" fill="white"/>
<path d="M113.27 162.984H105.662V170.592H113.27V162.984Z" fill="white"/>
<path d="M105.661 201.02H98.0527V208.628H105.661V201.02Z" fill="white"/>
<path d="M105.661 170.592H98.0527V178.2H105.661V170.592Z" fill="white"/>
<path d="M98.0533 201.02H90.4453V208.628H98.0533V201.02Z" fill="white"/>
<path d="M98.0533 170.592H90.4453V178.2H98.0533V170.592Z" fill="white"/>
<path d="M90.4443 193.412H82.8418V201.02H90.4443V193.412Z" fill="white"/>
<path d="M90.4443 162.984H82.8418V170.592H90.4443V162.984Z" fill="white"/>
<path d="M82.8424 185.809H75.2344V193.411H82.8424V185.809Z" fill="white"/>
<path d="M82.8424 162.984H75.2344V170.592H82.8424V162.984Z" fill="white"/>
<path d="M75.235 178.201H67.627V185.809H75.235V178.201Z" fill="white"/>
<path d="M75.235 170.592H67.627V178.2H75.235V170.592Z" fill="white"/>
<path d="M75.235 145.594H67.627V153.202H75.235V145.594Z" fill="white"/>
<path d="M67.6256 214.055H60.0176V221.657H67.6256V214.055Z" fill="white"/>
<path d="M67.6256 145.594H60.0176V153.202H67.6256V145.594Z" fill="white"/>
<path d="M60.0185 206.447H52.416V214.055H60.0185V206.447Z" fill="white"/>
<path d="M60.0185 153.201H52.416V160.804H60.0185V153.201Z" fill="white"/>
<path d="M52.4166 198.84H44.8086V206.448H52.4166V198.84Z" fill="white"/>
<path d="M52.4166 191.23H44.8086V198.838H52.4166V191.23Z" fill="white"/>
<path d="M52.4166 183.629H44.8086V191.231H52.4166V183.629Z" fill="white"/>
<path d="M52.4166 176.02H44.8086V183.628H52.4166V176.02Z" fill="white"/>
<path d="M52.4166 168.412H44.8086V176.02H52.4166V168.412Z" fill="white"/>
<path d="M52.4166 160.805H44.8086V168.413H52.4166V160.805Z" fill="white"/>
</svg>
