<svg width="318" height="318" viewBox="0 0 318 318" fill="none" xmlns="http://www.w3.org/2000/svg">
<path d="M192.63 155.164H185.135V162.654H192.63V155.164Z" fill="white"/>
<path d="M185.135 155.164H177.645V162.654H185.135V155.164Z" fill="white"/>
<path d="M177.646 162.654H170.15V170.15H177.646V162.654Z" fill="white"/>
<path d="M177.646 147.668H170.15V155.163H177.646V147.668Z" fill="white"/>
<path d="M170.15 170.15H162.654V177.646H170.15V170.15Z" fill="white"/>
<path d="M170.15 140.174H162.654V147.669H170.15V140.174Z" fill="white"/>
<path d="M162.654 185.141H155.158V192.631H162.654V185.141Z" fill="white"/>
<path d="M162.654 177.645H155.158V185.14H162.654V177.645Z" fill="white"/>
<path d="M162.654 132.678H155.158V140.173H162.654V132.678Z" fill="white"/>
<path d="M162.654 125.182H155.158V132.677H162.654V125.182Z" fill="white"/>
<path d="M155.158 170.15H147.668V177.646H155.158V170.15Z" fill="white"/>
<path d="M155.158 140.174H147.668V147.669H155.158V140.174Z" fill="white"/>
<path d="M147.669 162.654H140.174V170.15H147.669V162.654Z" fill="white"/>
<path d="M147.669 147.668H140.174V155.163H147.669V147.668Z" fill="white"/>
<path d="M140.173 155.164H132.678V162.654H140.173V155.164Z" fill="white"/>
<path d="M132.677 155.164H125.182V162.654H132.677V155.164Z" fill="white"/>
</svg>
