<svg viewBox="0 0 734.53 300" version="1.1" xmlns="http://www.w3.org/2000/svg" id="Layer_1">
  
  <defs>
    <style>
      .st0 {
        fill: #fff;
      }
    </style>
  </defs>
  <path d="M106.97,100.04h37.44c11.02,0,19.61,2.2,25.59,6.62,6.05,4.42,9.08,10.76,9.08,19.05,0,4.74-1.09,8.85-3.26,12.29-2.17,3.49-5.37,6.25-9.63,8.3,5.87,1.95,10.37,5.04,13.51,9.27,3.12,4.23,4.67,9.37,4.67,15.4s-1.52,11.07-4.54,15.29c-3.02,4.28-7.34,7.58-12.96,9.9-5.6,2.33-12.29,3.49-20.16,3.49h-39.76v-99.61h.01ZM57.13,238.5h177.22V61.28H57.13v177.22ZM142.52,116.66c10.76,0,16.17,3.95,16.17,11.85,0,4.09-1.37,7.28-4.13,9.55-2.76,2.28-6.76,3.41-11.96,3.41h-15.29v-24.81h15.21ZM145.09,157.09h-17.94v26.92h17.61c6.05,0,10.71-1.14,13.96-3.41,3.26-2.28,4.88-5.55,4.88-9.82,0-9.1-6.19-13.62-18.61-13.62l.1-.06h0Z" class="st0"></path>
  <path d="M328.5,100.04h37.44c11.02,0,19.61,2.2,25.59,6.62,6.05,4.42,9.08,10.76,9.08,19.05,0,4.74-1.09,8.85-3.26,12.29-2.17,3.49-5.38,6.25-9.63,8.3,5.87,1.95,10.37,5.04,13.51,9.27,3.12,4.23,4.67,9.37,4.67,15.4s-1.52,11.07-4.54,15.29c-3.02,4.28-7.34,7.58-12.96,9.9-5.6,2.33-12.29,3.49-20.16,3.49h-39.76v-99.61h.01ZM278.65,238.5h177.22V61.28h-177.22v177.22ZM364.05,116.66c10.76,0,16.17,3.95,16.17,11.85,0,4.09-1.37,7.28-4.13,9.55-2.76,2.28-6.76,3.41-11.96,3.41h-15.29v-24.81h15.21,0ZM366.62,157.09h-17.94v26.92h17.61c6.05,0,10.71-1.14,13.96-3.41,3.26-2.28,4.88-5.55,4.88-9.82,0-9.1-6.19-13.62-18.61-13.62,0,0,.1-.06.1-.06Z" class="st0"></path>
  <path d="M613.16,198.62c5.44-1.32,10.22-3.12,14.4-5.39v-18.94c-8.72,5.37-18.28,8.06-28.58,8.06-6.76,0-12.52-1.27-17.28-3.82-4.74-2.55-8.35-6.26-10.83-11.19-2.49-4.87-3.73-10.78-3.73-17.72s1.28-12.85,3.87-17.61c2.58-4.83,6.28-8.52,11.08-11.07,4.83-2.55,10.67-3.82,17.5-3.82,4.97,0,9.71.66,14.18,1.98,4.5,1.32,8.67,3.26,12.52,5.8v-19.38c-4.22-2.18-8.79-3.84-13.73-4.98-4.93-1.14-10.16-1.71-15.73-1.71-7.97,0-15.17,1.19-21.6,3.56s-11.96,5.78-16.5,10.25c-4.6,4.46-8.12,9.81-10.56,16.06-2.44,6.24-3.66,13.18-3.66,20.93s1.17,15.06,3.52,21.38c2.35,6.34,5.72,11.63,10.13,16.06,4.41,4.38,9.8,7.72,16.17,10.05,6.38,2.33,13.51,3.49,21.49,3.49,6,0,11.74-.66,17.17-1.98h.18ZM677.4,238.28h-177.22V61.05h177.22v177.22Z" class="st0"></path>
</svg>