<svg viewBox="0 0 1323.09 300" version="1.1" xmlns="http://www.w3.org/2000/svg" id="Layer_1">
  
  <defs>
    <style>
      .st0 {
        fill: #fff;
        fill-rule: evenodd;
      }
    </style>
  </defs>
  <path d="M670.09,184.45l2.74,2.05c-.35-3.08.17-8.23.17-8.23-2.07,1.37-2.57,3.94-2.57,3.94l-2.92.35,2.57,1.89h0ZM782.48,206.75c-.35-.69-.87-1.19-1.72-1.19s-1.71.85-1.71,2.05.87,2.05,1.71,2.05c1.02,0,1.89-.85,1.89-2.05,0-.34-.17-.52-.17-.87h0ZM782.41,198.7c.04.15.07.33.07.5-.02.87-.56,1.64-1.38,1.94v2.53c.96.09,1.83.58,2.41,1.35.55.75.85,1.65.85,2.57,0,1.85-1.05,3.35-2.59,3.81,4.23-.33,6.89-.71,6.89-.71-4.13-.87-1.72-3.26-1.72-3.26,1.89-1.55,5.49-2.76,5.49-2.76-4.28-.52-6.68-3.94-7.73-6h-2.29v.02h0ZM780.25,211.52c-1.64-.28-2.92-1.88-2.92-3.9s1.18-3.5,2.74-3.87v-2.52c-.96-.15-1.72-.9-1.88-1.87l-.02.02c-1.71.5-3.26.5-3.26.5-.35.87.35,1.21.35,1.21,3.61,2.57,1.21,4.97,1.21,4.97-1.71,1.55-2.57,1.55-2.57,1.55-1.71.52-5.83,4.13-5.83,4.13,4.58.14,8.79,0,12.19-.22h0ZM733.23,195.61c.31,0,.61-.1.87-.28l3.42,1.48c0,1.02.69,1.89,1.55,1.89.54,0,1-.35,1.28-.83l2.9.43c.19.87.78,1.44,1.48,1.44.79,0,1.59-.73,1.7-1.78l2.43-1.15c.29.43.71.7,1.21.7.85,0,1.71-.87,1.71-1.89l1.55-2.56c2.91.23,5.84.17,8.75-.17,4.63-2.41,8.41-3.78,8.41-3.78-1.38,1.02-2.76,1.89-3.62,2.92-.86.86-1.67,1.77-2.4,2.74-1.26.91-1.97,2.4-1.89,3.95.13.98.48,1.91,1.02,2.74.87,1.02,2.07,1.55,2.07,1.55l1.89,1.71c-1.55,1.21-4.99,2.05-4.99,2.05-1.89.7-4.46-.5-4.46-.5-6.01-1.37-8.07,1.37-8.07,1.37-1.21,1.37-3.44,1.55-3.44,1.55l1.02,1.55c-2.23.69-3.42-.17-3.42-.17-.17-2.92,1.37-5.83,1.37-5.83-.69-4.63-10.3-3.78-10.3-3.78l-2.39-2.24-.52-.52-5.49-5.15c0,1.55-.69,3.78-1.54,5.67-.69,1.54-1.55,2.92-1.55,2.92l-2.05-1.04c.39-.57.68-1.21.85-1.88,1.71-4.13,2.92-9.96,2.92-9.96,1.02,0,1.89.17,2.57.35.52.35.87.52.87.52.4.19.83.37,1.3.56l1.89,2.69c-.18.32-.28.68-.28,1.04,0,1.02.5,1.71,1.37,1.71h0v-.02ZM752.39,192.94l-1,1.42c-.28-.48-.78-.78-1.34-.81-.87,0-1.55.85-1.55,2.05,0,.16.02.33.05.48l-2.19,1.02c-.23-.81-.94-1.51-1.64-1.51-.85,0-1.54,1.02-1.54,2.05l-2.62-.45c.03-.13.04-.26.04-.4,0-1.02-.7-2.07-1.55-2.07-.64,0-1.18.57-1.41,1.29l-3.03-1.37c.1-.24.15-.5.15-.76,0-.87-.69-1.71-1.55-1.71-.14,0-.27.02-.4.07l-.81-1.45h-.02c4.37,1.42,9.79,2.41,9.79,2.41h3.78l1.21-1.89c1.56.87,3.57,1.37,5.61,1.61h0ZM732.05,163.64c.14.17.28.34.42.48l-.22.38c-.11-.08-.25-.12-.38-.12-.69,0-1.21.69-1.21,1.37l-.16-.17-1.38-1.55-.5-.51-3.09-3.26c-3.61-4.8-9.09,0-9.09,0l-.85-.69c2.9-1.72.35-3.95.35-3.95l5.66-14.59-1.55-1.89c2.76-5.67-3.08-5.83-3.08-5.83-1.72-5.15-4.81-2.74-4.81-2.74-1.02-4.98-4.81-2.41-4.81-2.41-1.37-3.43-4.63-1.37-4.63-1.37l.16-8.07-3.76.17-4.13-.17.35,8.23c-4.11-2.05-4.81,2.06-4.81,2.06-4.8-2.75-4.8,2.57-4.8,2.57-3.95-1.21-3.78,2.57-3.78,2.57-5.31.51-4.63,5.15-4.63,5.15l4.11,14.07c-1.02,2.57-13.2,17.5-13.2,17.5l-5.15-1.54-.35-.85c1.2.69,2.06.35,2.06.35-.51-1.72.17-5.15.17-5.15,1.55-6.69-1.2-9.09-1.2-9.09.17-2.75-1.72-6-1.72-6,2.57-3.26-1.2-6.52-1.2-6.52l-.52-.87-.17-7.03c-.69,0-1.03-.87-1.03-.87-1.03-2.92-2.92-1.02-2.92-1.02-1.37-3.09-3.61-.69-3.61-.69-1.89-2.57-3.78,0-3.78,0l-1.54-4.98-5.15,2.05,1.72,5.49c-3.78-.87-2.57,2.92-2.57,2.92-3.26.17-1.72,3.09-1.72,3.09-3.09.35-1.89,3.78-1.89,3.78l3.43,5.66c-2.75,3.09-.17,5.15-.17,5.15.87,1.55,1.89,1.55,1.89,1.55-1.55,4.63.51,9.44.51,9.44-2.23,2.57-5.49,4.63-8.41,6.17-4.28,2.06-8.07,3.09-8.07,3.09-6.7,1.55-19.9,5.83-19.9,5.83-4.63,1.19-12.01,3.42-12.01,3.42-9.26,2.76-11.67-.16-11.67-.16-2.23-1.38-.51-4.99-.51-4.99,2.23-4.46,6.87-5.49,6.87-5.49,3.26,2.07,4.46,3.26,4.46,3.26,2.05,2.07,5.67,1.89,5.67,1.89l.17-.69c1.54.17,2.57-.35,2.57-.35-1.03-1.02-1.03-2.23-1.03-2.23,0-.85-1.2-2.22-1.2-2.22l23.85-1.03c.87-.16,1.54-.16,2.23-.35,8.23-1.54,10.13-3.43,10.13-3.43,5.66-4.47,3.26-11.85,3.26-11.85-3.09-7.2-9.09-7.55-9.09-7.55-4.63-1.2-8.07-.51-8.07-.51-2.57.17-7.89-1.2-7.89-1.2-.17,1.02,2.05,4.28,2.05,4.28-1.55.14-3.1-.35-4.28-1.37-2.75-2.57-7.21-1.37-7.21-1.37.69,1.37,4.81,4.81,4.81,4.81-2.41.17-8.92-2.57-8.92-2.57,1.2,5.67,7.72,9.61,7.72,9.61,7.72,3.26,14.41-.17,14.41-.17,3.26-2.05,6.52-3.26,6.52-3.26,1.88-.85,4.09-.03,4.94,1.84.08.18.15.37.21.56-.35,5.83-4.63,6-4.63,6-12.35,2.57-28.83.85-28.83.85,1.2-1.54,1.37-5.49,1.37-5.49l-1.37.35c-7.2-.69-9.09.87-9.09.87-2.57,1.54-3.77,4.8-3.77,4.8-3.26,1.37-5.83,3.09-7.73,4.8-4.8,4.64-5.31,9.78-5.31,9.78-.35,6.18,3.09,7.04,3.09,7.04-3.09,6,1.54,8.23,1.54,8.23,2.06-1.54,2.92-3.26,2.92-3.26,4.11-3.08,16.13-5.66,16.13-5.66-2.41,1.89-3.78,7.55-3.78,7.55-2.05.69-5.49-.52-5.49-.52-1.89-.16-1.89,1.38-1.89,1.38l-.87,2.05-1.2,3.78c-7.37-.35-6.35,3.94-6.35,3.94l-1.03,11.49c1.72,4.28,4.46,3.61,4.46,3.61v-4.28h1.89c2.23,4.63,5.67,5.66,5.67,5.66h1.03c1.2-.35,1.72,1.38,1.72,1.38l1.2.16.17-2.92,1.37-.16c.87.35,1.37,1.71,1.37,1.71h1.02c.35-.69.52-2.57.52-2.57,1.37-.87,1.02-3.94,1.02-3.94,2.75-.52,5.67.52,5.67.52l-.17,2.56c2.05,3.44,4.63,3.95,4.63,3.95,1.72.5,4.28.85,7.37,1.02,5.32.35,12.01.16,18.19,0,6.7-.34,13.4-.85,20.08-1.55.69,1.02,1.02.87,1.02.87,2.92,1.02,6.18-2.07,6.18-2.07l-1.02,2.07c2.23-.17,4.63-1.72,4.63-1.72.59.82,1.43,1.42,2.4,1.72l.52-.52.69,1.02c1.37-.69,2.23-3.08,2.23-3.08,1.55,1.37,3.78,1.02,3.78,1.02l.69,1.02.5-.87c1.02.7,2.92,1.55,2.92,1.55,2.07-2.57,1.21-6.34,1.21-6.34l.52.85.5-2.05c1.02,1.02,2.76,1.02,2.76,1.02-3.26,1.37-1.38,3.78-1.38,3.78.41.68,1.01,1.21,1.72,1.54,1.13-.14,2.17.61,2.4,1.72,2.57,1.21,4.13-1.55,4.13-1.55l.35-2.05c-.52-1.21-.52-3.09-.52-3.09l.52,2.23.85.52,5.83,4.63,4.99-4.13c2.74,1.89,6.52,1.89,6.52,1.89,1.37,0,.35-1.71.35-1.71,4.47,3.61,11.15,2.74,11.15,2.74,1.02-.85.35-1.37.35-1.37,1.21-.52,3.26,1.21,3.26,1.21,1.71,1.19,4.28.16,4.28.16-.16-.85-1.02-1.02-1.02-1.02,1.21,0,.52-1.71.52-1.71,1.19.16,2.23,1.54,2.23,1.54,1.02,1.38,2.92,1.04,2.92,1.04l.16-.87c1.21.87,3.94,1.02,3.94,1.02.7-.69.17-1.71.17-1.71,12.35,3.78,30.71,3.08,30.71,3.08,23.85-.16,27.11-4.8,27.11-4.8.87-1.04.35-2.23.35-2.23v-1.37c1.21-.7,3.09-.17,3.09-.17l-1.72,3.61-.5,1.21c4.11,4.63,10.29-.52,10.29-.52v-1.55c1.21-.5,2.23-1.88,2.23-1.88l2.76.69c.35,1.55-.69,3.26-.69,3.26,4.28,1.19,5.82-3.26,5.82-3.26l-2.22-11.51c-3.44-3.94-9.61-3.26-9.61-3.26l-.17-2.92c-.35-1.02-1.54-1.71-2.57-1.88l-1.32-.48-1.25.48c-1.89.16-4.64.16-4.64.16v-.16l.35-3.95v-4.46l-.35-1.55,3.62.52c2.74,1.19,9.09,1.19,9.09,1.19,2.05.87,2.05,2.92,2.05,2.92l-.69,2.41c5.83-.52,5.15-7.04,5.15-7.04,4.11-3.44,3.08-12.7,3.08-12.7-.52-2.23-1.37-3.61-1.89-4.13l-.16-.16c0-5.84-5.83-8.41-5.83-8.41-1.02-.87-2.23-.87-2.23-.87-1.37-.34-3.26-2.57-3.26-2.57-2.23,4.11-.35,7.2-.35,7.2-3.44-.69-20.61,2.75-20.61,2.75-4.11,1.03-10.96-1.2-10.96-1.2-4.3-2.41-3.61-5.49-3.61-5.49.85-4.98,4.97-4.29,4.97-4.29h1.21c3.61-.69,6.18.69,6.18.69,7.2,3.43,20.06,0,20.06,0,6.18-2.41,7.9-10.47,7.9-10.47-4.13,3.78-8.07,3.09-8.07,3.09-.87.17-1.73.41-2.57.69.69-2.92,4.11-4.29,4.11-4.29-4.46-1.89-9.26,1.37-9.26,1.37-2.4,2.57-7.73,3.43-7.73,3.43,3.94-1.54,6.01-5.83,6.01-5.83-2.57,1.54-7.2,1.2-7.2,1.2-7.04-1.37-14.76,4.97-14.76,4.97-7.04,6.52-3.61,13.73-3.61,13.73.87,2.05,2.92,3.61,5.15,4.46,3.26,1.55,6.68,1.89,6.68,1.89,7.39.85,22.49-.87,22.49-.87,1.37-.35,2.92-.35,2.92-.35-2.76,2.06-3.26,6.7-3.26,6.7,2.74-1.02,4.8-1.02,4.8-1.02l-.16.69c3.26-.52,6,0,6,0,1.72.16,2.07-1.37,2.07-1.37,2.05,3.08-2.07,6.52-2.07,6.52-2.4,2.4-7.72.5-7.72.5-2.92-1.37-10.48-1.89-10.48-1.89-1.37-1.71-16.98-4.8-16.98-4.8-.87-1.55-2.4-.87-2.4-.87l-1.38-.17c-1.37-3.26-4.46-1.37-4.46-1.37-2.23-.35-5.83-2.4-7.9-3.61-1.02-.51-1.54-1.02-1.54-1.02,8.23-9.09,7.72-18.87,7.72-18.87-1.02-14.07-12.52-16.3-12.52-16.3-1.71-4.11-7.2-4.46-7.2-4.46l-.35.87.5,1.2c-.16.87.87,2.41.87,2.41l-2.23.51-13.9-8.07c-3.42-.85-2.05,2.05-2.05,2.05l.69,1.03,12.01,9.44c-1.21,2.4-5.31,5.49-5.31,5.49l-1.55.35-1.89,2.05.17,2.75c-.87.69-2.76.69-2.76.69l-.16,1.72c1.19,1.72,4.63,1.72,4.63,1.72l2.74,2.74c.87.52,1.55-.17,1.55-.17l2.4-2.74,3.26-1.54c.87.51,2.41.69,2.41.69-2.23.87-4.63,4.11-4.63,4.11-1.89-.52-4.99.17-4.99.17l-.35,1.89-.1.45-.75-.45c-1.21-4.97-4.99-1.89-4.99-1.89-1.26,1.36-1.39,3.41-.31,4.91h0l.03.02ZM732.13,167.23c.42-.19.75-.78.75-1.48,0-.2-.04-.39-.12-.57l.23-.57c.54.44,1.21.67,1.9.67,1.77-.05,2.45-2.61,2.45-2.61h.43l-.43,2.05c-1.72,1.03-3.26,4.46-3.26,4.46l-1.95-1.94h0ZM733.21,162.32c-.92-1.91,1.05-2.76,1.05-2.76,2.4-.35,1.89,2.74,1.89,2.74-.64.81-1.16,1.11-1.59,1.14-.94.08-1.34-1.11-1.35-1.13h0ZM639.54,198.52c-1.37,1.21-3.78,2.92-6.87,3.09l-1.37,2.22,3.26.87.69.35,2.92.87s.17-1.89,2.41-1.55c0,0,1.54-4.13,7.72-2.74,0,0,1.03-.35,2.4.35.52.35,1.03.69,1.54,1.19l-.69-2.23s.69-1.02,2.4-.69c0,0-.69-.69-1.2-1.71-.72-1.01-1.14-2.2-1.2-3.44,0,0,2.05-.85,4.11-.5v-1.89h1.2l-2.23-1.37s-5.67,6.34-16.3,3.26c-2.1-.59-4.12-1.46-6-2.57,0,0,2.06,5.15,8.58,4.97,0,0-.5.69-1.37,1.55h0v-.02ZM611.91,198.52c3.43,1.02,9.44,1.55,9.44,1.55-.52.5-1.03,1.02-1.54,1.37-1.89,1.55-3.43,1.89-3.43,1.89-1.03,1.71-.51,4.81-.51,4.81.51.69,2.05,1.19,3.43,1.71,1.72.69,3.43,1.21,3.43,1.21-2.09.43-4.25.43-6.35,0-1.89-.17-3.09-.7-3.09-.7l.85-1.71c-.69-4.47-7.37-4.97-7.37-4.97l.35-2.05c.85-1.04,1.72-2.23,2.06-3.09.21-.32.38-.67.51-1.02.35.35,1.2.69,2.06,1.02h.16s0,0,0,0ZM734.09,212.76c-.52.35-.87.69-.87,1.37,0,0,.35,1.02,2.57,1.71,0,0,.35-1.88-.17-3.94,0,0-.85.35-1.54.87h0ZM655.84,209.66l1.2-.35s-1.2-1.02-1.37-1.71c0,0,0-1.37-1.54-2.57l.17,1.21v1.71l.51.52v1.37l1.03-.17h0ZM661.33,215.68l.17,2.57,2.23-2.41c-.36.01-.69-.18-.87-.5-.85-.69-1.37-1.71-1.37-1.71l-.17,2.05h0ZM669.09,198.59c1.3-.15,2.4-.05,3.02.69-.02-1.09.46-2.19,2.1-2.47,0,0-3.61-.69-6.87-1.89-2.05-.69-4.11-1.55-4.8-2.57l-1.54.52-1.21.5v.52s3.26.5,4.98,1.89v-.7s3.12.59,4.33,3.51h0ZM678.14,205.38c0-.35.17-.69.17-1.21l2.57,2.76s.5,1.71-.52,2.74c0,0-.5-.5-1.19-.85-.43-.22-.9-.34-1.38-.35l-.16-2.23s.35-.35.5-.87h0ZM469.5,111.69s25.57,13.04,28.65,15.61c3.26,2.57,1.54,4.29,1.54,4.29,0,0-1.2,1.71-4.11,2.4-2.93.51-2.05,2.92-2.05,2.92l-.35,60.92c12.01,11.84,23.34,5.49,23.34,5.49,4.29-1.37,3.78-5.15,3.78-5.15,0,0,.87-57.31.51-59.2-.35-2.05-2.05-2.05-2.05-2.05,0,0-10.64-6.7-12.35-7.89-1.89-1.2.17-3.09.17-3.09,0,0,18.02-12.52,20.59-14.93,2.57-2.23,4.63-.87,4.63-.87,0,0,29.68,16.65,33.11,19.22s1.72,3.43,1.72,3.43l-8.41,8.41c-1.72,1.72-.87,3.26-.87,3.26l-.35,56.28c-2.23,14.41-24.88,16.48-24.88,16.48-27.29.35-39.98-11.33-39.98-11.33-10.81-6.7-23.34-2.07-23.34-2.07-15.96,5.49-17.16,15.79-17.16,15.79-.52,7.39,7.72,10.98,7.72,10.98,10.13,6.52,24.88,2.4,24.88,2.4,12.52-4.28,31.92-10.81,31.92-10.81,12.18-2.57,21.79-.52,21.79-.52,10.98,2.41,15.27,7.56,15.27,7.56,7.03,7.2,6.52,16.46,6.52,16.46.51,20.26-24.37,27.11-24.37,27.11-11.15,2.23-14.24-.35-14.24-.35-7.89-1.72.51-2.57.51-2.57,0,0-14.42.85,1.2.16,15.61-.5,17.33-8.05,17.33-8.05,5.67-10.13-3.09-11.85-3.09-11.85-12.01-1.71-25.05,8.07-25.05,8.07-29.17,13.04-51.3,2.23-51.3,2.23-22.65-8.75-19.73-25.57-19.73-25.57.51-21.79,14.24-30.36,14.24-30.36l-.85-67.44c-.69-1.72-2.41-2.23-2.41-2.23,0,0-9.44-3.78-10.98-5.83-1.37-2.06.85-2.92.85-2.92l21.79-14.42c2.56-3.61,5.82-.02,5.82-.02h.02ZM46.7,101.4c-3.26-2.23.35-3.43.35-3.43l32.78-24.02h86.64c18.7,1.71,17.16,25.74,17.16,25.74l-.35,88.53c-30.37,5.83-44.96,31.59-44.96,31.59-28.32-8.07-76.87-.87-76.87-.87-4.29.35-1.37-2.92-1.37-2.92,16.82-29.52,49.07-28.65,49.07-28.65,2.08-.04,4.13.02,6.11.14l.17-85.21-68.73-.9h0ZM89.95,106.21c6.35-2.92,5.15,1.37,5.15,1.37v49.24c-.51,20.76-16.82,32.09-16.82,32.09-4.8,6.52-23.16,14.07-23.16,14.07-6.35,2.4-2.57-3.78-2.57-3.78,6-8.91,6-15.27,6-15.27v-59.19c0-1.72.69-2.41.69-2.41l30.72-16.13h0ZM118.17,187.75c15,1.51,26,6.82,26,6.82l-.23-38.07-.23.17s-12.04-15.89-25.49.58l-.05,30.49h0ZM143.92,152.64l-.09-15.97c-4.6,4.3-15.3,11.53-25.57-1.86l-.03,18.08c11.31-11.47,21.47-4.33,25.69-.25h0ZM143.8,132.52l-.16-26.66c1.2-4.46-4.97-3.26-4.97-3.26l-20.35-.26-.05,27.34c11.51,19.08,24.34,4.28,25.52,2.84h0ZM380.61,90.76s37.75-12.18,42.55-13.38c4.97-1.2,4.63,1.2,4.63,1.2,0,0-1.02,107.41-.17,111.19s2.57,2.76,2.57,2.76c0,0,8.75,6.18,10.64,7.03,2.06.87,1.03,2.92,1.03,2.92l-21.28,16.48s-34.66-15.27-37.4-16.98c-3.43-2.41-1.2-3.78-1.2-3.78l6.18-6.18s1.02-87.85-.69-92.49c-1.72-4.63-7.21-6.52-7.21-6.52-1.21-1.89.34-2.24.34-2.24h0ZM338.24,108.95c1.2,2.92,4.28,2.41,4.28,2.41,13.73-5.49,19.22-18.53,19.22-18.53,3.43-12.87-4.63-16.3-4.63-16.3-7.21-4.29-12.52-.87-12.52-.87-8.24,4.46-10.47,13.04-10.47,13.04-2.05,11.33,4.13,20.24,4.13,20.24h0ZM332.06,114.79s-22.31,13.73-24.02,16.3-.34,3.78-.34,3.78c0,0,9.61,6,12.18,7.03,2.74.85,1.71,2.23,1.71,2.23l.69,44.61c.35,1.21,0,4.28,0,4.28,0,0-3.78,3.09-5.83,4.81-2.4,2.05-.52,4.13-.52,4.13l34.5,17.33s23.33-16.82,25.39-17.67c2.05-.87,0-2.57,0-2.57,0,0-10.13-5.83-11.84-6.7s-1.02-2.57-1.02-2.57c0,0-1.37-44.11-.35-47.88.85-3.61,2.05-2.41,2.05-2.41,0,0,3.09-.85,5.83-2.57,2.57-1.72.17-3.26.17-3.26,0,0-32.09-16.81-34.49-18.87-2.41-2.06-4.13,0-4.13,0h0ZM189.89,189.08c-.09-.35,2.66,25.91,36.29,30.2l22.31-18.01s1.2-2.07,2.92-.36l37.75,18.37,23-18.01s1.03-2.07-.69-4.13l-15.96-10.65v-43.76s-.17-2.05,1.2-2.4l6.18-4.97s1.03-1.72-1.02-3.95c-1.89-2.4-39.46-20.93-39.46-20.93,0,0-1.37-2.05-4.81.35,0,0-41.01,16.47-57.14,37.57,0,0-12.86,8.23-10.55,40.66h-.01ZM222.07,175.02c1.03,1.88-6.87-11.15-3.09-25.4,0,0,.52-12.52,15.1-18.87l19.73,12.87-.35,50.79s-2.57,4.3-8.92,1.38c0,0-16.3-8.07-22.48-20.76h0ZM1167.69,116.15s-22.3,13.55-24.02,16.3c-1.71,2.57-.35,3.77-.35,3.77,0,0,9.61,6,12.19,6.87,2.74.87,1.71,2.4,1.71,2.4l.69,44.61c.35,1.21,0,4.28,0,4.28,0,0-3.78,2.92-5.83,4.64-2.4,2.05-.5,4.11-.5,4.11l34.49,17.5s23.34-16.82,25.39-17.85c2.05-.85,0-2.57,0-2.57,0,0-9.96-5.83-11.84-6.68-1.72-.87-1.04-2.57-1.04-2.57,0,0-1.37-44.1-.35-47.87.87-3.43,2.07-2.4,2.07-2.4,0,0,3.08-.87,5.83-2.57,2.57-1.72.16-3.09.16-3.09,0,0-32.09-16.82-34.49-18.88-2.23-2.06-4.11,0-4.11,0h0ZM826.56,101.57c-5.31-2.92-1.54-4.29-1.54-4.29l26.76-17.16c1.37-1.2,2.57.52,2.57.52l24.37,14.24s32.94-17.5,35.18-18.87c1.37-.87,2.57.35,2.57.35l27.81,15.44,27.96-17.5c3.08-2.57,3.94-.87,3.94-.87l32.78,19.22c2.74,1.72,1.54,2.23,1.54,2.23v88.89c1.21,10.96,10.48,15.27,10.48,15.27,2.57,2.05,1.37,3.61,1.37,3.61l-25.23,18.01c-21.79-7.39-23.84-25.05-23.84-25.05v-84.94c-.52-2.92-2.57-3.61-2.57-3.61l-16.84-8.58.12,37.75h18.09l-18.01,25.96.11,31.25,12.59,8.52c1.71,2.05-1.02,2.4-1.02,2.4l-26.09,16.3-38.77-20.59c-3.61-2.41-.87-3.78-.87-3.78l8.41-5.31v-27.29h-18.46l.07,35.03,6.22,3.94c1.89,2.05-.35,3.42-.35,3.42l-25.91,14.59-33.8-17.85c-2.92-1.89.16-3.42.16-3.42l9.61-5.49v-78.59l-18.53-13.38-.87-.35h0ZM951.53,97.41c-5.12-1.59-4.33,1.58-4.33,1.58l.35,34.49v2.75h4.13l-.14-38.82h0ZM951.75,163.69h-4.21v25.23c.16.69,2.23,1.54,2.23,1.54l2.07,1.41-.09-28.17h0ZM889.95,158.8l15.2-22.57h3.26v-25.57c-.5-1.37-2.4-2.74-2.4-2.74l-16.17-8.41.1,59.29h0ZM887.53,98.96c-4.74.1-5.01,3.3-5.01,3.3l-.36,91.63c0,.5,1.55.85,1.55.85l3.98,2.52-.16-98.3h0ZM1025.56,189.08c-.09-.35,2.66,25.91,36.3,30.2l22.3-18.01s1.21-2.07,2.92-.36l37.75,18.37,23-18.01s1.02-2.07-.69-4.13l-15.96-10.65v-43.76s-.16-2.05,1.21-2.4l6.18-4.97s1.02-1.72-1.02-3.95c-1.89-2.4-39.47-20.93-39.47-20.93,0,0-1.37-2.05-4.81.35,0,0-41.01,16.47-57.14,37.57,0,0-12.87,8.23-10.55,40.66h0ZM1057.73,175.02c1.02,1.88-6.87-11.15-3.08-25.4,0,0,.5-12.52,15.09-18.87l19.73,12.87-.35,50.79s-2.57,4.3-8.93,1.38c0,0-16.3-8.07-22.48-20.76h0ZM1216.25,90.76s37.57-12.18,42.55-13.38c4.8-1.2,4.63,1.2,4.63,1.2,0,0-1.02,108.62-.17,112.4.87,3.76,2.57,2.92,2.57,2.92,0,0,8.75,6.18,10.65,7.03,2.05.87,1.02,2.92,1.02,2.92l-21.27,16.48s-34.66-15.27-37.4-17.16c-3.44-2.23-1.21-3.76-1.21-3.76l6.18-6.01s1.02-89.4-.69-94.03-7.2-6.35-7.2-6.35c-1.2-2.08.35-2.24.35-2.24h0ZM1173.86,110.33c1.21,2.92,4.28,2.4,4.28,2.4,13.74-5.67,19.23-18.7,19.23-18.7,3.42-12.7-4.64-16.13-4.64-16.13-7.2-4.46-12.52-.87-12.52-.87-8.25,4.46-10.46,13.04-10.46,13.04-2.07,11.33,4.11,20.25,4.11,20.25h0Z" class="st0"></path>
</svg>