<svg width="1447" height="227" viewBox="0 0 1447 227" fill="none" xmlns="http://www.w3.org/2000/svg">
            <path d="M32.0513 218.727C26.2614 218.727 20.885 216.813 15.9223 212.985C11.0973 209.157 7.23739 203.963 4.34243 197.401C1.44748 190.839 0 183.639 0 175.801V161.858H17.3697V172.521C17.3697 179.629 18.9551 185.371 22.1257 189.745C25.4342 193.938 29.5699 196.034 34.5327 196.034H386.683C391.784 196.034 395.851 193.938 398.883 189.745C401.916 185.553 403.433 179.903 403.433 172.794V159.67C403.433 152.744 401.847 147.276 398.677 143.266C395.506 139.074 391.301 136.522 386.063 135.61L33.292 104.169C27.2264 103.257 21.6432 100.888 16.5426 97.0599C11.5798 93.0499 7.58202 87.764 4.54921 81.2022C1.65426 74.4582 0.137855 66.8027 0 58.236V42.1049C0 34.4494 1.37855 27.432 4.13565 21.0524C7.0306 14.4906 10.8905 9.387 15.7155 5.74156C20.5404 1.91385 25.7789 0 31.4309 0H388.958C394.748 0 400.055 1.91385 404.88 5.74156C409.705 9.387 413.565 14.4906 416.46 21.0524C419.355 27.432 420.802 34.5406 420.802 42.3783V55.5019H403.433V45.9326C403.433 38.6417 401.916 32.9913 398.883 28.9813C395.851 24.9713 391.784 22.9663 386.683 22.9663H34.3259C29.2253 22.9663 25.0896 25.0624 21.9189 29.2547C18.8861 33.4469 17.3697 39.0974 17.3697 46.206V56.5955C17.3697 58.7828 17.5076 60.8789 17.7833 62.8839C18.1969 64.7066 18.6794 66.5293 19.2308 68.3521C20.7472 71.9975 22.815 74.9138 25.4342 77.1011C28.0535 79.2884 31.1552 80.6554 34.7395 81.2022L387.51 112.644C393.99 113.738 399.711 116.29 404.673 120.3C409.774 124.31 413.703 129.504 416.46 135.884C419.355 142.263 420.802 149.463 420.802 157.483V177.169C420.802 185.371 419.424 192.662 416.667 199.041C413.91 205.238 410.188 210.069 405.5 213.532C400.813 216.995 395.644 218.727 389.992 218.727H32.0513Z" fill="#FFF8F0"/>
            <path d="M487.65 196.307H679.544V22.4195H487.65V0H888.808V22.4195H696.914V196.307H888.808V218.727H487.65V196.307Z" fill="#FFF8F0"/>
            <path d="M957.75 0H1344.43C1350.22 0 1355.53 1.91385 1360.36 5.74156C1365.32 9.56928 1369.18 14.764 1371.94 21.3258C1374.69 27.7054 1376.07 34.7228 1376.07 42.3783V94.5992C1376.07 105.718 1373.52 115.105 1368.42 122.76C1363.32 130.233 1356.7 134.608 1348.57 135.884L1380 219H1360.15L1329.13 136.978H975.12V218.727H957.75V0ZM1340.92 114.285C1346.16 114.285 1350.43 112.097 1353.74 107.723C1357.05 103.166 1358.7 97.3333 1358.7 90.2247V47.0262C1358.7 39.7353 1357.05 33.9026 1353.74 29.5281C1350.57 25.1536 1346.36 22.9663 1341.12 22.9663H975.12V114.285H1340.92Z" fill="#FFF8F0"/>
</svg>
