<svg viewBox="0 0 1173.81 300" version="1.1" xmlns="http://www.w3.org/2000/svg" id="Layer_1">
  
  <defs>
    <style>
      .st0 {
        fill: #fff;
      }
    </style>
  </defs>
  <path d="M220.56,230.38c7.28-4.77,14.32-10.3,14.32-21.35v-69.33l-11.05-11.55-4.27,4.27,9.54,10.05v66.31c0,9.29-3.27,16.08-9.04,20.6,0,0,.5,1,.5,1ZM178.12,83.7v.75c3.27,1.26,7.03,4.52,7.03,10.8v102.23l-4.02,4.02,15.32,13.06,4.52-3.77-12.31-10.05,2.26-2.01v-102.48c0-8.04-7.28-12.06-12.81-12.56M187.41,237.42c19.59-1.51,38.93-8.04,38.93-28.89v-65.31l-8.79-8.79-9.8,9.54v48.98l8.04,7.28-18.59,16.58h-1.76l-18.08-15.57,5.02-4.77v-99.97c0-7.54-6.28-11.55-10.3-12.31v-1.76c1.76-1,4.52-1.51,8.04-1.51,6.28,0,12.06,3.77,13.81,7.79h.5c3.77-5.53,9.8-7.79,15.57-8.04,1.76,0,3.77.25,5.78.75v2.01c-3.27,1-8.04,5.02-8.04,14.82v41.44l24.11-23.11h1.76c1.76,1.76,12.31,11.3,14.32,12.56,1,.5,2.26,1,3.27,1,2.01,0,3.27-.75,5.02-1.51v2.51c-2.01,1.76-4.27,5.02-4.27,9.04v56.52c0,25.12-27.38,40.19-64.55,42.95,0,.5,0-2.26,0-2.26ZM298.68,128.4l-4.77,3.52c5.53,6.53,12.81,15.07,19.84,22.86l5.02-3.52c-7.28-7.79-14.32-16.33-20.09-22.86M292.9,168.59l18.08-12.31c-6.28-7.28-12.81-14.57-18.08-20.6v32.9ZM304.71,210.29c-10.8-5.02-20.6-8.79-29.39-13.56.5-3.27.75-7.03.75-17.58v-40.94l-5.78,3.01v38.18c0,10.55-.25,17.33-1,20.35,8.54,4.77,20.6,9.8,31.65,14.57,0,0,3.77-4.02,3.77-4.02ZM267.28,139.46c10.8-5.27,26.88-14.82,37.68-22.61h2.01c7.03,7.28,17.33,19.09,26.12,26.88v2.01l-40.19,26.12v16.08c4.27,2.51,15.82,8.54,22.86,10.8l16.08-15.57,2.01,2.01-32.4,31.4h-2.01c-10.8-4.77-25.12-10.8-34.16-15.82,1-3.27,2.01-11.81,2.01-22.1,0,0,0-39.18,0-39.18ZM1089.89,230.13c7.28-4.77,14.32-10.3,14.32-21.35v-69.33l-11.05-11.55-4.27,4.27,9.54,10.05v66.31c0,9.29-3.52,16.08-9.04,20.6,0,.25.5,1,.5,1ZM1047.69,83.44l-.25.75c3.27,1.26,7.28,4.52,7.28,10.8v101.98l-4.02,4.02,15.32,13.06,4.52-3.77-12.31-10.05,2.26-2.01v-102.23c-.25-8.04-7.54-12.06-12.81-12.56M1056.74,237.16c19.59-1.51,38.93-8.04,38.93-28.89v-65.31l-8.79-9.04-9.8,9.54v48.98l8.04,7.28-18.59,16.58h-1.76l-18.34-15.57,5.02-4.77v-99.72c0-7.54-6.28-11.55-10.3-12.31v-1.76c1.76-1,4.52-1.51,8.04-1.51,6.28,0,12.06,3.77,13.81,7.79h.5c3.77-5.53,9.8-7.79,15.57-8.04,1.76,0,3.77.25,5.78.75v2.01c-3.27,1-7.79,5.02-7.79,14.82v41.7l24.11-23.11h1.76c1.76,1.76,12.31,11.3,14.32,12.56,1,.5,2.26,1,3.52,1,2.01,0,3.52-.75,5.02-1.51v3.52c-2.01,1.76-4.27,5.02-4.27,9.04v55.76c0,25.12-27.38,40.19-64.55,42.95l-.25-2.76h0ZM536.55,128.4l-4.77,3.52c5.53,6.53,12.81,15.07,19.84,22.86l5.02-3.52c-7.03-7.79-14.32-16.58-20.09-22.86M531.27,168.34l18.08-12.31c-6.28-7.28-12.81-14.57-18.08-20.6v32.9ZM542.83,210.04c-10.8-5.02-20.6-8.79-29.39-13.56.5-3.27.75-7.03.75-17.58v-40.94l-5.78,3.01v38.18c0,10.55-.25,17.33-1,20.35,8.54,4.77,20.6,9.8,31.65,14.57l3.77-4.02h0ZM505.65,139.21c10.8-5.27,26.88-14.82,37.68-22.61h2.01c7.03,7.28,17.33,19.09,26.12,26.88v2.01l-40.19,26.12v16.08c4.02,2.51,15.82,8.54,22.86,10.8l16.08-15.57,2.01,2.01-32.4,31.4h-2.01c-11.05-4.77-25.12-10.8-34.16-15.82,1-3.27,2.01-11.55,2.01-22.1v-39.18h0ZM605.12,209.79c-7.28-2.01-14.57-6.78-14.57-16.83v-91.43l-8.04-8.29-4.27,4.27,6.53,6.78v90.93c0,10.3,8.29,16.83,16.08,18.84l4.27-4.27h0ZM607.63,93.74v96.7c0,4.02,4.02,8.04,7.79,8.79l5.78-5.78,1.76,2.01-20.6,21.1h-1c-7.79-1.76-19.09-8.79-19.09-20.85v-89.92l-5.78-5.78-6.03,6.03-1.76-2.01,23.11-23.36h1.51l14.32,13.06h0ZM663.14,128.4l-4.77,3.52c5.53,6.53,12.81,15.07,19.84,22.86l5.02-3.52c-7.03-8.04-14.32-16.58-20.09-22.86M657.61,168.34l18.08-12.31c-6.28-7.28-12.81-14.57-18.08-20.6v32.9ZM669.17,210.04c-10.8-5.02-20.6-8.79-29.39-13.56.5-3.27.75-7.03.75-17.58v-40.94l-5.78,3.01v38.18c0,10.55-.25,17.33-1,20.35,8.54,4.77,20.6,9.8,31.65,14.57l3.77-4.02h0ZM631.99,139.21c10.8-5.27,26.88-14.82,37.68-22.61h2.01c7.03,7.28,17.33,19.09,26.12,26.88v2.01l-39.94,26.12v16.08c4.02,2.51,15.82,8.54,22.86,10.8l16.08-15.57,2.01,2.01-32.65,31.4h-2.01c-10.8-4.77-25.12-10.8-34.16-15.82,1-3.27,2.01-11.55,2.01-22.1v-39.18h0ZM835.2,134.68c3.27,3.01,7.79,7.28,11.55,10.55l3.77-4.27c-3.52-3.27-9.04-7.79-11.55-10.55-.25-.25-3.77,4.27-3.77,4.27ZM825.4,209.79c-7.54-2.01-14.57-6.78-14.57-16.83v-55.26l-7.79-8.04-4.52,4.27,6.53,6.78v54.76c0,10.3,8.29,16.83,16.08,18.84l4.27-4.52h0ZM827.66,143.22v47.47c0,4.27,3.77,7.79,7.79,8.54l5.78-5.53,1.76,2.01-20.6,21.1h-1.26c-7.79-1.76-18.84-8.79-18.84-20.85v-54.25l-5.78-5.78-6.03,6.03-2.01-2.01,23.11-23.36h1.76l14.57,14.32v7.79l18.59-22.1h1.76c3.77,3.77,9.54,9.29,14.57,13.06v.25l-15.57,18.59h-.25c-4.27-3.77-10.05-9.04-13.31-12.31-.5.25-6.03,7.03-6.03,7.03h0ZM907.54,194.21v-29.39c-5.78-1.51-11.81-4.02-17.58-6.78v36.42l10.3,6.28,7.28-6.53ZM930.9,210.04c-7.03-2.51-14.57-7.79-14.57-17.58v-50.99l-27.88-14.07c-.75.5-4.02,2.76-5.02,3.52l26.88,14.07v49.48c0,9.54,8.79,16.83,16.08,19.59,0,0,4.52-4.02,4.52-4.02ZM907.54,161.81v-15.32l-26.37-13.81c-2.01,1.51-9.04,5.78-11.3,7.03,6.28,8.29,22.61,18.34,37.68,22.1M891.71,209.54l-18.59-12.31v-27.38l-5.53,4.27v26.62l19.84,13.31c0-.25,4.27-4.52,4.27-4.52ZM886.94,216.57l-22.35-14.82v-29.14c5.53-4.02,17.33-12.06,22.86-16.08-8.79-4.77-16.33-10.55-20.85-16.08v-2.01c13.31-7.54,22.86-14.57,30.89-21.85h1.76s27.38,13.06,28.89,13.56c1.51.75,2.51,1.26,4.02,1.26,2.01,0,3.52-.5,5.53-1.51v3.01c-2.01,1.51-4.27,4.27-4.27,8.54v48.98c0,5.02,4.52,8.54,7.79,9.29l5.78-5.78,1.76,2.01-20.6,21.1h-1.26c-8.04-2.26-17.08-10.05-18.59-19.09l-19.84,19.34c-.25-.5-1.51-.5-1.51-.75h0ZM751.3,194.21v-50.74l-18.59-8.04v57.77l11.55,7.79s7.03-6.78,7.03-6.78ZM760.09,137.7l-27.38-11.55v6.03l21.35,9.29v55.76c0,12.06,5.27,25.12,13.31,35.16l4.27-4.27c-7.03-9.29-11.81-19.59-11.81-31.65l.25-58.78h0ZM730.71,213.81l4.52-4.02-19.59-12.56v-59.78l-5.53,4.02v58.52l20.6,13.81h0ZM722.92,237.42c-7.28,0-13.56,3.27-17.33,8.29v1c4.27-2.51,9.29-4.02,17.33-4.02,9.54,0,21.85,2.76,28.89,6.53l3.77-4.52c-8.29-4.02-20.09-7.28-32.65-7.28M707.1,201.25v-61.54l32.65-22.86h2.01c6.28,2.76,27.38,11.55,29.89,12.81,1,.25,2.26.75,3.52.75,2.01,0,4.02-.75,6.28-1.76v3.52c-2.01,1.76-4.52,5.53-4.52,8.54v52.24c0,12.31,2.51,19.34,7.54,24.36v2.01c-7.28,7.28-23.86,24.36-31.15,33.41h-1.26c-7.03-4.02-19.09-7.03-28.89-7.03-7.28,0-15.32,2.01-21.6,6.78l-1.51-1.26c5.53-13.06,17.58-26.37,32.9-26.37,9.54,0,22.1,4.02,32.65,9.8-7.28-8.29-13.81-23.61-14.07-36.42l-19.34,18.59h-1.51l-23.61-15.57h0ZM998.96,132.93l10.05,9.8v53.75l5.78-3.27v-53.5l-11.3-11.3-4.52,4.52h0ZM1002.98,215.56c1-1.51,3.01-3.52,4.02-4.77l-19.84-4.27v5.53l15.82,3.52ZM1006,196.47v-53l-8.79-9.04-9.8,9.29v48.98c4.27,1,16.33,3.27,18.59,3.77M964.8,232.89l-4.02,3.77,14.82,12.81,4.52-4.02-11.55-9.8,2.01-2.01v-95.45l-8.29-8.29-4.02,4.02,6.53,6.78v92.18h0ZM987.16,139.71l24.11-22.86h1.76c1.76,1.76,12.81,11.55,14.57,12.81,1,.5,2.26.75,3.27.75,2.01,0,3.52-.75,5.02-1.51v3.27c-2.01,1.51-4.27,5.02-4.27,9.04v59.03c-10.3,2.51-18.59,8.04-27.38,18.34h-.75l-16.08-3.27v13.06l8.29,7.54-19.59,16.33h-1l-18.34-15.57,5.02-5.27v-21.85c-2.01-.5-5.78-1-7.54-1.51v-2.76c2.26-1,8.04-6.53,8.04-11.3v-51.99l-5.78-5.78-6.03,6.03-2.01-2.01,23.11-23.36h1.76l14.57,14.32-.75,8.54h0ZM104.27,168.34l-.25-25.62-5.78,4.02v23.86c0,2.51-.5,4.77-1.26,6.53h.75c3.52-2.26,6.53-5.78,6.53-8.79M74.63,128.15c-8.29,8.29-16.08,19.84-16.08,34.41,0,34.66,23.36,52.24,53,52.24,18.34,0,31.4-10.05,38.93-17.58l-.5-.75c-8.54,7.03-20.35,12.56-38.43,12.56-23.86,0-46.97-14.57-46.97-46.72,0-12.56,4.77-25.12,10.8-33.66,0,0-.75-.5-.75-.5ZM138.18,114.59c-22.1,0-42.2-10.8-58.27-10.8-10.3,0-22.35,4.27-26.62,16.33l.75.25c4.77-8.29,16.08-11.05,25.87-11.05,16.08,0,36.17,11.05,58.27,11.05,17.83,0,28.13-6.03,29.89-20.35l-1-.25c-2.51,10.8-11.05,14.82-28.89,14.82M55.54,162.56c0-23.61,17.83-39.94,34.41-47.22l1.26,1.51c-6.03,7.03-10.3,13.81-10.3,28.13,0,16.33,4.27,27.63,11.05,35.16,2.26-2.51,3.52-6.53,3.52-10.05v-24.36l29.89-21.35,1.26,1.76c-2.51,3.77-4.02,7.28-4.02,13.06v15.57c0,10.8-17.83,22.61-28.89,27.13,7.28,7.03,17.58,10.05,28.89,10.05,4.02,0,7.79-.25,11.05-.75v-68.57c-9.8-.5-19.09-3.27-27.63-5.53-9.04-2.76-18.34-5.02-26.12-5.02-12.06,0-26.62,4.02-26.88,21.6,0,1.51.25,3.27.5,5.02l-2.26.75c-2.01-5.53-3.27-10.8-3.27-16.08-.25-21.1,15.32-39.69,40.44-39.69,10.55,0,20.6,2.51,29.14,5.02,9.29,2.76,18.59,5.02,28.13,5.02,4.77,0,7.54-2.51,7.54-7.03s-2.51-6.53-6.03-7.54l.5-2.26c10.8,2.01,22.61,8.29,22.61,21.85,0,16.33-11.81,24.11-31.9,24.11h-2.01v67.82c13.06-2.51,21.85-8.54,28.38-19.09l2.01,1.26c-7.28,23.11-24.36,45.21-55.01,45.21-30.89-.25-56.26-18.34-56.26-55.51M431.8,168.34l-.25-25.62-5.78,4.02v23.86c0,2.51-.5,4.77-1.26,6.53h.75c3.77-2.26,6.53-5.78,6.53-8.79M402.42,128.15c-8.29,8.29-16.08,19.84-16.08,34.41,0,34.91,23.36,52.24,53,52.24,18.34,0,31.4-10.05,38.68-17.58l-.5-.75c-8.54,7.03-20.35,12.56-38.18,12.56-23.86,0-46.97-14.57-46.97-46.72,0-12.81,4.52-25.37,10.55-33.91l-.5-.25h0ZM465.96,114.59c-22.1,0-42.2-10.8-58.27-10.8-10.3,0-22.35,4.27-26.62,16.33l.75.25c4.77-8.29,16.08-11.05,25.87-11.05,16.08,0,36.17,11.05,58.27,11.05,17.83,0,28.13-6.03,29.89-20.35l-1-.25c-2.51,10.8-11.05,14.82-28.89,14.82M383.33,162.56c0-23.61,17.83-39.94,34.41-47.22l1,1.51c-6.03,7.03-10.3,13.81-10.3,28.13,0,16.33,4.27,27.63,11.05,35.16,2.26-2.51,3.52-6.53,3.52-10.05v-24.36l29.89-21.35,1.26,1.76c-2.76,3.77-4.02,7.28-4.02,13.06v15.57c0,10.8-17.83,22.61-28.89,27.13,7.28,7.03,17.58,10.05,28.89,10.05,4.02,0,7.79-.25,11.05-.75v-68.57c-9.8-.5-19.09-3.27-27.38-5.53-9.04-2.76-18.34-5.02-26.12-5.02-12.06,0-26.62,4.02-26.88,21.6,0,1.51.25,3.27.25,5.02l-2.26.75c-2.01-5.53-3.27-10.8-3.27-16.08-.25-21.35,15.32-39.94,40.44-39.94,10.55,0,20.6,2.51,29.14,5.02,9.29,2.51,18.59,5.02,28.13,5.02,4.77,0,7.54-2.51,7.54-7.03s-2.26-6.78-5.78-7.79l.25-2.26c10.8,2.01,22.61,8.29,22.61,21.85,0,16.33-11.81,24.11-31.65,24.11h-2.01v67.82c13.06-2.51,21.85-8.54,28.38-19.09l2.01,1.26c-7.28,23.11-24.36,45.21-55.01,45.21-30.89.25-56.26-17.83-56.26-55.01" class="st0"></path>
</svg>