<svg viewBox="0 0 284.5 33.51" version="1.1" xmlns="http://www.w3.org/2000/svg" id="Layer_1">
  
  <defs>
    <style>
      .st0 {
        fill: #fff8f0;
      }
    </style>
  </defs>
  <g id="_x23_231f20ff">
    <path d="M126.12,0c1.17-.01,2.33.11,3.49.1-.01.18-.05.36-.1.54.17,0,.33-.02.5-.03,0,.73-.01,1.47-.01,2.2.42-.35.8-.74,1.24-1.06.09.22.18.44.29.66.2-.16.46-.24.71-.12.17.02.15.35.33.3.09-.25.24-.56.56-.53.28-.07.42.22.46.45.17-.27.53-.45.82-.25.26.15.18.47.18.72.26-.12.57-.27.86-.15.16.1.3.28.29.48-.03.17-.15.31-.23.46.03.05.09.15.11.2.24-.05.57-.17.72.11.05.29-.02.63-.29.78-.16.05-.33.08-.48.14.11.2.33.31.4.52-.02.18-.11.36-.28.44-.2.12-.44-.06-.64.02-.07.21.26.32.16.54-.14.27-.47.14-.71.18-.22.13-.41.29-.61.45.09.13.22.25.27.41,0,.14-.02.28-.02.43.38.29.77.57,1.15.86.57-.67,1.06-1.41,1.64-2.08.03.48.1.95.13,1.43.04.27.03.55.15.8.44-.44.78-.97,1.22-1.42-.06.66-.27,1.31-.28,1.98.56-.22,1.08-.58,1.69-.65-.39.81-.82,1.61-1.33,2.35.49.07.99.03,1.49.04-.5.66-1.13,1.21-1.69,1.83.11.64.41,1.24.58,1.87.06.14.05.33.2.4.65.29,1.32.56,1.99.82,1.11.45,2.33.62,3.52.55-.14-.19-.28-.37-.42-.55.06-.32.08-.64.13-.96.07-.63-.03-1.26.08-1.89.28,0,.56-.02.85-.01.32.43.53.93.72,1.42.44-.12.74-.48,1.02-.81.16-.21.43-.22.68-.26,0-.25-.03-.5-.05-.75-.2-.09-.41-.17-.58-.32-.19-.22-.19-.53-.27-.79-.16-.22-.38-.44-.64-.53-.3-.06-.52.19-.72.38-.24.24-.61.27-.92.17-.3-.08-.72-.08-.87.25-.24.47-.35.98-.58,1.46-.12.24-.36.42-.63.42-.5.06-1.08-.13-1.52.18-.12.25-.13.54-.28.78-.16.08-.34.1-.52.13-.15-.65-.26-1.36.01-2,.11-.27.35-.49.62-.6.33-.13.62-.36.8-.67-.14-.41-.45-.73-.69-1.08-.03-.18.14-.3.25-.42.06-.4-.25-.75-.22-1.15.03-.28.33-.36.56-.43.26-.09.54-.02.79-.13.31-.13.62-.27.85-.53.17-.16.32-.38.57-.42.36-.08.73-.01,1.05.16.3.15.64.13.96.08-.07-.43-.53-.71-.56-1.15-.03-.21.25-.16.37-.09.33.18.69.3,1.07.34-.22-.36-.53-.67-.71-1.06.39-.02.77.12,1.16.07.14.02.22-.1.32-.18-.17-.06-.35-.1-.49-.22-.16-.15-.26-.35-.43-.49-.17-.08-.37-.11-.5-.25-.15-.17-.22-.39-.34-.57-.2-.05-.43-.03-.6-.16-.2-.15-.18-.42-.29-.62-.19-.08-.39-.09-.58-.17-.15-.17-.21-.4-.34-.58-.19-.08-.42-.11-.57-.26-.14-.14-.17-.34-.27-.5-.22-.11-.52-.1-.66-.32-.12-.33-.22-.72-.07-1.06.29-.1.43.23.55.43.14.02.29.02.41.11.12.12.2.26.31.38.15.03.31.03.46.07.12.09.18.22.27.33.1.16.32.06.46.16.17.11.24.32.37.47.17,0,.34,0,.51,0,.2.23.39.47.63.66.23.13.54.13.73.33.18.16.24.45.49.51.43.12.74.46,1.13.68.27-.5.67-.93.91-1.46.17.05.35.1.52.17.09.39.08.8.14,1.2.05.36-.1.7-.12,1.06.06.21.23.36.36.53.04-.26.04-.52.09-.78.09-.3.35-.51.55-.73.27-.25.47-.56.67-.87.19.08.39.15.59.22,0,.56-.07,1.18.31,1.65.28.33.45.74.52,1.17,0,.11.12.2.23.15.46-.21.9-.5,1.4-.63.48.03.93.29,1.42.25.06-.24.06-.51.19-.73.11-.21.37-.24.58-.31.35-.08.7-.2,1.06-.21-.29.31-.8.23-1.1.54-.22.3-.09.7-.24,1.02-.09.08-.19.15-.31.12-.55-.04-1.08-.31-1.64-.2-.49.19-.92.48-1.37.74-.26.13-.39.41-.54.65.45.67.96,1.32,1.34,2.04.27.46.42.99.56,1.5.29,1.07.45,2.2.28,3.3-.13.71-.38,1.38-.59,2.07-.06.21-.19.4-.16.62.07.08.18.12.27.18-.12.28-.28.54-.36.84.4.03.74-.22,1.13-.26.27.03.51.3.8.22.53-.15,1.02-.4,1.55-.55.37-.09.75-.25,1.13-.13.54.12.99.47,1.46.74.15.17.19.41.31.6.19.32.34.67.53.99.05.14.21.09.33.1.14-1,.21-2.1-.3-3.01.18-.07.37-.16.56-.2.49.36.87.87,1.39,1.2.27-.81.02-1.72.45-2.49.13.14.28.28.32.47.06.55-.03,1.11.1,1.65.5-.51,1.07-.94,1.63-1.37.15-.11.31-.21.48-.28.19-.03.37.08.55.13-.32.56-.77,1.05-1.05,1.63.22.06.44.06.67.09.19.12.34.3.54.42.13.03.26.03.39.04.07-.54-.1-1.05-.26-1.55.12-.04.24-.07.37-.11.08.19.13.41.3.54.15.12.31.21.48.3.13-.37.25-.74.38-1.11.06-.26.35-.35.54-.5.08.31.14.63.22.94.4-.33.74-.73,1.14-1.06.19-.01.37.08.55.15-.04.35-.22.66-.32.99-.14.38-.2.78-.24,1.18.97-.19,2.04-.31,2.98.1-.57.4-1.3.43-1.91.76-.39.21-.81.37-1.19.6.87-.21,1.79-.29,2.67-.08-.02.23-.23.35-.43.4-.45.13-.9.25-1.33.41-.28.1-.51.31-.76.47,0,.03-.02.09-.02.12.36,0,.7.11,1.04.22.26.08.53.14.76.3.18.14.24.36.28.57-.58-.15-1.18-.28-1.79-.25-.65-.02-1.3.03-1.91.27-.02.02-.06.06-.09.08,0,.39.01.78.04,1.17.78-.37,1.59-.65,2.39-.95-.09.57-.26,1.13-.26,1.71.73-.22,1.46-.43,2.16-.72-.21.83-.9,1.37-1.39,2.03.21.13.42.37.7.28.59-.25,1.15-.57,1.73-.86-.16.62-.3,1.25-.51,1.85-.81.53-1.69.94-2.53,1.42-.37.18-.71.43-1.1.57-.52-.11-1.01-.3-1.52-.46.94-.58,1.89-1.15,2.83-1.73-.45-.15-.91-.28-1.37-.37.09.26.21.52.2.81-.35.11-.73.03-1.09.06,0,.13,0,.26,0,.4-.54.04-1.06-.08-1.6-.11.16.25.31.5.47.75-.07.09-.13.18-.18.29.18.2.41.35.58.56,0,.12-.09.2-.15.28-.19.21-.38.41-.59.61-.31-.27-.64-.52-.95-.79,0-.02-.01-.07-.02-.09.15-.2.32-.37.48-.56-.25-.27-.5-.54-.77-.79-.4-.35-.97-.37-1.48-.36.01.11.02.22.06.33.25.03.51.01.77.06.12.03.15.16.21.25.15.32.29.64.46.95-.14.02-.29.11-.41.04-.1-.14-.19-.29-.27-.44-.17-.03-.33-.05-.5-.07-.12.19-.27.36-.36.57.06.27.12.54.25.79.14.08.29.15.44.23-.65.03-1.31.05-1.96.08.14-.13.31-.24.39-.43-.28-.03-.59.05-.85-.1-.27-.16-.51-.36-.77-.53.04.23.08.47.17.69.14.1.3.12.46.17,0,.04,0,.11,0,.14-.62,0-1.25,0-1.87.02,0-.04,0-.12,0-.16.12-.02.24-.05.36-.08-.03-.36-.19-.68-.3-1.02-.1-.25-.16-.52-.32-.74-.27-.12-.56-.18-.81-.33.14-.07.29-.13.44-.2-.02-.15-.08-.29-.17-.42-.99.03-1.97-.1-2.96-.21-1.85-.23-3.68-.59-5.47-1.09-2.29-.63-4.57-1.3-6.85-1.96-.7-.19-1.4-.45-2.13-.52-.57-.06-1.13-.12-1.7-.13-.4,0-.81-.07-1.21-.02-.31.04-.67-.02-.93.21-.46.41-.66,1.02-.83,1.59-.27.73-.56,1.45-.87,2.16-.21.49-.57.89-.87,1.34-.32.54-.57,1.13-.57,1.77.41-.63.82-1.28,1.38-1.79.53-.56,1.19-.97,1.88-1.3.72-.35,1.53-.55,2.33-.51,1.56.04,3.03.65,4.5,1.13,3.25,1.05,6.58,1.89,9.95,2.46,4.83.89,9.79.82,14.64.16,1.35-.13,2.67-.42,4.01-.65-.44.56-.87,1.12-1.33,1.66-1.01.2-2.04.3-3.07.44-1.59.19-3.18.34-4.78.42-.91,0-1.83.11-2.74.02-.93-.01-1.86-.11-2.78-.22-1.81-.19-3.62-.43-5.42-.72-1.62-.27-3.24-.58-4.79-1.13-2.51-.8-5.02-1.64-7.57-2.33-.47-.12-.95-.25-1.44-.17-.97.15-1.83.68-2.63,1.21-.4.31-.83.58-1.14.98-.11.41.49.56.77.4.16-.12.28-.28.43-.41.55-.5,1.25-.78,1.94-1.02.63-.21,1.31-.38,1.98-.2.98.25,1.91.64,2.81,1.1-.19.31-.37.63-.57.93-.99-.43-2.01-.83-3.07-1-1.19-.02-2.17.8-2.99,1.57-.24.27-.6.41-.96.36-.42-.06-.85-.17-1.21-.4-.33-.21-.5-.61-.5-.99-.02-.56.02-1.11.02-1.67-.16.13-.31.26-.48.37.02.3.14.61.08.91-.22.32-.45.66-.79.85-.27.01-.54-.09-.81-.1-.49.27-.93.6-1.43.85.04.24.14.49.02.72-.12.4-.55.65-.96.6-.9-.07-1.8-.11-2.69-.25-.78-.17-1.54-.43-2.3-.67-.2.28-.37.59-.45.93-.2.34-.63.5-1.01.47-.3.02-.58-.07-.86-.14-.46-.13-.93-.12-1.4-.17-.11-.22-.26-.41-.33-.65-.04-.35.04-.71-.07-1.05-.08-.33-.24-.65-.26-.99.06-.26.35-.34.54-.49-.01-.16-.19-.23-.28-.35-.36-.3-.6-.72-.89-1.08.08.63.26,1.27.11,1.91-.12.65-.52,1.31-1.16,1.55-.38.17-.81,0-1.1-.26-.35-.3-.49-.76-.83-1.07-.53-.5-1.24-.74-1.93-.94-.48-.16-1.01-.12-1.5.02-.6.16-1.19.35-1.76.61-.21.09-.43.2-.66.24-.13-.23-.28-.44-.39-.69.92-.42,1.86-.8,2.85-1.04.72-.21,1.5-.23,2.21.02.81.28,1.47.83,2.08,1.41.13.16.34.12.52.12.15-.18.32-.46.11-.66-.44-.45-.91-.87-1.41-1.25-.52-.4-1.16-.59-1.79-.73-.8-.1-1.59.11-2.37.29-3.21.83-6.31,2.03-9.5,2.9-1.82.51-3.69.93-5.59.99-.99.09-1.98,0-2.96.1-.81.02-1.62.02-2.43,0-.43-.04-.86-.05-1.29-.06-3.14-.16-6.27-.45-9.4-.76-.2-.48-.4-.97-.59-1.45.76.2,1.54.35,2.33.44,1.57.12,3.14.24,4.71.33,1.55.09,3.1.21,4.65.24.83.07,1.66.05,2.49.07,1.13,0,2.27.03,3.4-.13,1.38-.21,2.74-.57,4.09-.94,1.71-.48,3.42-1,5.11-1.56,1.59-.5,3.16-1.1,4.78-1.48.75-.16,1.51-.29,2.28-.26.7-.02,1.43.15,2,.57.92.68,1.76,1.47,2.56,2.3-.06-.31-.12-.63-.21-.93-.14-.23-.34-.42-.5-.62-.82-.96-1.66-1.91-2.63-2.72-.07.1-.14.2-.21.3-.13,0-.26-.01-.38-.03-.07-.15-.13-.3-.19-.45-.2,0-.4.03-.55.16-.19.16-.48.17-.67.02-.15-.13-.38-.13-.5.04-.27.31-.71.49-1.12.44-.23-.03-.37-.22-.45-.42-.06,0-.13.01-.19.02-.12.24-.41.23-.63.26,0-.33.06-.74-.27-.94-.2.02-.38.17-.41.38-.12.53-.2,1.06-.3,1.6.18-.03.37-.06.55-.09,0,.04,0,.13,0,.18-.78.18-1.5.55-2.29.69,0-.3.43-.21.5-.48.22-.62.45-1.28.41-1.95-.53.33-.86.88-1.31,1.31.07-.4.14-.8.19-1.21.64-.2,1.27-.43,1.91-.62.26-.07.52-.18.74-.33.05-.29-.25-.48-.51-.43-.51.1-.99.29-1.48.43-3.15,1-6.26,2.12-9.46,2.94-.82.2-1.66.36-2.51.41-1.29.02-2.58.02-3.87-.02-.74-.06-1.49-.08-2.23-.09-.09.34-.16.72-.43.97-.26.16-.57.19-.87.23.06.22.14.44.2.67-.53.22-1.04.5-1.57.73-.13-.38-.25-.77-.38-1.16.42-.13.83-.28,1.25-.39.08-.02.15-.06.2-.14-.07-.1-.14-.25-.29-.18-.35.08-.69.23-1.06.26-.22-.05-.4-.2-.57-.34-.01-.18-.02-.36-.02-.54-.41.06-.59-.33-.79-.6-.33-.04-.65-.13-.97-.15-.29.03-.38.37-.61.51-.11-.04-.2-.1-.29-.16-.1.03-.2.06-.3.08-.06-.05-.12-.09-.18-.14-.14.04-.26.19-.41.14-.2-.08-.41-.1-.61-.13,0-.12,0-.24-.01-.36-.23-.04-.46-.09-.68-.18,0-.11.04-.21.06-.32-.04-.14-.18-.28-.11-.43.06-.13.14-.26.25-.35.13-.04.26-.03.39-.05.11-.11.14-.26.2-.4.15.01.3.04.46.06.18-.19.41-.03.63,0,.23.06.48.04.7-.05.05-.08.08-.16.12-.25-.34-.05-.69-.1-1.03-.13-.05-.4.12-.76.35-1.07-.33.05-.65.15-.98.18-.14,0-.3.03-.41-.08-.17-.13-.17-.41-.39-.47-.15-.06-.32-.07-.48-.09.05-.11.1-.21.15-.32-.15-.01-.3-.03-.45-.04,0-.06-.03-.18-.04-.24-.24-.05-.56-.03-.69-.28-.16-.28-.35-.53-.58-.75.24,0,.48.02.7-.09.66.01,1.28-.22,1.91-.37.25-.02.51-.02.75-.1.03-.17.07-.34.1-.51-.21,0-.43-.05-.62.06-.32.16-.65.34-1.01.34-.05-.05-.09-.1-.14-.15-.18.05-.37.07-.56.08-.03-.29-.32-.23-.53-.28-.09-.14-.11-.31-.15-.46-.09-.13-.23-.21-.34-.32.02-.32-.23-.52-.32-.8-.22-.11-.44-.29-.48-.55-.07-.36-.31-.67-.3-1.05.22.08.43.21.65.28.03-.04.09-.13.13-.17.35.23.69.46,1.08.63,0-.12.01-.25.02-.37.21.07.37.29.61.26.26-.05.44.28.7.12.19.16.45.2.66.33.14.22.26.45.36.69.04.22.06.45.1.68.17,0,.42-.06.39-.28-.04-.71-.47-1.3-.62-1.98.06-.04.11-.09.17-.13-.02-.13-.03-.26-.05-.39.26-.02.12-.29.13-.45.08-.03.24,0,.25-.13.06-.19.06-.39.11-.58.06-.07.15-.08.24-.11.08.23.13.49.3.67.28.33.7.52.91.91.17.21.15.49.13.75.15-.01.3-.06.45-.03.18.06.33.18.5.27.02-.17.04-.37.2-.47.2-.08.41-.1.62-.13,0-.25-.19-.42-.31-.61-.14-.21-.27-.44-.31-.69.04-.32.2-.6.27-.91-.05-.29-.11-.66-.4-.79-.48-.06-.96.1-1.44.06-.27-.12-.49-.34-.72-.53-.32-.25-.39-.68-.49-1.05.2-.01.41-.03.61.02.51.12,1.04.17,1.56.12.58-.19,1.13-.61,1.77-.51.51.08.78.58,1.22.81.31-.05.63-.12.94-.05.35.14.57.5.6.86.02.25,0,.49.02.74.89-.09,1.77-.3,2.67-.35.74-.08,1.52-.09,2.21.23.66.27,1.21.79,1.49,1.44.37.87.54,1.84.44,2.78-.03.27-.15.52-.29.75-.12.15.02.33.1.46.16.29.53.26.81.27-.07-.17-.15-.34-.21-.51.3-.09.63-.1.93-.2.21-.09.34-.29.46-.48-.45-.21-.92-.39-1.33-.68.53-.46,1.24-.62,1.88-.86.36-.21.78-.31,1.14-.52,0-.2-.27-.24-.43-.25-.42-.06-.75.23-1.11.38-.32.13-.66.26-1.01.22-.23-.04-.41-.18-.57-.34.36-.07.77-.07,1.07-.32.35-.21.58-.64,1.01-.71.26-.07.54-.07.8-.15.21-.11.38-.27.57-.41-.29-.15-.6-.31-.76-.61-.12-.41.1-.81.06-1.23-.24.17-.52.32-.72.55.02.34.06.67.01,1.01-.31-.08-.42-.42-.64-.62-.3-.26-.69-.35-1-.59-.21-.16-.41-.36-.54-.6-.16-.34.13-.67.08-1.01-.06-.23.07-.43.16-.62-.32-.19-.59-.46-.81-.76-.2-.29.09-.59.17-.87.31-.85.76-1.63,1.22-2.4-.16,0-.31,0-.46-.01-.04-.14-.07-.28-.11-.42-.21.1-.41.25-.64.12-.03-.16-.06-.32-.09-.48-.2-.1-.43-.06-.64-.07-.16-.02-.23-.19-.19-.33.11-.19.31-.29.44-.46,0-.1.02-.2.02-.31-.16-.04-.33-.09-.46-.2-.09-.31.2-.56.42-.73.19-.06.37.08.53.16.06-.03.12-.05.18-.08.05-.14.02-.36.19-.42.15-.09.32-.06.48-.07.05.08.09.16.14.25.13,0,.26,0,.39,0-.14-.19-.29-.39-.36-.62.3-.03.6,0,.9.04.06-.15.12-.31.18-.47-.33-.15-.67-.27-1.01-.42.77-.36,1.52-.79,2.3-1.13-.15.36-.34.71-.49,1.07.1.09.26.12.39.1.22-.19.39-.41.59-.62.09.35.16.7.26,1.05.08,0,.16.01.24.02-.06-.19-.17-.4-.09-.6.12-.27.45-.26.69-.35-.06-.24-.26-.49-.12-.74.16-.11.36-.18.54-.08.2.13.51.06.6-.17.08-.17.19-.41.43-.36.3.02.36.38.43.61.19-.06.4-.2.61-.1.18.06.31.26.27.44-.05.22-.18.41-.24.63.25.05.54-.03.75.13.14.23.01.49.02.74.2.2.45.36.61.6.19.37-.21.79.04,1.16.27-.05.45-.26.63-.45.63-.04,1.26.13,1.89.13.4.03.69-.31,1.05-.43.12.16.25.39.14.59-.07.14-.16.27-.22.42.03.16.15.31.29.39.42.1.85-.05,1.23-.24.13-.08.28-.04.42-.04,0,.3-.07.63-.27.87-.25.18-.58.14-.88.2,0,.04.01.12.02.16.45.27.98.33,1.47.53-.14.28-.28.56-.51.78.19.25.38.53.68.65.12.08.3.1.35.25-.54.22-1.13.12-1.69.11.19.19.41.36.63.52.33.26.76.34,1.14.49-.08.21-.2.41-.28.63.21.28.51.47.71.76.02.2-.02.41-.01.61-.03.33.22.58.32.87-.26-.09-.54-.2-.73-.42-.28-.3-.37-.72-.65-1.01-.16-.18-.59-.13-.52.18.13.31.38.55.54.85.18.29.07.68.27.95.33.32.78.47,1.09.81.3.4.41.9.67,1.32.38.02.72-.17,1.04-.33.21-.11.44-.21.61-.39.09-.15.13-.33.18-.5.12-.45.36-.86.39-1.33.01-.1-.09-.16-.14-.23-.39-.4-.76-.83-1.15-1.24.38-.06.77-.14,1.15-.2-.28-.42-.58-.84-.91-1.23-.24-.25-.39-.57-.48-.9.64.12,1.3.25,1.87.59-.22-.77-.69-1.46-.8-2.27.18.07.35.15.5.27.37.28.75.55,1.14.79.04-.76-.04-1.53.1-2.28.4.42.74.89,1.1,1.35.22.29.53.52.9.56.02-.16,0-.33.05-.49.1-.13.23-.22.36-.31,0-.26.11-.5.23-.73-.17-.19-.32-.4-.53-.56-.2-.05-.43-.04-.6-.17-.1-.17-.04-.36-.02-.55-.23,0-.49.03-.69-.11-.15-.13-.2-.35-.13-.54.11-.11.25-.16.39-.23,0-.04,0-.11,0-.15-.24,0-.54-.06-.63-.32-.09-.16-.07-.36.01-.52.12-.16.34-.15.51-.2.21-.08-.06-.21-.11-.31-.23-.26.06-.59.31-.68.21-.13.39.06.56.16-.05-.23-.2-.57.08-.71.29-.21.61.03.86.19,0-.17-.07-.36.02-.52.17-.19.47-.19.7-.12.24.13.2.47.42.61.07-.16.1-.34.21-.48.26-.24.73-.12.88.2.05.11.14.18.24.22.22-.27.36-.59.59-.84.38.15.64.5,1,.7,0-.66.02-1.32.03-1.97.18.03.35.08.53.11-.02-.21-.05-.42-.08-.63M126.61.46c.23.34.46.67.67,1.02.18-.03.35-.1.53-.1.13.03.25.09.38.15.27-.3.51-.61.78-.91-.78-.06-1.57-.1-2.35-.15M142.29.76c-.04.27,0,.55.12.79.03.09.15.05.22.08.05-.08.09-.17.14-.25.16.26.27.56.5.77.08-.05.17-.1.26-.14.04.24.16.46.32.64.05,0,.14,0,.19,0,.03-.1.05-.19.09-.29.16.27.23.58.41.83.07.15.25.15.4.16.03-.14.05-.27.08-.41.19.33.23.71.39,1.05.08.2.33.21.5.27,0-.16,0-.33.02-.49.29.33.37.78.59,1.16.1,0,.2,0,.3,0,0-.24-.06-.47-.08-.71.26.22.39.55.55.84.18.31.33.72.74.75,0-.22,0-.44.01-.66.13.11.29.21.36.38.03.13.02.27.08.39.17.08.35.11.53.16.05-.09.1-.18.15-.27.14.2.22.47.46.58.11-.19.09-.4.03-.6-.18-.07-.37-.1-.55-.18-.15-.16-.26-.38-.49-.44-.34-.11-.52-.44-.79-.65-.21-.19-.51-.18-.75-.3-.21-.19-.33-.48-.56-.65-.22-.07-.46,0-.68-.05-.12-.26-.21-.55-.39-.78-.18-.1-.4,0-.59,0-.09-.19-.17-.38-.3-.55-.15-.04-.31-.05-.46-.07-.09-.14-.17-.28-.29-.4-.16-.07-.34,0-.51,0-.1-.18-.2-.37-.34-.52-.11-.02-.21-.02-.32-.03-.09-.16-.19-.32-.34-.44M126.19,1.21c-.02.42-.05.84-.08,1.25.33-.11.67-.21.99-.36,0-.04-.01-.12-.02-.15-.26-.29-.58-.52-.9-.74M128.43,2.18c.32.16.67.29,1.01.42.01-.44.03-.89.03-1.33-.35.3-.77.53-1.04.91M127.55,1.84c-.12.08-.28.23-.2.39.1.32.54.35.78.19.13-.13.11-.35-.01-.47-.14-.16-.38-.14-.57-.11M104.9,2.45c-.2.06-.39.11-.59.16-.12-.16-.25-.32-.47-.28-.02.21.07.41.13.6-.08.12-.19.23-.31.32-.13.02-.26.02-.39.03.04.14.1.28.15.42-.05.18-.17.34-.17.53,0,.14.08.27.13.4.26-.4.43-.87.79-1.2.25-.2.51-.4.8-.52.25-.08.49.11.59.33.15.28.03.6-.07.87.14-.07.27-.15.41-.22.21-.13.46-.02.69-.02,0-.09-.01-.18-.02-.27-.16-.02-.33-.05-.49-.08-.04-.19-.1-.37-.17-.55.1-.09.2-.17.29-.27-.05-.1-.06-.26-.2-.26-.13,0-.24.08-.36.1-.12,0-.24-.04-.35-.06.04-.15.09-.31.09-.47-.05-.03-.15-.08-.2-.1-.24.07-.28.33-.29.54M121.84,2.34c0,.13-.02.26.03.38.1.14.28.09.42.09.04-.14.11-.3,0-.44-.1-.17-.31-.07-.46-.04M124.67,2.24c-.17.31-.37.62-.38.98.19-.05.39-.17.59-.09.35.17.57.5.76.83.36.68.61,1.42.97,2.11.25.1.2-.18.18-.33-.13-.7-.3-1.41-.64-2.04-.36-.6-.89-1.09-1.48-1.46M123.15,2.37c-.03.14-.03.29-.02.43.11,0,.23.02.35.02.07-.15.14-.31.05-.48-.13,0-.26,0-.38.02M129.78,3.67c-.48.68-.7,1.51-.75,2.34.05,0,.16,0,.21,0,.21-.54.45-1.07.67-1.6.24-.58.73-1,1.21-1.37.1.08.2.15.31.22-.06-.35-.15-.68-.24-1.02-.53.41-1.04.86-1.42,1.43M132.86,2.37c0,.12,0,.24.02.35.1.14.31.11.43,0,.02-.12.01-.24.01-.37-.15,0-.31,0-.46,0M133.97,2.56c-.09.14.07.25.13.35.1-.05.21-.1.3-.17.02-.1,0-.2-.03-.29-.14-.03-.38-.08-.4.11M131.86,2.62c-.21.1-.08.45.13.42.15.01.32-.18.24-.33-.08-.12-.26-.16-.38-.09M120.81,2.87c-.04.16.08.29.14.42.12,0,.24,0,.35-.04.07-.09.12-.2.1-.32-.08-.24-.46-.25-.59-.07M127.37,2.78c-.3.13-.43.44-.54.73.67.02,1.33,0,2,0-.04-.18-.03-.38-.17-.52-.32-.35-.88-.4-1.29-.21M122.05,3.21c-.68.25-1.26.78-1.51,1.47-.12.4-.1.86.14,1.21.43.66,1.11,1.1,1.78,1.5.08-.06.29-.05.23-.18-.39-.31-.78-.63-1.08-1.02-.31-.42-.42-1.06-.06-1.48.29-.34.71-.55,1.14-.66.63-.1,1.26.06,1.84.29.31.12.6.31.93.38-.15-.28-.37-.5-.57-.75-.4-.52-1.04-.85-1.7-.85-.38,0-.78-.04-1.14.1M131.9,3.38c-.56.21-.91.71-1.26,1.16.14.12.3-.02.45-.06.63-.23,1.28-.48,1.96-.48.68,0,1.38.64,1.23,1.35-.25.72-.93,1.14-1.41,1.69.12.04.26.15.38.03.5-.35,1.03-.67,1.43-1.14.37-.53.57-1.26.29-1.88-.23-.47-.67-.87-1.19-.96-.64-.14-1.29.05-1.89.29M134.94,3.11c-.04.19.01.48.25.48.18.03.31-.19.2-.33-.07-.18-.3-.14-.45-.15M120.11,3.35c-.17.04-.23.29-.1.41.12.19.37.15.55.12.04-.15.07-.34-.05-.46-.09-.13-.26-.09-.39-.07M104.49,3.74c-.26.33-.53.68-.55,1.12.16-.14.32-.29.53-.36.07.11.13.23.19.34.47-.29.7-.95.42-1.45-.25-.01-.45.16-.6.34M149.35,3.63c-.05.35-.26.64-.38.97.1.2.22.41.37.57.15.07.31.09.47.11.09-.54.03-1.11-.2-1.6-.08-.05-.18-.03-.26-.05M101.28,3.72c-.35.23-.48.78-.19,1.11.28.37.92.2,1.09-.19.08-.33-.08-.72-.4-.87-.15-.07-.36-.17-.51-.05M126.97,3.89c.04.29.14.56.23.83.16,0,.32-.02.48-.02.02-.16.05-.32.11-.47.1.03.2.07.3.1.02.13.05.25.07.38.14,0,.28,0,.42-.02.11-.24.29-.55.1-.8-.57-.07-1.14,0-1.71,0M105.83,4.63c-.19.21-.46.3-.68.46-.09.28,0,.57.05.85.3-.12.63-.24.83-.52.19-.24.26-.63.64-.62,0,.25-.02.51,0,.76.17,0,.35-.03.49-.13.11-.08.28-.21.16-.36-.2-.32-.47-.63-.81-.8-.3-.11-.5.18-.68.36M135.5,4.24c0,.11,0,.22.01.32.13.14.32.07.48.04,0-.14,0-.28,0-.41-.17,0-.33,0-.49.05M151.45,4.84c-.1.19-.23.37-.25.59-.04.44-.07.88-.22,1.3-.11.26-.28.48-.42.71-.07.12-.18.25-.12.4.18.28.49.42.79.53.2.09.43.02.58-.13.35-.36.61-.86.52-1.37-.12-.65-.4-1.26-.56-1.9.07-.24.16-.48.09-.73-.19.16-.28.39-.4.59M119.72,4.38c-.08.13-.1.27-.09.42.14,0,.29,0,.43,0-.01-.1-.02-.2-.04-.3-.09-.06-.2-.09-.31-.12M122.47,5.82c.1.68.88,1.1,1.52.93.5-.15.99-.33,1.46-.54-.28-.55-.63-1.1-1.17-1.43-.72-.46-1.91.13-1.81,1.03M131.79,4.62c-.18,0-.36.07-.47.22-.32.39-.61.81-.9,1.22.01.02.04.06.05.08.34.17.7.27,1.05.4.29.1.61.21.91.11.31-.09.53-.38.6-.69.07-.32.1-.69-.13-.96-.27-.31-.71-.41-1.11-.37M102.76,4.75c.08.33.32.63.25.98-.08.44-.27.86-.28,1.31-.11,0-.21.01-.32.02.07-.34.23-.7.08-1.04-.14-.48-.66-.79-1.15-.72.1.42.5.73.48,1.19,0,.28.06.66-.22.84-.1-.2-.14-.44-.3-.6-.2-.2-.48-.26-.74-.33.11.33.29.65.25,1.01-.05.4-.53.61-.47,1.04-.3.25-.6.52-.79.87-.23.44-.49.87-.69,1.34.42-.14.82-.34,1.24-.48-.08.3-.3.53-.4.83-.12.34-.16.71-.21,1.06.3-.28.58-.63.99-.73.48-.12.96-.17,1.45-.26-.35-.26-.8-.2-1.21-.22,0-.05,0-.16,0-.21.56-.16,1.16-.05,1.69.16,0,.16,0,.34-.08.48-.17.34-.65.26-.87.56-.19.26-.33.57-.36.89-.04.39.38.63.72.65.32.05.56-.21.81-.38.36-.29.73-.58,1.03-.94.28-.41.15-.93.05-1.38.18-.17.52-.19.62.07.23.45.54.91.53,1.43-.08.66-.6,1.18-1.16,1.5-.45.23-.85.57-1.37.61-.01.15-.03.3,0,.44.05.18.25.25.42.24.66.01,1.36-.24,1.79-.76.48-.56.91-1.17,1.17-1.87.13-.31.05-.64-.07-.93-.31-.73-.74-1.39-1.27-1.98.29-.03.58.06.77.29.51.54,1,1.15,1.17,1.89.41-.13.86-.35,1.29-.18.57.29,1.01.77,1.54,1.12.27.18.61.25.93.2-.19-.19-.43-.31-.62-.5-.33-.33-.64-.68-.92-1.05-.27-.34-.58-.7-1-.85-.27-.04-.54,0-.8,0-.04-.11-.08-.22-.12-.32.45.02.92-.06,1.35.09.68.35,1.23.9,1.9,1.27.19.13.43.09.65.08-.03-.08,0-.19-.09-.24-.31-.22-.62-.44-.87-.74-.41-.44-.6-1.05-1.02-1.48-.24-.26-.54-.52-.92-.5-.61,0-1.15.34-1.64.66-.06-.13-.12-.26-.18-.39.59-.33,1.24-.58,1.75-1.03.27-.25.58-.53.61-.92.06-.34-.06-.73-.38-.91-.15.28-.24.61-.45.85-.26.19-.6.21-.88.35-.51.23-.87.67-1.33.97-.12-.09-.22-.19-.33-.29.34-.24.69-.47,1.03-.71.2-.15.47-.22.64-.41.11-.19.17-.41.19-.62,0-.12.04-.29-.11-.34-.15.14-.24.36-.43.45-.35.11-.73.13-1.05.31-.25.14-.49.32-.65.57-.12.16-.2.42-.45.35.2-.34.5-.61.65-.98.03-.51.05-1.05-.15-1.54-.09,0-.19,0-.28,0-.13.37.05.77-.06,1.14-.24.39-.52.75-.76,1.14-.05,0-.14-.01-.18-.01.15-.28.35-.55.35-.87,0-.33.04-.67-.03-1-.15-.29-.48-.41-.77-.51M127.2,5.28c-.17.21-.1.49-.09.73.52,0,1.05,0,1.57-.01,0-.2.05-.4,0-.59-.13-.26-.44-.33-.71-.36-.27-.02-.59,0-.77.23M99.06,5.23c-.33.21-.55.55-.7.9-.12.29.04.61.28.78.39.26.83.45,1.29.54-.27-.23-.59-.37-.85-.61-.45-.32-.15-1.09.34-1.2.48-.09.97.03,1.45.1,0-.13,0-.27-.01-.4-.57-.22-1.22-.38-1.8-.13M99.32,5.95c-.17.38-.07.9.35,1.06.26.13.51-.09.69-.26,0-.15-.03-.3,0-.44.04-.08.3-.2.1-.24-.36-.14-.76-.28-1.14-.12M108.64,6.42c.01.33-.09.64-.2.95.55.06,1.02-.3,1.57-.33.37-.08.84.01,1.1-.32-.14-.21-.39-.32-.59-.46-.44-.26-.97-.12-1.45-.12-.18,0-.45.04-.42.28M147.59,6.48c-.36.17-.66.44-1,.64-.34.22-.73,0-1.08-.06.16.17.29.4.53.46.32.03.64.03.95-.05.53-.11,1.08-.14,1.62-.21.46-.07.93,0,1.4-.05-.59-.65-1.55-1.04-2.42-.74M122.16,7.9c-.26.12-.13.42-.02.61.22.01.45.05.66-.06.41-.21.81-.44,1.23-.63,1.37-.63,2.9-.85,4.39-.79,1.57.07,3.17.4,4.5,1.27.11.09.29.11.38-.02.13-.11.09-.3.1-.45-.26-.19-.53-.36-.82-.49-1.46-.69-3.09-.91-4.69-.95-2-.03-4.01.49-5.73,1.52M108.21,8.03c.31.17.68.09,1.01.14.57.07,1.09.34,1.66.42.63.12,1.32.06,1.86-.3.11-.07.24-.13.29-.26-.42-.07-.87-.1-1.26-.28-.47-.19-.96-.48-1.49-.33-.7.18-1.47.16-2.07.61M136.48,8.02c.07,1.04.13,2.09.24,3.12.12-.19.32-.37.27-.62-.08-1.04-.14-2.09-.23-3.13-.14.18-.31.37-.27.62M125.43,7.89c-.81.21-1.61.5-2.34.93-.21.12-.38.3-.6.41-.21.12-.48-.21-.63.03-1.03,1.08-2.04,2.23-2.61,3.63-.61,1.4-1.08,2.86-1.34,4.36-.15.97-.06,1.96,0,2.93.3.03.61,0,.89-.13.03-.1.06-.19.1-.29.24-.04.48-.09.72-.12.09.09.19.22.34.15.42-.12.87-.19,1.26-.4.04-.38-.07-.76-.07-1.14-.01-.67.11-1.33.24-1.98.34-1.45,1.04-2.86,2.21-3.82.74-.61,1.64-.98,2.55-1.23,1.49-.42,3.14-.48,4.58.16.63.26,1.12.74,1.62,1.19.57.55,1.1,1.16,1.5,1.84.76,1.21,1.09,2.66,1.01,4.07-.07,1.67-.24,3.42-1.14,4.87-.26.41-.56.8-.91,1.13-.61.61-1.25,1.17-1.9,1.74.61.78,1.21,1.58,1.83,2.35.12,0,.24-.02.36-.04-.39-.61-.86-1.17-1.29-1.76-.12-.17-.28-.32-.35-.52.07-.07.15-.13.23-.19.59.78,1.16,1.56,1.76,2.33.06.12.2.07.31.08.02-.23-.15-.4-.28-.57-.39-.47-.75-.97-1.13-1.45-.14-.19-.35-.36-.29-.62.35.25.59.62.89.93.41.44.78.93,1.21,1.36.96-.76,1.81-1.68,2.41-2.74.29-.59.54-1.2.78-1.8.61-1.51.92-3.15.87-4.78-.06-1.63-.39-3.25-.91-4.8-.26-.75-.51-1.51-.93-2.19-.71-1.18-1.72-2.16-2.87-2.9-.19-.15-.41.15-.59,0-.83-.48-1.7-.87-2.63-1.11-1.6-.44-3.29-.33-4.88.09M147.17,7.86c-.1-.02-.21-.04-.31-.05-.04.08-.08.16-.12.23-.1.03-.2.07-.31.1-.02-.15-.04-.31-.06-.46-.3.07-.35.46-.62.57-.82.19-1.64-.27-2.46-.1-.15.21-.23.47-.41.65-.44.26-.99.04-1.44.28-.12.46.15,1.03.65,1.11.43.04.85-.06,1.28,0,.3.04.46-.34.74-.33.27.19.13.54.15.81-.02.13.13.23.25.16.18-.15.3-.37.44-.55,0,.21.02.43-.03.64-.12.18-.3.31-.36.53.23.02.53-.01.63-.27.25-.63.06-1.31.04-1.97.13-.02.26-.04.4-.04.29.35.2.84.24,1.26.31-.29.49-.69.55-1.1.09.03.19.06.28.09,0,.44-.11.88-.06,1.32.14.32.46.53.76.7.66.37,1.45.26,2.15.08.61-.18.89-.8,1.16-1.32.13.07.41.08.31.29-.23.45-.49.91-.92,1.19-.65.32-1.39.41-2.1.55.04.11.03.31.19.3.63.03,1.35.08,1.88-.34.51-.41.95-.9,1.41-1.36-.14.39-.24.79-.4,1.16-.2.23-.47.39-.72.57-.62.44-1.41.41-2.13.52,0,.14,0,.28.02.42.43,0,.86.09,1.29.05.66-.05,1.16-.53,1.73-.83-.03.17.11.45-.1.54-.35.21-.71.41-1.07.6-.43.17-.9.22-1.35.26,0,.12.02.23.03.35.7.07,1.4.12,2.1.16,0,.15,0,.29.01.44-.14.01-.27.03-.4.04,0,.35,0,.69.01,1.04.4-.15.78-.36,1.18-.51.29.06.57.19.86.25.09.36.1.74.18,1.11.12,0,.3.09.35-.07.39-.74.74-1.49,1.11-2.24.14-.3.34-.61.27-.96-.12,0-.29-.12-.36.04-.29.58-.55,1.18-.84,1.76-.04-.25-.15-.49-.12-.75.25-.7.58-1.37.81-2.08.1-.23-.15-.39-.3-.51-.29.44-.51.91-.77,1.37-.08-.2-.13-.4-.16-.61.18-.47.45-.9.64-1.36.11-.28,0-.63-.27-.78-.29.31-.46.7-.68,1.07-.17-.11-.22-.34-.27-.53.22-.55.64-1.06.61-1.67-.06-.34-.16-.71-.44-.93-.51-.12-1.06.06-1.55-.14-.33-.12-.52-.44-.72-.71-.09-.1-.19-.25-.34-.24-.51-.03-1.01,0-1.52,0-.34.02-.72-.05-.99.2M119.11,7.73c-.03.96-.09,1.93-.07,2.89.12.01.25.03.37.04.04-.73.17-1.45.2-2.18-.1-.28-.33-.51-.5-.75M135.84,8.61c0,.3,0,.6.02.91.01.15.17.21.27.3.02-.49.04-.97.07-1.46-.12.08-.24.17-.36.25M119.97,8.73c-.09.52-.12,1.06-.16,1.59.12-.14.3-.25.31-.45.03-.25.08-.51.08-.76-.04-.14-.14-.26-.23-.38M109.06,8.96c.24.3.55.55.78.85.24.31.55.57.86.81.55.42,1.23.64,1.92.69.32,0,.72-.04.89-.35-.29-.07-.59-.09-.84-.25-.37-.23-.54-.68-.9-.93-.44-.22-.92-.32-1.38-.51-.44-.14-.87-.36-1.34-.31M137.56,10.32c0,.06,0,.17,0,.22.51-.23,1.03-.43,1.53-.68.15-.18.24-.4.34-.6-.62.36-1.24.72-1.87,1.06M116.63,10.34c.1.19.21.4.44.45.66.21,1.32.45,1.98.64.05-.09.11-.19.15-.29-.86-.26-1.72-.53-2.58-.8M137.7,10.78c-.13.03-.16.17-.22.27.33-.03.66-.09.97-.21.13-.14.24-.31.34-.47-.38.1-.73.27-1.1.41M141.45,10.43c-.11.49.34.83.55,1.22.32.01.48-.34.78-.39.39-.05.79.02,1.18-.03-.03-.33-.39-.44-.65-.56-.45-.18-.86.22-1.29.28-.23-.13-.29-.46-.57-.52M117.16,11.16c.08.12.13.28.28.33.34.14.69.28,1.05.38.16.06.21-.14.3-.23-.54-.16-1.08-.32-1.62-.48M136.99,11.55c.11.11.21.26.39.26.51.06,1.02.1,1.52.17.22.04.32-.22.46-.34-.79-.02-1.58-.14-2.38-.09M110.85,11.53c-.04.46-.05,1.02.33,1.35.31.22.69.32,1.02.5.41.2.65.59.92.93.12-.4.02-.84-.22-1.18-.25-.35-.43-.81-.87-.95-.43-.15-.71-.57-1.18-.66M106.38,12.05c-.02.13-.02.26-.02.39.39.21.87.25,1.19.57.29.3.58.6.78.97.15.28.17.65.45.85.33.21.71.37,1.11.38-.09-.3-.26-.57-.48-.78-.21-.21-.5-.39-.58-.69-.13-.45-.3-.89-.56-1.29-.19-.32-.54-.5-.86-.64-.36-.14-.73.05-1.03.24M129.75,11.84c-.26.24-.5.53-.59.88-.05.74.45,1.36.53,2.07.1,0,.2,0,.3,0,.01-.65.38-1.22.49-1.85.08-.41-.13-.82-.4-1.12-.08-.13-.25-.08-.33.01M142.39,12.02c-.09.21-.15.45-.31.62-.37.3-.89.34-1.27.63-.18.17-.34.41-.32.67.28-.07.54-.21.83-.24.49-.08,1.06.06,1.46-.28.34-.43.36-1,.59-1.48-.33.04-.66.07-.99.09M125.23,12.78c-.63.37-1.15.88-1.66,1.38-.42.41-.68.95-.86,1.51-.32.94-.43,1.93-.48,2.91,1.78,0,3.56,0,5.34,0,0-2.15,0-4.31,0-6.46-.82.03-1.64.24-2.35.66M137.53,12.22c.05.11.1.21.15.32.27-.01.55,0,.82-.08.12-.07.23-.16.35-.24-.44,0-.88,0-1.32,0M117.14,12.49c.1.11.18.31.36.29.28-.03.55-.14.83-.19.06-.12.11-.23.17-.35-.45.08-.9.17-1.35.25M103.24,12.95c.13.2.27.39.42.58,0-.33,0-.66,0-.99-.14.14-.3.26-.41.42M99.49,12.83c-.09.25-.16.55.05.77.33.35.81.65,1.31.54.15-.32.17-.79-.18-.98-.36-.19-.77-.35-1.18-.32M87.46,13.45c.56.05,1.19-.05,1.67.3.39.42.35,1.04.29,1.57-.08.52.12,1.07.5,1.43.26.25.67.26.99.12.51-.2.93-.57,1.35-.91.22-.2.52-.25.81-.31.94-.15,1.9-.29,2.85-.24.77.05,1.53.56,1.76,1.32.21.64.34,1.31.2,1.98.29-.2.6-.51.53-.9-.06-.7-.26-1.41-.62-2.02-.35-.62-1.1-.82-1.76-.96-.73-.09-1.48-.03-2.21.07-.47.07-.97.08-1.4.3-.21.12-.41.27-.65.34-.11-.45-.14-.92-.28-1.36-.11-.32-.39-.53-.71-.63.11.22.26.43.3.68.09.5.22.99.34,1.48-.13,0-.25.02-.38.03-.09-.38-.21-.75-.29-1.12-.08-.39-.24-.78-.56-1.03-.41-.33-.95-.6-1.49-.48-.43.07-.85.17-1.25.34M106.46,13.12c-.07.19-.16.38-.2.58.14.29.45.54.42.89-.2.45-.55.87-.55,1.39-.05.44.34.77.68.96.6.28,1.3.32,1.95.18-.17-.21-.44-.32-.59-.55-.21-.32-.42-.66-.49-1.04.06-.52.3-1.1,0-1.59-.23-.47-.71-.76-1.22-.83M109.27,13.27c.17.33.4.62.59.93.17.29.44.52.53.86.21.69.59,1.32,1.14,1.79.04-.52.12-1.03.08-1.55-.06-.28-.37-.35-.55-.53-.1-.2-.1-.46-.3-.61-.44-.37-.94-.67-1.47-.89M128.06,13.58c-.34.46-.22,1.09-.04,1.59.05.16.19.27.36.31.03-.26,0-.54.1-.78.11-.12.27-.13.43-.15.12.2.29.31.53.26-.05-.46-.12-.95-.43-1.31-.25-.28-.75-.25-.94.07M130.93,13.41c-.45.33-.64.89-.74,1.42.29.04.53-.18.81-.16.23.12.2.44.29.65.36-.51.67-1.17.43-1.79-.14-.31-.56-.29-.8-.12M85.99,13.41c.02.16.07.31.22.38.59.29,1.26.34,1.91.32.32-.05.63.26.58.58-.08.47-.23.94-.16,1.41.11.26.26.5.4.74.08-.04.16-.09.24-.13-.17-.41-.44-.85-.33-1.31.08-.35.09-.71.06-1.07-.04-.37-.42-.68-.8-.6-.73.09-1.43-.14-2.13-.32M144.88,13.78c-.02.77,0,1.53,0,2.3.11-.25.18-.51.28-.77.4.2.18.71.22,1.06.06-.21.11-.42.18-.62.11.06.22.1.31.18,0,.14-.03.28-.05.42.04-.01.12-.04.16-.05.04-.14.08-.29.12-.43.1-.03.19-.07.29-.1.01.1.03.21.05.31.2-.1.41-.19.63-.25.03.11.07.22.1.33-.33.13-.7.28-.88.61-.11.16-.07.37-.07.55.09.06.18.11.27.17.02-.18.03-.37.14-.52.23-.38.81-.4,1.13-.14.2.33-.04.7-.14,1.03.25-.02.49-.14.62-.36.04-.24.01-.48.03-.72.19.06.52.03.55.28.05.26.1.57.37.69.46.22.92.42,1.35.69.53.35,1.02.76,1.57,1.09.28-.09.48-.37.74-.51.03.06.1.18.13.24-.19.14-.39.29-.55.46.02.03.05.08.07.11.3-.08.5-.38.83-.42-.1.21-.23.41-.35.6.07.03.21.09.27.12.17-.15.33-.47.58-.27-.1.22-.26.4-.38.61.13.08.27.16.4.25.16-.32.5-.47.71-.75.29-.34.66-.59.98-.89-.11-.07-.22-.15-.34-.19-.49.06-.94.3-1.43.35-.14-.1-.36-.23-.28-.43.1-.36.25-.7.34-1.07-.19-.07-.38-.24-.58-.16-.36.08-.72.2-1.08.27-.16.05-.27-.1-.35-.21.04-.42.28-.82.26-1.25-.13-.13-.28-.23-.44-.32-.47.16-.84.52-1.3.72-.13,0-.26-.03-.39-.06-.06-.5-.13-1.01-.19-1.51,0-.26-.32-.25-.49-.19-.39.27-.78.54-1.2.76-.09-.07-.17-.13-.25-.2-.02-.41.12-.81.08-1.23-.14-.11-.28-.26-.47-.26-.34.24-.57.6-.86.89-.18.14-.42.25-.65.2-.36-.46-.68-.95-1.04-1.42M131.89,14.75c-.1.27-.03.56.09.8.21.42.3.87.43,1.32.04,0,.11,0,.15,0,.02-.12.03-.23.05-.35,0-.61.51-1.06.54-1.67.09-.5-.45-.76-.74-1.06-.21.29-.39.62-.52.96M111.15,14.04c.12.21.29.38.46.55.41.39.63.93.99,1.37.21.25.41.6.77.64.01-.63-.31-1.2-.58-1.74-.31-.6-1.03-.71-1.63-.82M104.52,15.78c-.34.52-.13,1.16.02,1.71.11.37.09.75.05,1.12.29-.19.61-.37.79-.68.07-.25-.06-.48-.08-.73-.1-.9.46-1.68.69-2.52-.57.23-1.09.61-1.47,1.1M129.29,14.97s0,.12,0,.15c.41,0,.82,0,1.23,0,0-.04.02-.11.02-.15-.42,0-.83,0-1.25,0M113.81,15.02c-.09.87.28,1.72.92,2.3.31.35.8.43,1.25.44-.1-.37-.42-.61-.61-.93-.28-.45-.55-.92-.84-1.36-.15-.26-.4-.48-.72-.45M108.43,15.07c-.16.71.24,1.4.74,1.88.46.45.87.96,1.15,1.54.04-.28.15-.6,0-.87-.16-.36-.34-.72-.42-1.1-.05-.23,0-.47-.07-.69-.47-.26-.98-.43-1.4-.75M129.29,15.33c.03.17-.05.39.12.5.07-.12.13-.26.23-.37.06.18.12.35.34.36,0-.11.02-.23.03-.34.07,0,.13,0,.2,0,0,.1.02.2.04.29.05.01.16.03.21.04,0-.16,0-.32,0-.48-.39,0-.78-.01-1.16,0M130.72,16.35c.08.26.31.43.54.54.07-.2.02-.5.28-.56.3,0,.32.34.43.55.04-.02.11-.05.15-.07,0-.43-.13-.89-.43-1.21-.44-.32-1.14.23-.97.74M133.04,15.75c-.31.26-.26.69-.24,1.05.04,0,.14,0,.18-.01.02-.1.05-.21.08-.31.19-.06.47-.17.61.03.1.2.03.42.02.62.17-.28.39-.57.4-.92.07-.54-.69-.69-1.06-.46M103.36,15.79c-.06.17-.04.41-.23.5-.29.16-.61.25-.9.4.49.35,1.16.27,1.64-.05.24-.17.25-.49.32-.75-.27-.06-.55-.1-.83-.09M85.07,17.81c.09.35.29.87.74.82.12-.31.1-.65.03-.97-.13-.56-.3-1.11-.38-1.67-.21.58-.47,1.19-.39,1.82M129.75,16.03c-.27.37-.42.87-.24,1.31.06.2.22.47.47.36.25-.18.32-.51.31-.8,0-.33-.17-.63-.33-.9-.07,0-.14.02-.21.03M139.18,15.98c.04.91.12,1.82.15,2.73.15-.03.3-.07.46-.11-.01-.77,0-1.54-.04-2.3-.17-.13-.37-.23-.57-.33M92.64,16.58c-.28.42-.44.94-.84,1.28-.23.2-.56.16-.84.16.13.21.28.41.39.64-.02.1-.07.2-.1.3.2.07.44.22.64.06.45-.32,1.01-.39,1.54-.47.61-.08,1.18.21,1.76.34.45.11.9.26,1.36.26.43,0,.76-.38.85-.78.34-1.11-.61-2.39-1.77-2.37-1.02-.02-2.02.29-2.99.58M116.27,17.32c.09,0,.19.01.28.02.07-.26.21-.51.22-.78-.13-.11-.29-.17-.44-.25-.09.33-.15.68-.06,1.02M140.51,16.55c-.02.66,0,1.32-.07,1.98.2-.02.41-.02.61-.09.17-.5.35-1.01.47-1.53-.24-.31-.65-.34-1-.36M169.6,17.52c-.26.47-.56.9-.85,1.35-.51-.27-.99-.58-1.5-.85-.03.65.38,1.18.74,1.68.21.25.46.56.83.56.45-.16.82-.45,1.21-.71.35-.26.77-.39,1.16-.59-.53,0-1.06.03-1.59.05.42-.74.49-1.61.67-2.43-.27.27-.5.59-.67.93M128,17.35c.01.45.09,1.05.56,1.26-.13-.36-.14-.87.25-1.07.19.06.37.16.57.21-.02-.31-.17-.6-.34-.86-.15-.25-.49-.29-.75-.2-.3.04-.28.43-.29.66M141.99,16.94c-.11.47-.27.94-.35,1.42.28-.13.57-.23.83-.41.13-.21.22-.44.32-.66.04-.11.13-.24.01-.34-.27-.04-.55-.01-.82,0M110.56,16.98c.04.18.11.34.19.51.33.76.42,1.6.46,2.42.11,0,.21,0,.32.01.21-.64.43-1.29.59-1.95-.14-.22-.39-.3-.61-.39-.35-.13-.63-.39-.95-.59M132.04,17.1c0,.08,0,.15,0,.23.41,0,.82,0,1.23,0,0-.08,0-.17,0-.25-.41,0-.82,0-1.23.02M143.44,17.12c-.12.18-.21.38-.3.57.17,0,.35,0,.52,0,.1-.21.19-.41.27-.62-.17.01-.33,0-.49.05M144.08,17.76c-.17.39.06.8.18,1.17.08,0,.16,0,.24.01-.02-.25-.11-.52-.02-.77.19-.22.43-.38.68-.53.26-.12.51.05.75.14,0-.4-.38-.77-.79-.69-.42.06-.85.29-1.05.67M130.75,17.16c-.26.07-.38.36-.39.61.25-.06.5-.1.75-.01.02.26,0,.53-.01.79.22-.07.5-.09.62-.33.08-.28.1-.59-.03-.86-.19-.31-.62-.33-.93-.21M112.45,17.16c.17.91.49,1.78.6,2.7.08,0,.16,0,.24-.01.14-.69.37-1.37.38-2.07-.37-.26-.75-.58-1.22-.61M147.02,17.28c-.29.36-.57.71-.89,1.04-.18-.11-.37-.2-.58-.19,0,.05-.01.14-.02.19.33.27.69.63,1.16.51.45-.05.55-.55.68-.9.06-.24.15-.57-.07-.75-.11-.03-.24-.01-.29.09M105.8,17.97c-.13.33-.44.52-.64.8-.3.39-.46.86-.69,1.29-.25.46-.49.92-.74,1.38-.15.26-.09.57-.09.86,0,.16.13.27.28.29.23-.3.38-.65.62-.95.43-.4.97-.64,1.41-1.02.41-.45.38-1.11.32-1.67-.07-.54.36-1.08.09-1.6-.29.09-.44.36-.55.62M107.22,17.49c-.08.29-.11.6-.26.86-.15.31-.4.61-.37.97-.03.42.19.78.3,1.17.06.46,0,.93.05,1.39.37-.56.63-1.19.91-1.8.25-.45.07-.98-.07-1.44-.14-.38-.19-.78-.27-1.18-.1,0-.2.01-.3.02M102.79,17.52c-.25.1-.48.23-.72.35-.24.13-.45.32-.71.41-.34.05-.69.1-1.01.26.03.12.18.14.28.19.36.15.77.13,1.15.09.36-.08.77-.14,1.03-.43.23-.24.49-.47.63-.79-.2-.08-.44-.18-.65-.08M88.26,17.98c-.31.48-.18,1.1-.12,1.64.08,0,.15-.01.23-.02.06-.33.02-.72.32-.95,0,.28-.03.55-.05.82.04,0,.12,0,.16,0,.07-.3.14-.61.18-.92.13,0,.27-.01.41-.02-.14.37-.33.72-.44,1.1.08-.04.19-.03.24-.12.15-.27.29-.56.42-.84.12.05.23.1.35.14-.12.39-.44.65-.66.98.29.02.49-.22.72-.37.27-.21.6-.36.84-.61.11-.17.02-.39-.12-.52-.39-.4-.9-.78-1.49-.75-.37-.02-.78.1-.99.43M108.52,17.55c.29.8.79,1.49,1.26,2.2.15.25.35.5.66.54.07-.52.04-1.09-.27-1.54-.36-.61-1.06-.88-1.65-1.21M132.08,17.68c0,.14,0,.27,0,.41.04,0,.13,0,.18,0,.04-.13.04-.3.2-.35.04.12.06.24.09.36.1,0,.2,0,.3-.01.02-.13.07-.24.15-.34.04.14.08.28.12.42.23-.09.13-.35.14-.54-.39,0-.79-.01-1.17.04M81.08,17.7c.07.4.32.74.64.97.01.09.03.18.04.27.09.03.17.06.26.09-.02.08-.04.16-.06.25.19.04.39.09.59.11,0,.02-.02.07-.03.1-.1.08-.2.16-.3.24.3.14.64.09.96.11-.07.11-.15.22-.21.34.5,0,.98-.14,1.42-.38-.14-.15-.28-.3-.44-.41-.27-.2-.62-.26-.87-.49-.25-.23-.63-.06-.89-.25-.4-.27-.65-.73-1.1-.94M161.42,17.68c-.02.21-.06.43-.02.64.17.77.34,1.55.25,2.34.37.04.74-.05,1.05-.26.03-.56-.21-1.09-.4-1.61-.1-.24-.18-.51-.38-.69-.16-.15-.32-.3-.5-.42M129.28,17.98s.11.11.15.14c.27.02.54.01.82,0,.11.01.19-.07.27-.13-.41-.04-.83.01-1.24-.02M86.51,18.71c-.3.19-.65.3-.91.54-.21.23-.25.59-.1.86.15.34.68.19.83-.09-.07-.09-.14-.17-.22-.25.11-.03.21-.06.32-.07.24.1.36.37.62.44.11-.06.2-.17.26-.28-.16-.18-.46-.27-.43-.56.25.07.46.21.7.31.15-.31.22-.67.19-1.02-.06-.28-.37-.47-.65-.45-.34,0-.39.41-.62.58M116.32,18.16c-.2.29-.31.64-.32,1-.02.18.18.13.3.16.07-.39.18-.77.19-1.17-.04,0-.12,0-.16,0M114.13,18.22c-.25.57,0,1.18.26,1.69.06,0,.19,0,.25,0,0-.14.02-.29-.01-.43-.08-.37-.09-.76-.3-1.08-.05-.07-.08-.19-.19-.18M163.94,18.54c-.11.39-.06.81-.12,1.21-.11.37-.3.7-.45,1.05.2.04.39.09.6.1.27-.46.57-.91.74-1.42.05.03.16.1.21.13-.16.46-.45.86-.63,1.31.08.03.16.05.25.05.37-.35.61-.81.86-1.24.07.01.22.04.29.05-.2.44-.49.81-.68,1.25-.05.1-.03.22-.03.33.26-.04.41-.28.59-.44.26-.25.44-.57.58-.89.08,0,.16.01.25.02,0,.6-.54,1.01-.61,1.59.1-.03.23-.04.31-.12.32-.28.61-.59.79-.97.12.06.24.12.36.19-.28.46-.71.81-1.08,1.2.09.04.18.1.29.11.45-.24.84-.57,1.17-.95.07.15.13.31.2.46-.32.21-.66.42-.87.76.07.13.25.13.37.19.21-.21.4-.45.66-.59.16-.1.36-.16.45-.33.11-.15-.08-.28-.14-.41.06-.14.14-.28.12-.44-.13-.21-.38-.23-.6-.24,0-.2,0-.39,0-.59-.27-.1-.56-.1-.84-.08-.03-.17.02-.37-.1-.52-.22-.15-.51-.07-.75-.06-.06-.2-.09-.42-.26-.55-.26,0-.5.11-.75.17-.14-.26-.32-.56-.63-.63-.23-.05-.46.1-.53.32M142.43,18.46c-.22.12-.48.25-.59.5-.05.34.13.67.34.94.09-.02.18-.05.27-.08-.09-.18-.2-.44.02-.58.31-.2.66-.32,1.01-.44.09.13.16.27.28.36.12-.03.24-.07.36-.1-.21-.25-.36-.57-.64-.74-.35-.19-.73-.02-1.04.14M147.92,18.25c0,.24-.02.48-.03.72-.3,0-.54.18-.8.32-.37.02-.72-.08-1.09-.09-.03.25.04.52-.04.76-.47.32-.96.62-1.46.89-.23.15-.48-.02-.71-.06-.13.27-.26.57-.54.72-.66.37-1.43.52-2.05.97.2.03.43.14.63.03.59-.25,1.18-.49,1.76-.75.15-.08.31,0,.43.09-.48.23-.96.47-1.46.67,0,.04,0,.11,0,.15.55,0,1.01-.34,1.52-.49.11-.05.42-.13.32.09-.32.19-.66.32-.97.5.18.04.38.18.55.07.26-.14.51-.3.78-.42.02.05.07.14.09.19-.18.14-.39.24-.57.38.09.07.18.14.29.17.21-.07.4-.22.64-.24.03.19-.15.29-.23.44.33.14.67.22,1.01.33,1.69.51,3.38,1.04,5.09,1.52.53.14,1.06-.07,1.57-.2.3-.09.6.09.8.29.01.33-.42.33-.64.4,0,.04.01.12.02.16.29.18.61.31.95.37.34.04.6-.22.88-.37.19-.14.47-.24.52-.5-.05-.38-.25-.72-.44-1.05-.21-.35-.54-.68-.96-.73-.51.04-.95.47-1.48.34-.8-.04-1.53-.39-2.28-.64-.42-.13-.83-.3-1.13-.62-.34-.36-.82-.65-1.33-.62-.51.02-.93.34-1.37.55-.24-.09-.44-.26-.54-.49.28-.13.6-.27.74-.56.12-.22.06-.46.04-.69.11-.06.22-.12.33-.17-.01.34,0,.67,0,1.01.09,0,.17,0,.26,0,.11-.38.13-.77.1-1.16.12-.08.25-.15.37-.22.21.38.32.81.27,1.25.05,0,.15-.02.2-.02.21-.48.01-.97-.1-1.44.12-.05.22-.18.36-.16.13.06.26.17.27.32.05.38,0,.76-.01,1.15.1,0,.21,0,.32,0,.04-.33.08-.66.15-.98.18.12.36.24.54.38-.08.28-.18.55-.31.82.05.04.16.13.22.17.34-.55.61-1.13.93-1.69.06-.14.21-.29.12-.45-.27-.13-.37.25-.55.37.02-.26.13-.49.2-.74-.08-.06-.15-.12-.22-.18-.11.22-.22.44-.36.64-.03-.03-.08-.08-.11-.1-.07-.33.08-.67.1-1-.1-.03-.2-.07-.3-.1-.1.28-.19.57-.29.85-.04,0-.11,0-.15.01-.03-.36.1-.7.17-1.05-.1-.01-.2-.02-.3-.03-.1.3-.2.61-.39.87-.04-.31.03-.61.05-.92-.13,0-.26,0-.39,0M115.35,18.49c-.14.33-.28.67-.28,1.04.08,0,.16,0,.24.01.17-.38.31-.77.39-1.17-.12.03-.31-.04-.36.12M129.36,18.36c0,.13.02.26.04.38.06-.08.12-.17.19-.25.11-.15.17.11.2.19.06,0,.13,0,.2.02.02-.07.06-.2.08-.26.11.07.21.15.3.23.13-.04.06-.2.09-.3-.37-.02-.73-.01-1.1,0M145.08,18.48c.02.15.07.31.08.46-.18.32-.53.48-.84.65-.16.07-.31.17-.49.17-.18-.04-.34-.16-.5-.24.1.36.29.78.68.9.18,0,.34-.1.5-.19.3-.18.6-.36.88-.57.1-.1.24-.2.23-.35.02-.36-.24-.68-.55-.84M157.86,18.55c-.6.22-1.22.52-1.61,1.04-.12.14-.48.37-.19.52.36-.08.67-.29.99-.47.12.23.25.5.5.62.61.1,1.22-.07,1.83-.1,0,.09,0,.18,0,.27-.31.16-.64.3-.9.53-.15.14-.18.35-.18.54.4-.1.76-.29,1.14-.44,0,.08.02.24.03.32-.27.2-.55.39-.77.65-.02.09-.03.19-.03.29.33,0,.66-.04.99-.02.12.08.1.27.16.39-.22.14-.46.24-.64.42-.03.11-.02.24.1.31.24.03.48,0,.72,0,.03.19.07.38.1.58-.23.15-.64.23-.59.58.29.09.6.15.9.23.04.12.09.24.13.36-.13.17-.34.25-.49.4-.12.07-.03.24.09.24.24.04.51,0,.73.1.08.09.12.21.17.32-.2.04-.39.09-.59.13-.08.15-.18.38.01.49.48.2,1,.01,1.49-.08.03.06.08.17.11.23-.24.13-.49.24-.7.41-.1.08-.09.21-.06.32.14.37.47.61.75.88.42.34.87.76,1.45.7-.26-.63-.59-1.22-.78-1.87.03-.03.08-.08.1-.11.5.49.76,1.24,1.42,1.56.02-.15.04-.31-.04-.44-.33-.67-.74-1.29-1.09-1.94-.13-.23-.16-.49-.26-.73-.27-.26-.63-.44-.81-.79-.25-.47-.45-.96-.68-1.43-.29-.66-.63-1.32-.75-2.04-.15-.72-.28-1.45-.53-2.15-.08-.31-.41-.42-.66-.55-.46-.24-1.01-.46-1.53-.26M102.88,19.08c-.74.41-1.66.36-2.35.89-.28.23-.69.06-.95.27.49.32,1.1.34,1.67.4.97.09,1.81-.6,2.28-1.38.14-.2.11-.44.13-.66-.26.17-.52.33-.79.48M92.87,18.98c-.46.06-.85.36-1.15.69-.08.32,0,.66.01.98.35-.53.78-1.08,1.42-1.26.71-.1,1.38.24,2.08.3-.2-.25-.45-.45-.73-.6-.49-.28-1.1-.22-1.63-.11M127.88,18.93c-.03,1.27,0,2.55,0,3.82,0,.18.03.35.07.52.52-.4,1.05-.78,1.58-1.17.04-.46.06-.92.06-1.38.23,0,.47,0,.71,0,0-.6,0-1.2,0-1.81-.8,0-1.61,0-2.41.02M130.66,18.91c0,.59-.03,1.18-.08,1.77.25.04.51.05.77.07.05.49,0,.98.04,1.46.24.37.6.69,1.01.86.38-.53.68-1.11.94-1.7.23-.71.32-1.45.43-2.19.06-.16-.12-.27-.26-.26-.95-.02-1.89-.01-2.84,0M125.85,19.2c-1.04,0-2.08-.01-3.12.02-.03.17-.09.35-.02.51.18.38.5.66.74,1,0,.57.28,1.06.48,1.57.24.57.47,1.14.75,1.7.06.13.24.1.35.05.34-.15.67-.33.99-.53.14-.08.17-.24.23-.37.29-.9.66-1.78.98-2.67.08-.26.25-.52.18-.8-.15-.01-.3,0-.44.02-.02-.22-.05-.43-.09-.65-.35-.05-.66.18-1.01.14M140.11,19.16c-.4.07-.75.39-.86.78-.02.38.21.71.32,1.06.09,0,.17-.01.26-.02-.05-.27-.24-.55-.11-.83.48-.28,1.03-.46,1.58-.49.11.18.2.37.3.55.08.1.15.08.2-.04-.12-.34-.28-.68-.53-.94-.34-.22-.78-.16-1.16-.08M104.02,19.23c-.4.31-.63.77-1,1.11-.54.43-.97.97-1.33,1.55.41-.03.82-.15,1.18-.34.35-.26.61-.61.87-.95.34-.43.6-.93.68-1.48-.14.02-.28,0-.39.1M90.29,19.84c-.3.22-.77.16-.96.52.41-.13.83-.25,1.26-.31-.03.12-.04.26-.1.37-.38.1-.78.14-1.17.24-.01.1-.02.19-.03.29.33.02.66.03.99.07-.05.1-.09.2-.14.3-.39.03-.78,0-1.17,0-.07.14-.14.27-.18.42.33.27.72.45,1.09.66.14.1.32.06.48.07.5-.53.69-1.25.99-1.89.2-.43.15-.98-.18-1.33-.34.12-.59.37-.87.58M108.72,19.41c-.15.26-.22.54-.29.83-.09.36-.41.59-.67.83-.26.34-.42.75-.62,1.13-.14.01-.27.01-.41.02-.06-.46-.07-.95-.32-1.37-.27.22-.46.51-.74.72-.42.32-.84.63-1.27.94-.2.14-.44.3-.4.58.27.17.61.43.94.25.45-.25.82-.6,1.26-.86.1-.07.22-.09.35-.06-.57.57-1.31.98-1.8,1.64-.07.09-.07.21-.09.31.25.03.51.06.76,0,.34-.13.62-.35.92-.55.62-.44,1.21-.91,1.81-1.37.13-.11.3-.19.47-.23-.2.31-.51.51-.78.76-.3.29-.67.51-.87.88,1.07-.12,1.79-1,2.72-1.45.41-.18.82-.48,1.29-.37,0,.02,0,.06,0,.08-.18.15-.38.26-.56.4-.2.14-.45.28-.46.56.54,0,1-.32,1.5-.5.33-.13.7-.07,1.04-.16,0,.01,0,.04,0,.06-.16.17-.31.36-.34.6.05.03.17.08.22.1.02.09.04.19.06.28.1.01.21.03.32.04.02.27-.04.52-.13.77.18-.12.35-.26.52-.39.12.29.04.6-.07.88.22-.14.39-.34.57-.53.05.37-.05.73-.13,1.09.1-.02.2-.05.29-.08.15-.27.21-.59.2-.89-.22-.55-.57-1.05-.81-1.59.21.03.4.12.6.2.28.12.58.18.85.32-.04.21-.13.41-.18.62.16-.11.29-.25.46-.33.08.28-.12.52-.18.78.14-.13.27-.28.4-.41-.05.27-.15.53-.2.79.04.01.13.04.17.05.21-.27.45-.61.31-.97-.13-.62-.57-1.1-1.06-1.47.11-.05.22-.16.34-.1.32.13.57.41.91.5-.01.14-.02.28-.02.42.14-.09.28-.19.42-.28-.02.3-.19.54-.3.81.13-.08.25-.19.39-.27.2.09.15.36.02.49-.14.15-.19.33-.14.53.23-.2.54-.43.5-.77-.06-.49-.31-.93-.52-1.37-.37-.44-.94-.64-1.46-.87-.74-.33-1.56-.4-2.35-.54-.78-.13-1.57-.26-2.34-.41-.18-.05-.43-.06-.49-.28-.15-.29-.2-.76-.61-.78M88.53,19.75c-.04.14-.1.31.03.43.11.22.49.07.44-.17,0-.25-.28-.29-.46-.26M96.31,19.93c-.5.44-.97.91-1.48,1.34-.6.58-1.22,1.22-2.05,1.45-.32.1-.73.1-.95-.2-.33-.44-.24-1.01-.26-1.53-.21.35-.43.73-.37,1.15.09.55.62.96,1.16,1.02.6.06,1.18-.19,1.69-.49.49-.3.98-.6,1.51-.84.34-.15.67-.34,1.04-.4,0,.09,0,.18-.01.27-.54.38-1.12.7-1.67,1.07-.51.4-.98.87-1.33,1.41.52-.16.97-.49,1.43-.77.71-.4,1.45-.73,2.19-1.08.14-.1.43.03.36.21-.85.51-1.72.99-2.52,1.58-.52.48-.89,1.12-1.18,1.76.74-.62,1.55-1.13,2.36-1.66.6-.36,1.25-.64,1.91-.86.06.09.16.19.13.31-.72.41-1.46.8-2.13,1.29-.49.41-.89.93-1.24,1.47.63-.42,1.3-.76,1.94-1.16.64-.3,1.32-.55,2.01-.73,0,.09,0,.19,0,.28-.56.41-1.13.82-1.69,1.24-.15.13-.36.26-.36.48.16,0,.34.01.5-.04.76-.25,1.44-.69,2.18-.99.02.06.06.19.08.25-.33.25-.61.57-.96.81.75-.08,1.5-.2,2.22-.43.68-.2,1.37-.38,2.05-.61-.6-.34-1.21-.65-1.82-.94-.75-.33-1.19-1.06-1.62-1.72-.47-.74-.85-1.54-1.14-2.37-.13-.39-.41-.75-.83-.85-.39-.06-.83,0-1.14.25M115.8,20.22c-.07.08-.13.23-.26.15-.14-.13-.19-.32-.29-.47-.04,0-.11,0-.14,0-.12.38-.1.78-.06,1.17.29.38.75.57,1.09.91.21.21.27.52.47.74.1.12.27.09.41.13-.05-.31-.14-.62-.15-.93.02-.34.16-.68.05-1.01-.1-.34-.08-.76-.38-1.01-.12-.09-.24-.26-.41-.2-.13.16-.21.36-.34.53M142.77,19.68c.09.25.37.58.12.82-.42.28-.96.36-1.47.31-.14-.22-.23-.47-.4-.68-.08.46,0,.97.26,1.36.44.04.88-.04,1.3-.16.21-.06.43-.15.59-.3.26-.29.3-.78.04-1.08-.11-.14-.29-.2-.45-.27M121.24,19.8c-.42.1-.85.19-1.25.36-.14.29.06.58.2.82.55,0,1.07-.27,1.62-.27.21-.02.26.22.28.38.03.47-.01.95.1,1.41-.07.05-.13.1-.19.15.01.08.03.16.05.24.15.06.32.06.48.13.33.43.58.93.61,1.47-.16.1-.34.14-.51.18-.64.14-1.24.42-1.86.64-.55.24-1.14.39-1.64.73-.22.12-.19.4-.04.57.24.36.71.31,1.08.24.59-.17,1.16-.39,1.73-.63.59-.26,1.21-.52,1.7-.96.38-.37.16-.94.1-1.39-.08-.54-.53-.9-.95-1.19,0-.8.16-1.66-.22-2.4-.3-.37-.81-.63-1.29-.49M92.47,20.5c-.16.28-.42.54-.4.88-.02.53.72.9,1.12.53.65-.54,1.31-1.07,1.97-1.59-.53-.13-1.05-.33-1.59-.42-.47-.09-.88.23-1.1.61M87.36,20.33c.18.04.39.05.49-.13.13-.09.03-.21-.04-.31-.26-.04-.46.19-.45.44M150.81,19.94c-.25.51-.47,1.04-.72,1.55-.07.15-.18.3-.16.48.09.07.2.13.31.18.39-.61.69-1.27.96-1.94-.13-.09-.25-.18-.38-.27M113.74,19.99c-.02.25-.03.51-.03.76.11.03.21.06.32.08.07-.17.16-.33.2-.51-.15-.13-.32-.24-.5-.34M88.05,20.41c-.06.21.17.35.36.31.14-.18.08-.38-.03-.55-.12.06-.32.07-.33.24M169.35,20.52c0,.24.02.49.12.71.25-.07.45-.23.66-.36.52-.36,1.16-.42,1.73-.66-.85-.03-1.7.1-2.52.31M86.4,20.64c.09,0,.18,0,.27.01.04-.13.12-.29-.03-.38-.19,0-.25.21-.24.37M119.26,20.98c.07.38.13.78.33,1.12.19.07.38-.01.52-.15.08-.23-.09-.45-.18-.65-.21-.38-.38-.78-.64-1.12-.14.25-.07.54-.03.8M154.22,20.81c-.19.54,0,1.33.61,1.49.31.05.7.12.9-.2-.28-.11-.61-.19-.76-.47-.12-.25-.08-.58.1-.8.25-.17.59-.14.82.05-.01-.15,0-.3-.05-.44-.1-.19-.32-.26-.52-.24-.42.04-.9.19-1.1.59M87,20.35c0,.13,0,.26.01.38.17.06.32-.04.4-.19-.08-.15-.25-.18-.41-.19M87.61,20.59c-.29.08.07.57.24.31.19-.15-.07-.38-.24-.31M88.64,20.69c-.13.1-.11.27-.09.42.13,0,.25,0,.38,0,.06-.14.21-.32.08-.47-.09-.14-.3-.07-.37.05M117.33,21.07c-.17.37-.16.8-.07,1.18.26-.18.5-.4.8-.52.32-.13.64-.28.93-.47,0-.32-.15-.89-.57-.74-.38.15-.75.31-1.08.55M140.56,20.58c-.09.23-.16.49-.39.63-.32.2-.71.22-1.06.32-.2.27-.11.66-.1.98.27.11.53-.05.77-.16.31-.15.66-.29.85-.6.24-.34.13-.78.03-1.15-.02,0-.07,0-.09-.01M151.85,20.69c-.31.63-.55,1.31-1,1.86.17.1.35.19.53.28.3-.58.57-1.19.75-1.82-.08-.12-.18-.22-.28-.32M85.1,20.8c-.32.25,0,.64-.09.96-.31.41-.85.76-.76,1.34.61.11,1.22-.16,1.74-.46.04-.17.12-.33.21-.48-.03-.17-.02-.35-.05-.52-.09-.11-.22-.19-.27-.33-.02-.17,0-.35,0-.52-.26.01-.53,0-.79.02M86.01,21.08c-.03.14.13.21.21.3.08-.15.21-.32.1-.49-.12-.18-.32.03-.3.19M86.64,20.9c-.11.01-.06.16-.07.23.03.28.5.13.44-.11-.03-.16-.25-.14-.37-.12M99.66,20.86c-.09.15-.17.31-.22.47.05,0,.14.01.19.02.1-.14.19-.29.27-.45-.06,0-.17-.03-.23-.04M87.15,21.1c.02.13-.04.33.14.37.22.11.35-.19.25-.36-.13-.02-.26-.02-.39-.01M87.99,21.13c-.03.18.05.33.16.46.07-.02.14-.03.22-.06.05-.14.01-.29,0-.43-.13,0-.26-.03-.38.03M100.37,21.34c-.15.17-.31.36-.37.58-.05.13.1.2.19.27.24-.08.38-.3.55-.48.19-.21.43-.37.59-.61-.33-.1-.73-.03-.96.24M121.25,21.34c-.04.4-.05.81-.07,1.22-1.01.35-2.01.72-3.02,1.07-.08-.3-.16-.6-.3-.88-.26.69-.13,1.49.24,2.12.34.44.9.66,1.43.76-.03-.15-.08-.29-.11-.43.78-.32,1.55-.64,2.33-.96.28-.04.54.12.81.15-.14-.46-.47-.82-.7-1.24-.41-.62-.29-1.4-.42-2.09-.09.08-.19.15-.19.28M129.97,21.06c-.03.25-.07.51-.01.77.08.24.32.47.59.43.16-.1.29-.25.43-.38,0-.27,0-.54-.01-.81-.33-.01-.66,0-.99,0M156.24,21.07c-.27.09-.54.17-.8.29-.02.07-.04.15-.05.23.32,0,.6-.16.91-.2.19.43.41.84.62,1.26.05.11.12.22.1.35-.12.09-.27.17-.29.34.24,0,.57-.07.65-.34.09-.23-.01-.48-.08-.7-.13-.36-.24-.74-.47-1.06-.13-.18-.38-.23-.58-.16M82.25,21.47s.09.1.13.15c0,.08,0,.16.03.23.21.1.45.13.68.2.06.08.1.17.17.25.13.01.27,0,.4,0,0,.13,0,.26,0,.39.27-.21.53-.43.77-.68.08-.07.09-.19.12-.29-.13-.06-.25-.15-.39-.16-.63-.03-1.26-.1-1.89-.1M161.38,22.2c.22,0,.45,0,.67.01-.01.25-.07.5-.04.75,0,.09.06.17.16.15.11-.19.2-.38.34-.55.12.05.23.11.35.17-.11.24-.23.48-.32.72.16-.12.31-.26.47-.36.24-.08.5-.06.76-.07.12-.23.27-.45.45-.63.2,0,.38.1.58.12-.03-.17-.12-.31-.26-.4-.47-.36-1.05-.57-1.63-.65-.59,0-1.11.36-1.51.75M86.6,21.51c-.18.12-.14.34.02.45.19.05.32-.11.38-.27-.04-.21-.23-.22-.4-.17M152.66,21.51c-.18.53-.43,1.04-.62,1.57.1.03.21.06.32.09.23-.49.46-1,.51-1.54-.07-.05-.14-.09-.21-.13M87.48,21.64c-.01.15-.1.31,0,.44.17.24.66-.04.49-.31-.1-.19-.32-.15-.49-.14M120.51,21.73c-.18.38-.55.75-1.01.68-.14-.08-.18-.26-.27-.38-.18.19-.21.54.05.67.54.25,1.43-.11,1.36-.79,0-.06-.07-.32-.13-.18M101.13,21.81c-.23.24-.36.55-.54.82-.1.17-.27.42-.04.57.25-.15.36-.42.49-.67.1-.21.22-.41.31-.62-.01-.11-.13-.17-.22-.1M88.25,21.92c-.06.1-.12.19-.18.29.09.23.19.46.26.7-.13.06-.26.11-.38.17-.03-.21-.07-.43-.12-.64-.11.07-.32.08-.29.25,0,.24.06.47.09.7-.13,0-.26,0-.39.02-.02-.16.03-.35-.11-.46-.08.02-.16.04-.24.07-.02.16-.05.32-.09.48-.17.05-.33.09-.5.13.09-.19.19-.37.29-.56-.16,0-.33,0-.49.02-.17.21-.35.41-.53.61-.1.12-.26.27-.14.43.36.16.74,0,1.11-.05.6-.07,1.25.02,1.81-.26.37-.17.77-.27,1.1-.51.02-.09.02-.19-.03-.28-.13-.25-.24-.51-.38-.75-.22-.19-.47-.38-.78-.36M87.01,22.09c-.12.07-.15.27,0,.33.19.19.5-.15.31-.33-.04-.12-.25-.07-.31,0M164.74,23.16c-.19.49-.53.91-.86,1.31-.22-.3-.46-.6-.8-.76.21.76.22,1.55.46,2.3.6-.06,1.19-.26,1.74-.5.63-.29,1.14-.77,1.6-1.28-.53-.16-1.09-.06-1.63-.05.1-.34.14-.7.13-1.05,0-.38.03-.76-.04-1.13-.29.34-.4.78-.6,1.16M86.4,22.31c-.11.08-.2.2-.18.34,0,.2.28.23.43.16.33-.1.04-.79-.25-.51M103.14,22.36c-.12.28-.2.59-.23.89.22-.28.39-.62.43-.98-.07.02-.13.05-.19.08M129.79,23.06c-.44.1-1.04-.17-1.34.27.3-.01.6-.07.9-.03-.09.2-.22.39-.31.59.07.02.14.04.21.06.07-.15.13-.32.28-.4.24-.06.52-.02.74-.17.2-.15.46-.08.7-.08,0,.04.02.12.03.16-.19.01-.38.03-.56.07,0,.04,0,.11,0,.15.23,0,.45.02.68.02.11-.16.22-.32.38-.42,0,.12,0,.24-.01.36.08,0,.16-.01.25-.02,0-.17.02-.34.02-.52-.19.04-.38.07-.57.06.09-.1.2-.17.32-.24,0-.08,0-.16,0-.24-.32-.13-.66-.15-.99-.14,0,.04,0,.12,0,.15.24.03.48.07.72.09,0,.04-.02.11-.03.15-.28.12-.59.09-.89.08-.04-.19-.1-.39-.19-.56-.08.06-.16.11-.24.17-.09-.06-.17-.12-.25-.18-.19.23.04.42.17.61M155.65,23.17c-.06.23,0,.47.05.69.13.42.2.86.45,1.23.41,0,.79-.18,1.17-.32,0-.07,0-.14.01-.21-.29-.06-.65-.11-.77-.41-.14-.39-.27-.78-.35-1.19.14-.05.29-.11.43-.16,0-.09-.02-.17-.02-.26-.38.1-.76.29-.98.63M101.39,22.67c-.14.18-.25.39-.32.61,0,.16.14.21.28.23.05-.09.1-.19.15-.28.11-.26.49-.33.4-.67-.17.03-.35.03-.5.11M102.44,22.8c-.25.4-.59.78-.62,1.27.32.01.36-.34.51-.54.11-.2.32-.34.39-.56.06-.16-.2-.39-.28-.17M167.6,22.93c-.19,1.06-.33,2.13-.59,3.18.73.14,1.35.58,2.02.87-.07-.21-.04-.51-.27-.62-.21-.13-.43-.25-.65-.37.36-.38.8-.68,1.18-1.04.46-.36.82-.84,1.03-1.38-.49.17-.97.38-1.44.6-.31.14-.57.38-.86.55-.16-.59-.23-1.21-.41-1.8M90.86,23.51c-.12.3-.07.63-.04.95.06.28.07.61.29.83.04-.15.07-.31.09-.47.03,0,.09.01.12.02.07.13.15.25.23.37.04-.35.02-.7.03-1.05.1,0,.2-.01.3-.02,0,.21.03.42.06.63.04,0,.11,0,.15,0,.21-.23.57-.48.46-.84-.2-.42-.67-.61-1.11-.66-.22-.04-.48.04-.58.26M103.22,23.5c-.18.38-.34.76-.42,1.17.11-.03.28,0,.32-.14.16-.37.36-.73.39-1.14-.1.02-.24-.02-.29.1M157.05,23.88c.04.09.09.17.15.25.14,0,.28,0,.42,0,.17.33.39.63.52.98.08.31-.17.54-.38.72.09.13.26.2.39.08.23-.17.63-.3.6-.65-.06-.4-.26-.77-.42-1.14-.11-.21-.2-.47-.44-.56-.31.02-.57.19-.84.32M88.77,24.45c.26.1.37-.22.56-.32.05.3-.07.62.06.9.25-.19.22-.54.28-.81.05,0,.14.02.19.02.12.33.05.69.07,1.04.21-.01.45.04.64-.07.17-.75-.55-1.56-1.32-1.49-.34.03-.59.4-.48.73M129.8,24.37c-.75.05-1.5.08-2.25.1-.15.15-.25.33-.36.51.66,0,1.33.02,1.99.02,0,.06-.03.17-.03.23-.72.01-1.44-.03-2.15,0-.1.1-.17.22-.24.34.68.03,1.37.03,2.05.04,0,.08-.02.15-.03.23-.73.03-1.45,0-2.18,0-.2-.03-.28.19-.37.33.19.04.4.03.6.04.54,0,1.08.08,1.62.08-.28.45-.57.9-.79,1.39.79-.7,1.54-1.45,2.29-2.19.34-.34.72-.65,1.05-1,.2-.26-.07-.64-.37-.62-.32.08-.6.28-.83.51M126.19,24.16c-.18.21-.33.44-.47.67-.26.46-.54.91-.71,1.41.09-.03.2-.02.28-.09.51-.39.97-.86,1.42-1.32.18-.18.32-.43.24-.68-.2-.19-.58-.22-.76,0M103.79,24.23c-.01.15-.02.31-.02.47.09-.03.21-.03.28-.12.03-.12.03-.25.05-.37-.11,0-.21.02-.31.03M170.39,25.23c-.37.22-.8.37-1.06.73.78.35,1.56.69,2.33,1.08.11.05.24.14.35.04.11-.05.2-.22.08-.3-.49-.31-.98-.63-1.47-.95.54-.48,1.25-.82,1.55-1.53-.6.3-1.19.62-1.78.94M92.74,24.41c-.37.54-.92.9-1.46,1.25.45.08.91.32,1.37.18.36-.07.71-.32.81-.69,0-.22.09-.52-.13-.65-.16-.13-.42-.2-.6-.09M86.64,25c-.71.49-1.47.9-2.23,1.29,0,.12.02.23.04.35.27-.03.54-.09.81-.17.03.05.08.16.11.22.11-.05.23-.11.34-.17.04.07.09.14.14.22.2-.16.38-.34.55-.54.09,0,.19,0,.28,0,.09-.11.13-.24.18-.36.05,0,.16,0,.21-.01.07-.22.06-.46.09-.69.11-.13.26-.25.26-.44-.31-.09-.54.16-.78.3M87.76,25.38c0,.15,0,.3.1.43.21.29.49.57.86.63.57-.2,1.09-.51,1.61-.81-.37-.06-.74-.13-1.08-.29-.27-.12-.45-.36-.62-.59-.33.14-.62.36-.86.63M157.47,25.06c-.26.31-.66.58-.67,1.02.05.27.15.59.41.73.17.02.44-.07.44-.28-.03-.23-.15-.44-.13-.67,0-.33.32-.51.46-.78-.15-.09-.38-.21-.51-.02M166.43,25.52c-.56.38-1.17.69-1.77,1.01,0,.03,0,.09,0,.12.34.22.66.48.99.71.49.34.9.78,1.31,1.2.05,0,.14-.01.19-.02-.25-.65-.65-1.22-1.15-1.69.65.18,1.3.45,1.99.39-.47-.52-1.1-.85-1.64-1.3.13-.16.37-.28.38-.5-.11-.02-.21,0-.29.08M123.43,26.02c0,.24.13.44.19.66-.1.08-.2.15-.31.21-.17-.02-.33-.11-.5-.14-.15.05-.24.17-.33.28.15.04.31.07.47.1.11.09.14.24.21.37.04,0,.12.01.16.02.03-.31.28-.47.55-.57.09.05.18.11.28.17v.12c-.35.16-.65.41-1.02.51-.37.11-.69.32-1.01.51-.1-.07-.2-.13-.29-.2.11-.12.23-.21.34-.33-.02-.09-.05-.18-.08-.27-.17.1-.33.22-.5.32-.22-.15-.41-.36-.7-.31.02.44.35.75.6,1.07.35.43.68.9,1.13,1.23,1,.77,2.16,1.29,3.33,1.75.91.35,1.83.68,2.79.85.66.11,1.35.22,2.02.1,0-.06,0-.19,0-.25-.35-.02-.69-.08-1.03-.18.59-.28,1.17-.61,1.73-.95.13-.05.12-.2.14-.32-.11,0-.23-.03-.33.04-.66.37-1.33.72-2.01,1.04-.22-.02-.44-.07-.65-.15.58-.37,1.21-.64,1.79-1.01.03-.2-.23-.13-.35-.11-.59.27-1.15.58-1.73.87-.2.14-.41-.05-.6-.12.55-.28,1.11-.52,1.65-.83.02-.04.07-.13.09-.18-.16,0-.33-.06-.47.03-.49.25-.98.5-1.47.74-.26.14-.54-.05-.78-.16.58-.29,1.16-.57,1.74-.88,0-.05,0-.14,0-.18-.14,0-.27,0-.4.04-.57.25-1.12.55-1.69.81-.16.1-.31-.01-.45-.08.73-.37,1.46-.75,2.2-1.09.81.19,1.6.48,2.43.59.98.13,1.97.17,2.95.16.31.03.52-.25.67-.49-.78.03-1.57.04-2.34-.05-.76-.03-1.51-.18-2.22-.43-.92-.32-1.86-.65-2.7-1.15-1.16-.74-2.21-1.62-3.2-2.57-.11.12-.33.2-.29.38M91.62,26.01c0,.72.95,1.14,1.52.76-.24-.19-.54-.28-.81-.43-.24-.12-.44-.3-.71-.33M89.21,26.66c-.22.17-.43.38-.51.65-.05.28.2.55.48.56.36-.12.65-.37.93-.62.33-.28.41-.73.52-1.12-.41.33-.99.23-1.41.54M90.84,26.13c-.1.33-.08.72-.31,1-.14.18-.31.37-.28.62-.02.2.12.48.36.42.23-.05.43-.19.61-.34.28-.25.41-.74.13-1.04-.18-.19-.27-.44-.31-.69-.05,0-.15.02-.21.03M158.64,26.21c.02.23.06.47.2.66.11.02.23.02.35.03-.03-.29-.16-.54-.31-.78-.06.02-.18.07-.24.09M130.35,27.12c.44.55.86,1.11,1.34,1.63.12.19.35.08.5,0-.01-.11-.08-.19-.14-.28-.47-.66-.95-1.32-1.43-1.98-.14.17-.5.4-.27.64M125.94,26.67c.27.17.58.26.89.31.26.07.43-.18.61-.31-.5-.01-1-.03-1.51,0M122.52,27.32c-.06.12-.08.25-.08.38.14,0,.27,0,.41,0-.02-.09.02-.19-.04-.27-.09-.05-.2-.08-.29-.12M129.3,28.13c.3.28.74.4,1.15.44.06-.38-.31-.58-.58-.75-.22-.14-.54.06-.57.31M121.8,30.94c.12.53.26,1.05.36,1.59.52.06,1.04.12,1.56.11.29,0,.59,0,.85-.15.14-.07.21-.24.15-.39-.22-.32-.61-.51-1-.45-.36.01-.6.29-.86.49-.19.02-.34-.13-.5-.21.09-.32.32-.59.41-.91-.05-.28-.34-.44-.58-.54-.26-.11-.47.22-.39.45Z" class="st0"></path>
    <path d="M103.87,9.53c.38.32.65.74.97,1.11.22.3.52.57.6.95.08.48-.08.96-.29,1.39-.09.22-.34.3-.55.38.3-.48.54-1.04.46-1.63-.09-.6-.5-1.06-.82-1.55-.14-.21-.34-.39-.37-.66Z" class="st0"></path>
    <path d="M132.63,19.22c.03-.05.1-.15.13-.2.15.14.31.31.32.52-.13.18-.31.32-.42.51-.07.33-.12.66-.11,1,.15-.1.2-.28.23-.45.07-.47.36-.89.7-1.22-.04.28-.19.51-.31.75-.15.26-.15.56-.23.83-.24.42-.68.68-.93,1.09-.22-.45-.1-.96-.13-1.45-.02-.13.04-.31-.09-.4-.32-.1-.76.1-.96-.25.23-.05.47-.07.71-.07,0-.03,0-.1,0-.13-.14-.03-.29-.06-.33-.22.31-.09.58.09.88.16-.1-.16-.22-.31-.29-.48.28-.02.57-.01.85,0Z" class="st0"></path>
    <path d="M81.44,25.51c1.22.66,2.36,1.49,3.66,1.98.84.33,1.67.69,2.52.99,0,.02,0,.06,0,.08-.56.2-1.12.39-1.68.59-.25.09-.47-.12-.7-.2-1.07-.47-2.13-.98-3.13-1.58-.11-.05-.13-.17-.16-.27-.17-.53-.35-1.06-.51-1.59Z" class="st0"></path>
    <path d="M91.78,27.91c.87-.01,1.74.12,2.6.24.26.06.61.05.74.33.09.41-.07.85-.37,1.14-.4.29-.92.35-1.4.38-.62.04-1.24-.12-1.86-.16-.26-.02-.52-.06-.78-.08,0,0,0-.02,0-.03.27-.06.59-.1.75-.35.25-.39.47-.79.59-1.24-.1-.07-.19-.15-.28-.23M92.54,29.67c.31.09.68.18.99.01.44-.27.55-.83.56-1.31-.28-.06-.56-.1-.84-.13-.23.48-.48.94-.71,1.42Z" class="st0"></path>
    <path d="M95.67,28.04c.69,0,1.37-.05,2.06-.03-.03.05-.06.11-.08.16-.15,0-.29,0-.43.02-.11.12-.16.27-.22.41-.14.36-.31.71-.42,1.08.16.04.47-.05.38.21-.6.01-1.19,0-1.79,0-.11.02-.19-.05-.27-.11.3-.11.73-.08.91-.41.15-.34.37-.69.33-1.08-.16-.04-.32-.07-.48-.08,0-.05.01-.14.02-.19Z" class="st0"></path>
  </g>
  <g id="_x23_010101ff">
    <path d="M270.84,6.48c1.25-.8,2.73-1.17,4.19-1.29,2.49-.12,4.98.25,7.42.75.14,1.91.29,3.82.44,5.72,0,.16,0,.31.01.47-.14,0-.28.04-.41.02-1.49-1.59-2.95-3.2-4.47-4.75-1.13-1.1-3.02-1.38-4.38-.54-.59.3-1.02.84-1.28,1.44-.33.79-.26,1.7.07,2.48.53,1.25,1.54,2.22,2.6,3.04,1.35,1.06,2.9,1.83,4.38,2.68,1.69.96,3.29,2.21,4.26,3.93.38.7.64,1.45.74,2.24.14.6.12,1.23-.03,1.82-.19,1.42-.81,2.78-1.8,3.83-1.06,1.1-2.44,1.85-3.9,2.27-1.7.5-3.5.45-5.24.29-1.12-.11-2.24-.29-3.35-.52-.64-.14-1.29-.24-1.91-.46-.14-1.85-.25-3.71-.39-5.57-.02-.3-.03-.59-.04-.89.16,0,.32-.03.49-.01.86.96,1.69,1.96,2.61,2.87.55.57,1.1,1.13,1.68,1.66.56.47,1.11.99,1.82,1.22,1,.34,2.09.53,3.14.3,1.33-.25,2.48-1.37,2.64-2.73.13-1.45-.62-2.92-1.8-3.75-1.29-.85-2.63-1.64-3.96-2.42-1.1-.67-2.22-1.3-3.24-2.07-1.16-.89-2.12-2.04-2.7-3.39-.66-1.53-.84-3.3-.37-4.91.43-1.53,1.44-2.89,2.77-3.75Z" class="st0"></path>
    <path d="M.57,5.61c7.45-.01,14.9,0,22.35,0,.17,1.72.36,3.45.54,5.17.05.64.15,1.27.17,1.91-.15.04-.3.13-.46.09-1.27-1.36-2.61-2.66-3.91-4-.49-.48-.95-.99-1.55-1.34-.86-.5-1.87-.65-2.85-.66,0,4.49,0,8.98,0,13.48,0,2.72-.01,5.45.01,8.17.54.31,1.14.52,1.7.81.68.3,1.35.63,2.04.92,0,.12,0,.25.01.38-4.44,0-8.87,0-13.31,0,0-.11,0-.22.02-.33,1.21-.58,2.42-1.14,3.62-1.72.12-.03.08-.16.09-.26,0-7.15,0-14.31,0-21.46-1.06.01-2.16.12-3.09.66-.43.26-.82.59-1.17.95-1.07,1.08-2.16,2.15-3.2,3.26-.38.38-.75.78-1.14,1.15-.16.03-.31-.05-.45-.11.16-2.35.4-4.7.57-7.05Z" class="st0"></path>
    <path d="M24.52,5.61c3.95,0,7.91,0,11.87,0-.03.13.04.32-.1.39-.91.53-1.84,1.05-2.76,1.57-.07.06-.22.09-.19.21,0,3.08,0,6.16,0,9.24,2.08-.01,4.17-.02,6.25-.03,1.71-.06,3.42-.03,5.13-.05,0-3.1,0-6.19,0-9.29-1.02-.57-2.04-1.14-3.06-1.71,0-.11,0-.22,0-.33,3.95,0,7.9,0,11.85,0-.03.14.03.35-.13.41-.97.56-1.94,1.12-2.91,1.66-.01,6.92,0,13.84,0,20.76,1.01.55,1.99,1.16,3.01,1.7.03.12.03.25.04.38-3.95,0-7.9,0-11.85,0,0-.12,0-.24.01-.36,1.02-.54,2.03-1.11,3.03-1.69.03-1.12,0-2.25.01-3.37,0-2.21,0-4.42,0-6.62-3.33,0-6.66-.02-9.98-.04-.46-.04-.93-.03-1.39-.03,0,3.34-.02,6.69,0,10.03,1.01.58,2.01,1.16,3.03,1.73,0,.12,0,.25,0,.37-3.95-.01-7.9,0-11.85,0,0-.11.01-.22.02-.33.96-.54,1.92-1.08,2.88-1.62.07-.05.2-.1.19-.21,0-6.83,0-13.67,0-20.5,0-.05-.02-.14-.03-.19-.87-.5-1.75-1-2.62-1.5-.15-.08-.31-.15-.42-.27,0-.1-.01-.19-.02-.29Z" class="st0"></path>
    <path d="M54.59,5.61c6.83,0,13.67,0,20.5,0,.13,1.94.28,3.88.4,5.83.02.23.06.45.04.68-.16.05-.35.19-.47,0-1.3-1.33-2.58-2.69-3.92-3.98-.48-.44-1.04-.79-1.66-.99-1.34-.41-2.76-.24-4.14-.37-.62,0-1.24-.02-1.86-.03,0,3.5,0,7.01,0,10.51,1.23,0,2.46,0,3.69-.07.41-.02.84.01,1.23-.13.4-.14.68-.47.96-.77.65-.75,1.27-1.52,1.86-2.32.15,0,.3,0,.45,0,0,2.78,0,5.57,0,8.35-.14,0-.27,0-.4,0-.21-.19-.33-.45-.49-.67-.55-.77-1.07-1.55-1.65-2.3-.37-.45-.94-.69-1.51-.7-1.38-.02-2.77,0-4.15-.09,0,3.59,0,7.18,0,10.78,1.66.01,3.32-.03,4.98-.21.77-.06,1.55-.18,2.24-.55.8-.4,1.39-1.09,2.01-1.72,1.03-1.13,2.06-2.26,3.06-3.42.16-.05.33.09.49.13-.13,2.32-.31,4.65-.42,6.98-7.08,0-14.16,0-21.23,0,0-.11,0-.22.02-.33,1.01-.57,2.02-1.14,3.03-1.7.07-1.13.02-2.26.02-3.39.02-.46.02-.91,0-1.37-.03-1.21.02-2.43,0-3.64-.05-.99.03-1.97-.01-2.96-.02-.53.03-1.06.01-1.6-.05-1.14.04-2.28,0-3.42.03-1.48.01-2.97,0-4.45-.98-.53-1.94-1.11-2.92-1.65-.17-.07-.14-.26-.14-.41Z" class="st0"></path>
    <path d="M172.66,5.61c7.45,0,14.91,0,22.36,0,.22,2.36.5,4.7.72,7.06-.15.03-.3.14-.46.1-1.06-1.05-2.06-2.15-3.12-3.19-.61-.6-1.19-1.24-1.84-1.79-.93-.78-2.19-1.01-3.38-1.01,0,5,0,10,0,14.99,0,2.22-.01,4.45,0,6.67,1.21.56,2.43,1.12,3.65,1.68.19.05.1.27.14.41-4.44,0-8.88,0-13.33,0,0-.11.01-.22.03-.34,1.23-.59,2.46-1.17,3.7-1.75,0-7.22,0-14.45,0-21.68-1.31-.01-2.73.2-3.74,1.11-.89.83-1.73,1.71-2.59,2.58-.73.73-1.45,1.48-2.17,2.23-.13.2-.36.04-.54,0,0-.75.12-1.49.17-2.23.13-1.61.28-3.22.39-4.84Z" class="st0"></path>
    <path d="M196.61,5.61c3.95,0,7.91-.01,11.86,0-.03.16,0,.37-.18.43-.96.53-1.9,1.1-2.86,1.62-.06.82-.02,1.65-.03,2.48,0,5.97,0,11.95,0,17.92,0,.13-.01.28.07.39.98.57,1.97,1.12,2.94,1.69.03.12.04.25.06.38-3.95.01-7.91,0-11.86,0,0-.12,0-.24.01-.37,1.03-.53,2.02-1.14,3.05-1.68,0-6.94,0-13.89,0-20.83-1.02-.57-2.03-1.14-3.05-1.7,0-.11-.01-.22-.01-.33Z" class="st0"></path>
    <path d="M209.59,5.61c3,0,6-.02,9,.01.67,1.29,1.29,2.61,1.93,3.92,2.15,4.38,4.28,8.76,6.43,13.13,2.52-5.68,5.07-11.36,7.58-17.05,2.78-.01,5.56,0,8.35,0-.03.14.05.36-.13.41-.98.54-1.93,1.12-2.91,1.65,0,6.24,0,12.48,0,18.72.01.68-.02,1.36.02,2.04,1,.58,2.01,1.16,3.02,1.73,0,.12,0,.24,0,.36-3.95,0-7.89,0-11.84,0,0-.11,0-.22.02-.33,1-.57,2.02-1.13,3.02-1.7.07-.26.03-.54.04-.8v-14.05c-.02-.96.04-1.93-.04-2.89-.57,1.34-1.22,2.66-1.82,3.99-2.37,5.13-4.72,10.26-7.1,15.39-.34.11-.75.02-1.11.04-2.8-5.83-5.61-11.66-8.41-17.49-.38-.76-.71-1.55-1.13-2.28-.02,5.99,0,11.98,0,17.97.16.18.4.27.6.4.81.46,1.62.93,2.43,1.38,0,.13,0,.25.01.38-2.65,0-5.3,0-7.95,0,.02-.14-.04-.36.14-.41.98-.54,1.95-1.1,2.93-1.63,0-6.94,0-13.88,0-20.81-.47-.32-.99-.57-1.49-.86-.53-.28-1.04-.59-1.57-.87,0-.11-.01-.22-.01-.33Z" class="st0"></path>
    <path d="M243.94,5.61c6.83,0,13.67,0,20.5,0,.13,2.17.29,4.35.44,6.52-.13.03-.26.07-.39.09-1.09-1.09-2.14-2.24-3.24-3.32-.43-.44-.86-.86-1.36-1.22-.74-.52-1.65-.72-2.54-.78-.83-.11-1.68,0-2.52-.11-.67-.01-1.35-.03-2.02-.04,0,3.5,0,7.01,0,10.51,1.51,0,3.01-.02,4.52-.11.69-.05,1.17-.61,1.59-1.11.57-.67,1.11-1.37,1.65-2.07.15,0,.29,0,.45,0,0,2.78,0,5.56,0,8.34-.16-.03-.39.08-.49-.09-.48-.68-.96-1.37-1.44-2.05-.35-.45-.62-1-1.14-1.28-.57-.33-1.25-.26-1.88-.27-1.08-.02-2.17,0-3.25-.07-.01,3.59,0,7.18,0,10.77,1.92.02,3.84-.05,5.75-.3.9-.11,1.75-.51,2.42-1.12.94-.86,1.76-1.83,2.62-2.77.47-.54.96-1.08,1.42-1.63.14-.22.39,0,.57.05-.14,2.01-.24,4.02-.38,6.03,0,.32-.02.63-.07.94-7.06,0-14.13,0-21.19,0,0-.11,0-.23.02-.34,1.01-.56,2.02-1.14,3.04-1.69.02-4.04,0-8.08,0-12.12,0-2.9,0-5.8,0-8.71-1.03-.55-2.04-1.16-3.06-1.73,0-.11,0-.22,0-.32Z" class="st0"></path>
    <path d="M102.31,11.63c.05,0,.16-.02.21-.03-.01.13-.02.27-.04.4-.18-.05-.17-.22-.17-.37Z" class="st0"></path>
  </g>
  <g id="_x23_201f1fff">
    <path d="M157.01,6.24c.34-.18.7-.35,1.08-.42-.24.29-.68.29-.93.57-.08.4.09.86-.16,1.21-.25.26-.66.2-.99.24-.56.04-.94.51-1.34.86.3-.06.59-.18.89-.25.52-.1,1.07.09,1.58-.09.27-.36.4-.9.88-1.04.34-.12.8-.23,1.08.07.07.07.14.14.21.22-.35-.02-.73-.16-1.06.01-.29.15-.52.44-.55.78-.03.17-.05.42-.27.41-.68.02-1.37-.02-2.05-.02-.48.05-.88.34-1.33.49-.09-.13-.17-.26-.18-.42.35-.39.73-.74,1.14-1.08.28-.23.67-.3,1.02-.21.27.03.63.1.84-.14.17-.38-.1-.86.15-1.21Z" class="st0"></path>
    <path d="M102.67,11.22c.06-.09.13-.16.22-.23,0,.07.01.2.01.26-.06,0-.18-.03-.24-.04Z" class="st0"></path>
    <path d="M135.54,19.66c.06.12.12.24.17.36.54.09,1.08.18,1.62.26.08-.09.16-.18.24-.27,0,.51-.11,1.01-.15,1.52-.17-.03-.34-.07-.49-.14.13-.1.37-.13.39-.32.03-.15.04-.3.01-.45-.23-.03-.46-.04-.7-.05-.06.2,0,.39.1.56-.2-.03-.39-.07-.58-.11.16-.13.28-.3.32-.51-.28-.08-.58-.11-.86-.16-.05.17-.09.34-.11.51.15.1.31.2.4.35-.22-.02-.43-.11-.63-.19.13-.45.23-.9.28-1.37Z" class="st0"></path>
    <path d="M162.6,26.28c.09,0,.18,0,.27,0,0,.1,0,.2,0,.3-.15-.04-.25-.13-.27-.29Z" class="st0"></path>
  </g>
  <g id="_x23_201e1fff">
    <path d="M128.02,8.29c.19-.28.58-.37.9-.3.26.11.48.34.5.63.02.29,0,.59-.05.88-.03.22-.17.41-.24.62.19.25.49.35.76.48-.18.02-.35.06-.53.03-.19-.08-.33-.24-.48-.38-.24-.02-.52.08-.71-.1-.16-.13-.3-.32-.28-.54.01-.44,0-.9.11-1.33M128.24,8.58c-.07.38-.09.77-.06,1.15.02.1.03.23.13.29.12.03.25.04.38.06,0-.14,0-.28,0-.43.1.03.2.05.3.08.09-.42.21-.91-.05-1.3-.16-.27-.63-.14-.68.15Z" class="st0"></path>
    <path d="M148.83,27.36c.07-.21.26-.36.41-.52.19.23.4.45.57.7-.06.22-.19.41-.33.59-.22-.26-.45-.5-.65-.77Z" class="st0"></path>
    <path d="M125.96,28.7c.13-.08.28-.07.42-.05-.14.15-.3.26-.45.4.17.25.44.04.63-.06.13-.12.28.02.42.06-.19.13-.48.2-.52.46.2.14.41-.07.61-.13.17-.1.36-.09.55-.05-.59.41-1.27.68-1.9,1.04-.21.16-.44-.03-.65-.1.12-.07.24-.13.37-.2,0-.05-.01-.15-.02-.2-.31.03-.58.28-.9.21.14-.11.31-.19.46-.31,0-.09-.01-.17-.04-.26-.29.09-.56.34-.88.26,0-.04,0-.11,0-.15.66-.26,1.27-.62,1.9-.93M125.24,29.28c-.14.04-.1.2-.11.3.23-.02.46-.06.69-.03,0,.15,0,.3,0,.46.17.1.43.02.39-.2.09-.51-.59-.76-.96-.52Z" class="st0"></path>
  </g>
  <g id="_x23_1f1d1eff">
    <path d="M125.22,8.51c.67-.16,1.33-.37,2.02-.4.04.2.09.4.08.6-.09-.12-.17-.24-.25-.36-.19.02-.38.06-.56.11.03.48.13.95.24,1.42.02.17.17.26.27.37-.29.06-.57.13-.87.11.09-.09.19-.17.29-.26-.11-.52-.25-1.02-.34-1.54-.16.01-.32.03-.48.05-.04.16-.09.33-.14.49-.1-.18-.19-.38-.25-.58Z" class="st0"></path>
    <path d="M119.53,13.68c.09-.34.27-.66.55-.89,0,.12,0,.25.01.37.52.2,1.02.43,1.54.63-.04.08-.07.16-.1.25-.56.1-1.13.2-1.7.28.35.18.72.32,1.09.44.03-.04.09-.13.12-.18.03,0,.1,0,.14,0-.1.25-.2.5-.28.75-.04-.1-.08-.2-.11-.29-.54-.2-1.08-.45-1.65-.53.06-.1.13-.2.19-.3.63-.12,1.25-.28,1.89-.32-.41-.14-.8-.32-1.22-.43-.16.06-.31.15-.47.22Z" class="st0"></path>
    <path d="M154.75,17.28c.43.33.92.56,1.37.85-.37.02-.73-.03-1.09-.12-.12-.05-.31-.06-.32-.22-.02-.17.01-.34.04-.51Z" class="st0"></path>
    <path d="M120.73,23.1c.16-.06.33-.11.5-.13,0,.11.02.22.02.32-.82.25-1.62.55-2.44.78-.15.05-.3,0-.44-.05.03-.07.09-.11.16-.13.73-.27,1.46-.52,2.19-.79Z" class="st0"></path>
    <path d="M134.45,23.27c.34.15.72.29.95.59-.22,0-.43-.15-.65-.1-.21.09-.43.24-.41.49.1.03.2.06.31.07.42.05.71-.44,1.13-.31.37.07.59.51.47.85-.17.18-.38.31-.58.44.01.12.02.24.03.36-.25-.17-.5-.34-.74-.52.29-.04.65.01.86-.23.15-.13.08-.35.09-.53-.48-.12-.87.3-1.34.23-.31,0-.66-.32-.52-.64.04-.25.31-.34.5-.47-.03-.08-.07-.15-.1-.23Z" class="st0"></path>
    <path d="M132.95,25.15c.26-.28.5-.59.77-.86.02.17-.04.38.1.5.34.3.7.57,1.04.85.15.15.38.15.58.18-.42.4-.79.84-1.19,1.24-.2-.05-.32-.24-.46-.38.44.07.81-.26,1.02-.62-.19-.13-.37-.29-.6-.36-.1.07-.18.15-.27.22,0,.11,0,.22,0,.32-.19-.15-.39-.3-.56-.47.13.01.26.03.39.04.07-.11.18-.21.2-.35-.13-.17-.29-.3-.44-.45-.16.15-.35.27-.47.45-.01.15,0,.3,0,.46-.13-.13-.26-.25-.36-.4.03-.16.17-.27.27-.4Z" class="st0"></path>
  </g>
  <g id="_x23_201f20ff">
    <path d="M147.29,8.43c.17-.08.32-.2.48-.3.54.21,1.13.15,1.69.13.05.31.12.67.4.86.53.29,1.13.44,1.73.38-.23.42-.78.28-1.17.3-.32.03-.57-.17-.83-.31-.43.07-.9.32-1.33.07-.35-.15-.57-.49-.62-.86-.31.05-.6.28-.92.18.02-.13.03-.26.09-.37.15-.04.31-.05.46-.08M148.88,8.52c-.06.17-.06.4-.26.47-.14-.1-.26-.23-.39-.33.03.2.1.42.28.54.23.19.7-.02.63-.33,0-.16-.16-.24-.26-.34Z" class="st0"></path>
    <path d="M118.61,16.65c.2-.12.2.12.24.27.36.04.71.04,1.07.08.23.03.45,0,.67-.08-.05.26.01.55-.13.78-.06-.12-.1-.24-.16-.36-.24-.01-.47-.03-.7-.04,0,.33,0,.66-.02.99.21.01.43.03.64,0,.09-.11.17-.23.26-.34.02.3,0,.6,0,.91-.03,0-.09,0-.12,0-.05-.08-.1-.15-.15-.22-.4-.03-.81.01-1.21,0-.22-.03-.35.17-.51.29,0-.33,0-.66.02-.99.09.12.16.25.26.35.16.02.32,0,.48.01,0-.31,0-.62-.02-.93-.07-.19-.3-.09-.45-.1-.08.09-.15.18-.22.27,0-.3,0-.59.04-.88Z" class="st0"></path>
  </g>
  <g id="_x23_222021ff">
    <path d="M102.72,8.82c.31-.12.56-.35.87-.49.12.13.26.26.31.43-.28.32-.67.58-.75,1.03-.53.07-1.05,0-1.56-.18,0-.11-.01-.22-.02-.33.39-.15.76-.32,1.15-.47Z" class="st0"></path>
  </g>
  <g id="_x23_1e1d1dff">
    <path d="M130.04,8.31c.22.05.43.13.64.21-.24.41-.37.87-.5,1.33-.09.21.1.39.27.47.24.09.51-.05.61-.27.15-.32.33-.64.44-.98-.09-.12-.2-.23-.3-.34.32.02.58.24.83.43-.13.06-.34.02-.4.18-.22.41-.37.87-.63,1.26-.45.33-1.23-.11-1.11-.68.08-.43.23-.85.32-1.29-.05-.11-.12-.21-.18-.32Z" class="st0"></path>
  </g>
  <g id="_x23_211f20ff">
    <path d="M100.96,8.8c.39-.05.74-.23,1.12-.29.03.09.05.18.07.27-.23.11-.48.15-.73.21-.06.29-.09.58-.09.88.5.11,1.03.15,1.47.43-.04.08-.09.15-.13.23-.57-.22-1.18-.26-1.78-.33.03-.46.03-.93.08-1.39Z" class="st0"></path>
    <path d="M158.42,9.55c.26-.25.64-.26.98-.28.28,0,.55-.05.83-.06.08.18.13.37.19.55-.4-.02-.8-.04-1.2-.02-.24.26-.49.52-.74.78-.16.15-.32.31-.53.36-.58.15-1.19.13-1.76.33.32.17.69.21,1.02.37.26.12.47.33.74.41.28.03.57-.06.81-.2.25-.14.36-.41.5-.64.47-.02.94.03,1.39.17.02.09.04.19.07.28-.31,0-.61-.02-.92.03-.37.2-.73.41-1.08.65-.34.25-.81.3-1.21.18-.39-.16-.74-.43-1.12-.62-.51-.25-1.04-.54-1.63-.44-.05-.18-.1-.35-.14-.53.86-.19,1.76-.15,2.62-.39.14-.04.25-.14.36-.23.26-.24.54-.47.81-.71Z" class="st0"></path>
    <path d="M148.32,10.71c.54.03.86-.45,1.29-.69.1.03.2.06.3.11-.09.44-.44.78-.86.93-.53.2-1.13.12-1.65-.08-.31-.13-.39-.48-.36-.79.36.31.79.57,1.28.52Z" class="st0"></path>
    <path d="M159.13,12.53c.29-.3.65-.61,1.1-.6.28,0,.57-.03.85-.03.01.13.03.26.04.39-.35,0-.69,0-1.04.03-.14,0-.26.09-.36.2-.33.35-.67.7-1.01,1.04-.12.13-.29.17-.46.18-.38.02-.76-.07-1.14-.08-.45-.01-.9-.02-1.34,0,.03.11.01.27.15.32.36.16.74.31,1.13.36.4.05.81.13,1.2.24.5-.43,1.02-.92,1.71-1.01.4-.02.81.02,1.21.11.12.12.07.3.1.45-.55-.17-1.15-.21-1.71-.08-.2.04-.33.21-.46.35-.18.19-.42.32-.62.49.73-.06,1.52-.19,2.2.17.12.04.15.13.1.26-.28.02-.55-.04-.82-.05-.5-.02-.99,0-1.49-.03-.37-.02-.59-.37-.96-.4-.42-.05-.87-.06-1.24-.3-.31-.18-.64-.3-.98-.42-.04-.3-.06-.6-.07-.9.59-.11,1.19-.32,1.79-.17.3.05.61.15.92.15.17.01.29-.13.42-.22.23-.19.56-.22.76-.45Z" class="st0"></path>
    <path d="M155.22,15.52c.66-.13,1.32.03,1.97.16.24.05.44.22.69.25.59-.16,1.19-.35,1.82-.37.39,0,.77-.08,1.16-.09,0,.14,0,.28,0,.41-.56.03-1.13-.01-1.69,0-.58.15-1.11.43-1.67.61-.31.02-.59-.18-.9-.21-.47-.02-.96-.04-1.4.15,0,.07-.02.14-.02.2.4.16.81.34,1.15.62.26.22.62.27.95.28.17-.04.32-.15.49-.21.24-.11.51-.17.72-.34.13-.1.24-.22.4-.27.26,0,.51.07.77.1,0,.15,0,.3.01.44-.33,0-.67,0-1,.09-.47.19-.9.49-1.4.58-.83-.19-1.58-.6-2.36-.92.08-.49.25-.97.31-1.47Z" class="st0"></path>
    <path d="M143.11,24.46c.39-.05.81-.07,1.16.13.38.2.77.47.94.88.14.3.21.66.06.97-.29.36-.8.3-1.21.27-.67-.15-1.15-.76-1.37-1.38-.14-.35.03-.79.42-.88M143.68,25.39c.06.32.07.68.26.96.11.17.34.14.52.15-.02-.44-.06-.88-.13-1.31-.07-.25-.28-.53-.57-.51-.18.19-.1.47-.08.71Z" class="st0"></path>
    <path d="M103.32,26.9c.5-.1.98-.27,1.48-.39-.01.25-.3.26-.48.34-.18.51,0,1.13-.36,1.58-.31.42-.83.6-1.32.71-.33.04-.76.09-.98-.22-.26-.38-.05-.84-.06-1.26-.19-.02-.38-.02-.56-.02,0-.04,0-.11,0-.15.71-.06,1.42-.17,2.07-.48,0,.04,0,.13,0,.17-.16.11-.37.21-.43.42-.13.4-.24.83-.18,1.26.4.18.82-.19.96-.54.09-.45.17-.9.2-1.35-.12.02-.23.05-.35.08,0-.03,0-.1,0-.14Z" class="st0"></path>
  </g>
  <g id="_x23_1e1e1eff">
    <path d="M143.43,8.6c.21-.18.47-.02.7.04.16.01.14.19.17.31-.33.13-.69.23-1.05.19.01-.19-.02-.43.19-.53Z" class="st0"></path>
  </g>
  <g id="_x23_181818ff">
    <path d="M124.43,8.76c.16-.07.32-.13.48-.2-.01.17-.06.35.02.51.17.39.33.78.5,1.17.05.14.19.2.3.29-.18.08-.36.17-.55.24.03-.11.07-.21.09-.32-.09-.31-.24-.59-.35-.89-.11-.26-.17-.59-.47-.69,0-.03-.01-.08-.01-.1Z" class="st0"></path>
    <path d="M123.21,19.51c1.12,0,2.25.07,3.37-.07,0,.04,0,.11,0,.15-1.11.18-2.25.2-3.37.09,0-.04,0-.12,0-.17Z" class="st0"></path>
  </g>
  <g id="_x23_202020ff">
    <path d="M158.79,8.76c.32-.07.65-.09.98-.07.06.06.12.13.18.2-.35.02-.71,0-1.05.08-.39.18-.74.48-1.17.57-.56.07-1.13-.01-1.69-.09,0-.05,0-.14,0-.19.52.03,1.02.2,1.55.15.42-.19.78-.49,1.21-.66Z" class="st0"></path>
    <path d="M136.13,17.75c.1.01.19.02.29.03,0,.08,0,.16.02.24-.12,0-.24-.02-.36-.03.01-.06.04-.18.06-.24Z" class="st0"></path>
  </g>
  <g id="_x23_1f1e1fff">
    <path d="M123.36,9.17c.29-.12.64-.05.87.15.47.4.69,1.15.36,1.7-.19.34-.67.39-.98.2-.31-.18-.59-.44-.75-.76-.16-.48.05-1.05.49-1.3M123.52,9.48c-.24.08-.34.36-.36.59.03.42.34.79.72.94.15.02.36.04.45-.11.21-.31,0-.69-.16-.97-.15-.21-.35-.5-.65-.46Z" class="st0"></path>
    <path d="M121.5,10.51c.22-.1.48-.15.63-.36.19.18.34.4.5.61-.3-.04-.61-.23-.9-.09-.16.06-.27.19-.38.32.45.3,1,.13,1.5.18.37.12.5.65.26.95-.22.11-.54.12-.61.41-.19-.22-.4-.41-.57-.66.26.05.57.25.81.04.15-.09.1-.28.09-.43-.51-.07-1.08.08-1.53-.23-.29-.21-.03-.59.19-.74Z" class="st0"></path>
  </g>
  <g id="_x23_181617ff">
    <path d="M132.2,9.11c.29.11.59.22.82.43-.14.02-.3,0-.43.06-.22.38-.4.77-.59,1.16-.11.18-.02.38.01.57-.27-.12-.54-.26-.78-.43.13-.02.27,0,.4.04.25-.51.54-1,.73-1.54-.06-.09-.12-.19-.17-.29Z" class="st0"></path>
  </g>
  <g id="_x23_1a1a1aff">
    <path d="M127.24,9.33c.1,0,.21.02.32.03-.01.09-.02.17-.04.26-.09.02-.19.03-.28.04,0-.11,0-.22,0-.33Z" class="st0"></path>
  </g>
  <g id="_x23_1d1b1cff">
    <path d="M133.21,9.67c.25.14.49.31.65.55-.13.53-.33,1.04-.43,1.58.58-.13,1.16-.27,1.74-.41.1.18.21.35.3.54-.11-.05-.22-.1-.32-.15-.34.32-.69.63-1.04.95-.14.1-.18.27-.24.42-.23-.15-.34-.4-.41-.65.1.07.19.14.29.21.4-.27.75-.6,1.14-.89-.63.1-1.24.34-1.87.46.1-.41.24-.8.35-1.21.08-.28.2-.56.2-.85-.33.55-.66,1.1-.87,1.71-.17-.16-.33-.33-.49-.51.13,0,.27,0,.41,0,.24-.45.55-.87.76-1.33-.06-.14-.12-.27-.17-.41Z" class="st0"></path>
    <path d="M132.47,10.7c0-.12-.06-.39.15-.36.12-.03.23.1.17.22-.05.13-.2.13-.32.14Z" class="st0"></path>
  </g>
  <g id="_x23_131313ff">
    <path d="M103.03,10.18c.13,0,.27-.02.4-.02,0,.11-.02.23-.03.34-.1,0-.21,0-.31-.02-.06-.09-.06-.2-.07-.3Z" class="st0"></path>
  </g>
  <g id="_x23_2a2829ff">
    <path d="M103.1,11.09c-.01-.23.18-.35.39-.31,0,.09-.01.18-.03.27-.12.02-.24.02-.36.03Z" class="st0"></path>
  </g>
  <g id="_x23_1e1c1dff">
    <path d="M102.95,11.38c.18-.01.36.02.48.18-.06.08-.12.15-.18.23-.1,0-.21,0-.31,0,0-.13,0-.27.01-.4Z" class="st0"></path>
    <path d="M135,21.92c.06-.18.15-.34.23-.51.09.09.15.23.29.26.38.11.77.19,1.16.29.16.03.33.1.5.07.08-.07.16-.14.24-.21-.07.18-.11.43-.33.48-.62.21-1.24.4-1.86.61.35.2.72.36,1.08.54.21.11.44.02.64-.06-.12.25-.23.5-.33.76-.1-.18-.12-.43-.33-.52-.53-.29-1.09-.51-1.61-.8.58-.26,1.21-.41,1.8-.66-.4-.12-.8-.23-1.19-.37-.09.04-.19.09-.28.13Z" class="st0"></path>
  </g>
  <g id="_x23_212020ff">
    <path d="M120.07,12.62c.19-.26.26-.61.55-.77,0,.13,0,.26.02.39.24.22.53.38.79.58.12.07.24.18.39.18.13-.06.25-.13.38-.19-.08.32-.3.58-.46.87-.04-.11-.02-.28-.15-.33-.36-.22-.71-.45-1.06-.68-.13-.1-.3-.04-.45-.04Z" class="st0"></path>
    <path d="M135.52,18.42c.09.07.15.2.28.2.49.01.99,0,1.48,0,.1-.09.2-.18.3-.26.02.38.06.77-.02,1.15-.19.43-.73.44-1.1.29-.25-.21-.21-.55-.23-.84-.17,0-.34,0-.52.01-.07.08-.14.16-.21.24,0-.26,0-.53.02-.79M136.56,18.98c0,.18,0,.35.04.53.22.05.45.05.67,0,.2-.1.12-.36.09-.54-.27,0-.54,0-.8,0Z" class="st0"></path>
  </g>
  <g id="_x23_212121ff">
    <path d="M121.13,11.93c.12,0,.25,0,.38,0,.07.14.15.27.22.41-.15-.01-.31-.01-.46-.04-.06-.11-.1-.24-.14-.36Z" class="st0"></path>
  </g>
  <g id="_x23_100f0fff">
    <path d="M102.66,12.16c.1,0,.2-.01.3-.02,0,.08,0,.16,0,.25-.11.04-.21.08-.32.12,0-.12.01-.23.03-.35Z" class="st0"></path>
  </g>
  <g id="_x23_221f20ff">
    <path d="M126.63,13.07c.09-.13.2-.25.34-.32.04.29-.08.56-.2.82-.28.73-.08,1.51.04,2.25.01,0,.04,0,.06,0,0-.6.03-1.21-.1-1.8,0-.16.08-.51.31-.39.02.24-.06.47-.07.71-.02.58,0,1.15-.01,1.73-.08.1-.19.17-.28.26.12.32.34.61.33.96,0,.27.06.65-.25.79-.37.17-.82.12-1.21.04.13-.03.26-.06.39-.09,0-.05,0-.16,0-.22.34.02.69-.05.94-.3-.21-.14-.48-.21-.61-.44-.12-.2-.19-.42-.33-.6-.02.2-.05.42.01.62.07.17.17.33.24.5-.25.05-.5.04-.75.02.09-.09.19-.18.3-.27-.05-.4-.2-.78-.19-1.18.19-.24.5-.09.73-.02-.04-.31-.15-.64-.4-.85-.04,0-.11.01-.15.02.08.19.31.33.24.56-.25.11-.47-.16-.43-.4.02-.64-.08-1.27,0-1.9,0-.12,0-.23,0-.35.08,0,.17.01.26.02,0,.17-.03.33-.1.48.14.1.26.22.42.3.05-.07.11-.14.15-.21-.08-.1-.18-.19-.24-.31-.04-.19,0-.38.02-.57.05,0,.14,0,.19,0,.01.04.03.13.04.17.11,0,.22,0,.34,0M125.78,14.26c-.06.18-.08.37-.08.55.05,0,.15,0,.2,0-.02-.19.01-.4-.12-.55M126.12,15.01c.2-.1.16-.32.14-.5-.11.15-.14.32-.14.5Z" class="st0"></path>
    <path d="M123.98,15.48c.31.06.62.17.94.18-.05.3-.03.6-.04.9-.25,0-.49,0-.74.01.15-.07.3-.15.43-.25-.42-.03-.74.31-1.14.34l.05-.09c.06-.1.12-.19.17-.29-.16.06-.31.12-.46.2-.03.01-.09.04-.11.05.05-.11.11-.22.17-.33-.12-.24-.03-.51.19-.65.21-.05.39.12.57.2.22.13.49.15.73.1-.24-.18-.58-.15-.77-.39Z" class="st0"></path>
    <path d="M123.64,16.86s.11.01.14.02c.03.04.07.12.1.16.28.15.69-.07.91.22.06.26.02.52.03.79-.37,0-.71.14-1.07.19,0-.03.02-.1.02-.13.19-.08.38-.16.57-.26-.15,0-.3-.03-.44,0-.2.08-.34.26-.54.34-.18.06-.38.06-.56.03.14-.12.29-.23.44-.35-.18.04-.36.09-.54.13.06-.07.12-.13.18-.2-.29-.22-.04-.72.31-.64.45.07.89.17,1.35.16,0-.04,0-.11.01-.14-.32-.03-.75.03-.91-.33Z" class="st0"></path>
    <path d="M128.63,19.46c.26-.06.52-.03.78-.03.03.36-.09.7-.22,1.04.11-.03.23-.06.34-.12.04-.3-.13-.79.29-.88-.19.27-.16.59-.17.9-.12.11-.3.17-.36.34-.15.34-.03.72-.15,1.07-.12.13-.29.18-.44.24.02-.3-.03-.59-.11-.88.06-.03.19-.08.26-.11-.11-.28-.31-.54-.3-.86,0-.24-.06-.5.09-.71Z" class="st0"></path>
    <path d="M141.13,23.99c.27-.02.54.02.81.02.22.02.46-.01.66.1-.1.17-.34.11-.5.17-.02.43.07.85.16,1.27.05.27.33.39.54.51.02.04.05.11.06.15-.54-.11-1.1-.16-1.65-.15,0-.04,0-.13-.01-.17.05-.01.14-.04.18-.05.02-.45-.03-.9-.13-1.34-.24.47-.37.99-.58,1.48-.12,0-.24,0-.35,0-.42-.41-.85-.82-1.26-1.24.11.38.18.77.36,1.12.08.17.29.08.44.1,0,.03-.01.1-.02.13-.43.13-.84.32-1.27.44,0-.04,0-.12-.01-.16.16-.05.32-.11.48-.17-.04-.55-.3-1.06-.47-1.58-.15-.04-.39.01-.33-.21.42-.12.85-.22,1.28-.32.41.28.74.65,1.14.93.17-.34.27-.72.48-1.04Z" class="st0"></path>
    <path d="M145.05,24.85c.45.17.9.33,1.35.48.25.06.38.29.52.48.3.43.59.88.9,1.3,0-.31-.05-.62-.13-.92-.12-.2-.32-.34-.42-.55.34.03.66.17.99.26.21.08.48.1.61.31-.18,0-.36-.02-.54-.03.09.62.21,1.23.32,1.85-.32-.12-.75-.1-.95-.42-.45-.58-.9-1.17-1.35-1.75.07.39.1.79.17,1.18.09.11.19.22.28.33-.53-.09-1.05-.27-1.56-.46.16-.06.33-.09.49-.14.04-.27-.05-.55-.09-.82-.06-.23-.08-.5-.25-.67-.13-.13-.27-.26-.35-.43Z" class="st0"></path>
    <path d="M105.74,26.1c1.01-.4,2.05-.71,3.08-1.05-.05.29-.11.58-.17.86-.08,0-.16.01-.24.02-.03-.09-.06-.18-.08-.27-.31-.01-.64.05-.89.24-.08.2-.12.42-.17.63.28-.04.52-.21.71-.42-.07.29-.13.58-.17.88-.16-.2-.39-.29-.64-.25-.07.33-.13.66-.14,1,.65.08,1.11-.45,1.5-.88-.02.26-.05.51-.1.76-.92.25-1.83.51-2.75.78-.1,0-.26.1-.32-.03.16-.14.37-.22.53-.37.14-.2.17-.46.24-.69.07-.35.15-.7.16-1.05-.16-.09-.36-.09-.53-.14Z" class="st0"></path>
    <path d="M149.4,26.25c.31,0,.6.12.9.19.44.12.88.23,1.32.34.27.07.57.1.8.28.21.17.4.37.53.6.07.22.1.46.12.69.06.32-.32.46-.55.55-.52.12-1.05-.08-1.56-.17-.39-.08-.78-.19-1.16-.28,0-.04-.02-.12-.02-.16.14,0,.28,0,.42,0-.05-.44-.14-.87-.21-1.31-.03-.14-.02-.3-.14-.4-.15-.13-.34-.2-.45-.37M150.99,26.85c.08.48.2.95.29,1.42.03.12.03.27.16.33.23.06.47.06.7.04.05-.47-.13-.91-.36-1.31-.16-.29-.5-.37-.79-.48Z" class="st0"></path>
    <path d="M152.75,26.95c.96.12,1.9.35,2.85.54.3.08.69.13.82.46.18.28-.2.48-.32.7.14.13.32.23.41.41.11.19.18.41.35.55.16.12.35.19.52.3-.48.02-.95-.11-1.42-.17-.19-.19-.29-.46-.47-.65-.21-.19-.48-.29-.74-.4.04.18.09.36.14.54.14.09.28.18.42.29-.36-.02-.71-.11-1.07-.16-.3-.06-.61-.07-.89-.19.14-.02.28-.04.43-.05-.07-.38-.22-.74-.33-1.12-.07-.2-.11-.42-.23-.61-.15-.16-.34-.28-.48-.45M154.48,27.56c.07.23.13.47.22.7.22.11.49.15.74.13.24-.15.09-.48-.07-.63-.26-.19-.59-.18-.9-.2Z" class="st0"></path>
    <path d="M99.14,27.94c.53-.08,1.06-.18,1.59-.25-.04.17-.07.34-.1.51-.14-.12-.25-.31-.45-.31-.25.02-.51.07-.72.2-.11.16-.15.35-.19.54.2,0,.39.01.59.01.13-.14.26-.28.4-.42-.1.3-.22.59-.29.9-.13-.08-.25-.18-.39-.23-.14-.02-.27.01-.41.03-.08.23-.17.46-.25.69.39-.07.79-.07,1.16-.23.22-.09.34-.34.57-.42,0,.19-.04.39-.12.57-.98.34-2.04.28-3.07.36-.1.03-.19-.04-.27-.09.22-.08.52-.09.63-.33.13-.32.27-.63.34-.97.06-.2-.16-.28-.3-.36,0-.03,0-.09,0-.12.43-.02.86-.06,1.29-.09Z" class="st0"></path>
    <path d="M157.38,27.96c.66-.13,1.35-.03,1.96.23.57.24.91.87.93,1.47-.08.37-.49.49-.82.53-.9.1-1.92-.25-2.4-1.06-.15-.24-.25-.52-.19-.81.09-.21.32-.31.53-.36M157.85,28.18c-.1.04-.21.14-.14.26.16.38.4.73.6,1.1.2.35.61.47.99.38-.03-.26-.15-.51-.25-.75-.12-.29-.25-.59-.46-.83-.19-.19-.49-.23-.74-.16Z" class="st0"></path>
  </g>
  <g id="_x23_191718ff">
    <path d="M133.9,13.3c.83.05,1.63-.25,2.45-.3-.43.57-1.02,1-1.47,1.55-.06.09-.1.19-.15.29-.09-.25-.2-.49-.24-.76.08.08.15.17.23.25.08-.09.2-.17.19-.31-.03-.21-.15-.4-.23-.6-.14.01-.27.03-.4.05.01.14.03.28.04.43-.17-.17-.32-.38-.43-.59M134.95,13.4c.02.19.1.36.19.52.23-.23.49-.43.72-.66-.31.03-.61.11-.91.14Z" class="st0"></path>
  </g>
  <g id="_x23_1f1f1fff">
    <path d="M124.62,13.93c.04-.27.36-.29.58-.27-.13.1-.3.15-.45.21.1.15.25.28.32.45-.02.19-.06.39-.04.58-.17-.02-.39.03-.4-.2-.34.07-.66.24-1.01.18.14-.08.29-.14.44-.21.02-.17-.06-.38.11-.49.17.01.28.16.42.24.13.04.28,0,.42-.01-.13-.16-.29-.3-.38-.49Z" class="st0"></path>
    <path d="M104.62,27.52c.2-.2.39-.39.59-.59.1.18.29.35.26.58-.1.15-.22.29-.33.43-.07.06-.11.18-.22.17-.11-.19-.2-.39-.31-.59Z" class="st0"></path>
  </g>
  <g id="_x23_1d1c1dff">
    <path d="M136.68,14.28c.27.11.25.46.36.69-.18,0-.36-.04-.52.03-.39.14-.78.28-1.17.42-.24.06-.14.38-.06.53.19.06.4.06.6.11-.22.13-.46.18-.71.21-.11-.44-.25-.87-.37-1.31.15.07.29.23.48.15.45-.16.9-.31,1.35-.47.01-.12.02-.24.04-.36Z" class="st0"></path>
  </g>
  <g id="_x23_1c1c1cff">
    <path d="M119.34,15.13c.5-.09,1.07,0,1.44.38.27.33.07.86-.3,1.02-.46.19-.98.05-1.42-.13-.34-.15-.37-.59-.24-.9.07-.22.31-.32.52-.37M119.08,15.53c-.05.18-.08.37,0,.55.38.31.92.24,1.38.26.11-.2.16-.43.13-.66-.47-.16-1.03-.39-1.51-.14Z" class="st0"></path>
  </g>
  <g id="_x23_1d1c1cff">
    <path d="M136.46,16.92c.23-.41.55-.77.79-1.18.07.24.12.5.15.75-.1-.06-.19-.12-.28-.18-.21.26-.38.55-.56.83.24.16.48.33.74.45.06-.09.12-.19.19-.28.04.29.02.58-.03.87-.24-.38-.64-.61-1.01-.87-.28,0-.56.01-.84.03-.05.13-.08.27-.12.41-.06-.31-.1-.63-.13-.95.06.07.11.15.17.22.31,0,.63-.03.93-.1Z" class="st0"></path>
    <path d="M162.17,26.69c-.03-.17.18-.11.28-.11.01.08.03.15.04.23-.11,0-.34.06-.32-.12Z" class="st0"></path>
  </g>
  <g id="_x23_1d1d1dff">
    <path d="M135.83,16.4c.14-.04.36-.09.37.12-.04.18-.23.12-.37.14,0-.09,0-.17,0-.26Z" class="st0"></path>
  </g>
  <g id="_x23_1c1b1cff">
    <path d="M125.93,20.1c.29-.08.56-.21.82-.35-.03.13-.05.26-.07.38-.07,0-.22-.03-.29-.04.09.27.06.56-.08.8-.07-.19-.12-.38-.17-.57-.09,0-.18.02-.27.03.07.29.18.58.25.88.04.18-.07.35-.11.52-.14-.42-.29-.83-.42-1.26-.09,0-.18,0-.27,0,.13.52.33,1.01.51,1.51.04.11-.02.23-.04.34-.27-.57-.49-1.17-.75-1.74-.06-.11-.21-.08-.32-.1.21.73.55,1.41.81,2.12.03.1.05.21.06.31-.22-.19-.28-.49-.4-.74-.26-.55-.49-1.12-.75-1.67-.08-.02-.16-.03-.24-.05.13.48.39.91.58,1.37.19.46.43.89.6,1.35-.03.04-.08.12-.11.16-.3-.62-.61-1.23-.9-1.85-.2-.41-.42-.82-.55-1.27.3,0,.6.05.9.09.42.07.82-.13,1.22-.24Z" class="st0"></path>
  </g>
  <g id="_x23_1c1a1bff">
    <path d="M123.81,20.93s.07.03.1.04c.26.68.5,1.36.78,2.02.09.24.28.43.33.68-.23-.18-.33-.46-.46-.71-.22-.4-.4-.82-.56-1.25-.09-.26-.21-.52-.18-.8Z" class="st0"></path>
  </g>
  <g id="_x23_1b1a1aff">
    <path d="M118.9,24.73c.75-.38,1.53-.71,2.34-.95.08-.02.15-.03.23-.04,0,.05.02.15.03.2-.74.27-1.46.6-2.19.87-.14.06-.28-.05-.41-.08Z" class="st0"></path>
  </g>
  <g id="_x23_161415ff">
    <path d="M124.43,27.52c.11-.08.29-.03.26.13-.63.31-1.26.61-1.89.92-.11.07-.25.06-.37.07.02-.09.01-.2.12-.22.63-.29,1.26-.6,1.88-.89Z" class="st0"></path>
  </g>
  <g id="_x23_181717ff">
    <path d="M122.79,28.9c.78-.27,1.5-.66,2.23-1.05.06.07.23.11.18.24-.72.36-1.44.7-2.18,1-.08-.07-.15-.13-.22-.2Z" class="st0"></path>
  </g>
  <g id="_x23_1a1819ff">
    <path d="M125.37,28.35c.13-.09.28-.03.42.02-.31.22-.65.38-.99.55-.36.17-.69.38-1.04.55-.12.06-.33-.02-.32-.17.65-.32,1.28-.65,1.94-.95Z" class="st0"></path>
  </g>
</svg>