<svg width="225" height="34" viewBox="0 0 225 34" fill="none" xmlns="http://www.w3.org/2000/svg">
<path d="M12.9087 11.7045L8.4575 22.3239H5.55333L3.36317 13.8479C3.23 13.3266 3.11525 13.1354 2.71008 12.9158C2.04992 12.5574 0.959083 12.2216 0 12.012L0.0651667 11.7045H4.74017C5.04567 11.7042 5.34121 11.8131 5.57346 12.0116C5.80571 12.2101 5.95935 12.4851 6.00667 12.7869L7.16408 18.9324L10.0229 11.7045H12.9087ZM24.2887 18.8573C24.3001 16.0537 20.4128 15.8993 20.4397 14.647C20.4482 14.2659 20.8108 13.8607 21.6042 13.7573C22.5339 13.669 23.4702 13.8334 24.3142 14.2333L24.7959 11.9808C23.9742 11.6719 23.1039 11.5121 22.2261 11.509C19.5103 11.509 17.5993 12.954 17.5823 15.021C17.5653 16.5495 18.9465 17.401 19.9877 17.911C21.0588 18.4309 21.4186 18.7652 21.4129 19.2299C21.4058 19.9439 20.5601 20.257 19.7696 20.2697C18.3883 20.291 17.5879 19.8971 16.9476 19.5996L16.4503 21.9258C17.0921 22.2205 18.2764 22.4783 19.5047 22.4896C22.3904 22.4896 24.2788 21.0645 24.2887 18.8573ZM31.4585 22.3239H34L31.7829 11.7045H29.4369C29.1863 11.7022 28.9407 11.7753 28.732 11.9142C28.5234 12.0531 28.3613 12.2515 28.2667 12.4837L24.1457 22.3239H27.03L27.6038 20.7372H31.1284L31.4585 22.3239ZM28.3942 18.5612L29.8392 14.5733L30.6722 18.5612H28.3942ZM16.8342 11.7045L14.5633 22.3239H11.815L14.0887 11.7045H16.8342Z" fill="#FFF8F0"/>
<path d="M105.614 10.2496C104.573 10.2497 103.553 10.5391 102.667 11.0854C101.782 11.6318 101.065 12.4136 100.598 13.3436C100.205 14.1258 100 14.9892 100 15.8646C100 16.74 100.205 17.6033 100.598 18.3855C101.065 19.3156 101.782 20.0974 102.667 20.6438C103.553 21.1901 104.573 21.4795 105.614 21.4795C107.13 21.4795 108.405 20.9809 109.336 20.1238C110.395 19.1463 111.007 17.7013 111.007 15.9928C111.007 15.61 110.974 15.228 110.908 14.851H105.616V17.0128H108.647C108.586 17.3581 108.455 17.6874 108.262 17.9808C108.07 18.2742 107.82 18.5256 107.528 18.7199C107.024 19.0613 106.375 19.2568 105.616 19.2568C104.151 19.2568 102.908 18.2694 102.464 16.9391C102.229 16.242 102.229 15.4871 102.464 14.79C102.908 13.4584 104.151 12.4724 105.616 12.4724C106.416 12.4593 107.19 12.7615 107.769 13.3139L109.373 11.713C108.357 10.758 107.009 10.2335 105.614 10.2496ZM114.824 11.0288V20.8038H116.079V16.8442H118.155C119.009 16.8442 119.727 16.5665 120.311 16.0112C120.601 15.7508 120.832 15.4306 120.987 15.0726C121.143 14.7146 121.219 14.3273 121.21 13.9372C121.216 13.5491 121.139 13.1643 120.984 12.8085C120.829 12.4527 120.599 12.1343 120.311 11.8745C120.025 11.5979 119.687 11.3807 119.317 11.2353C118.947 11.0898 118.552 11.0192 118.155 11.0274L114.824 11.0288ZM118.262 12.233C118.481 12.2368 118.697 12.2845 118.898 12.3733C119.098 12.4622 119.278 12.5903 119.428 12.75C119.588 12.9053 119.715 13.091 119.801 13.2961C119.888 13.5012 119.933 13.7216 119.933 13.9443C119.933 14.167 119.888 14.3874 119.801 14.5925C119.715 14.7976 119.588 14.9833 119.428 15.1385C119.268 15.3047 119.074 15.4355 118.86 15.5226C118.646 15.6097 118.417 15.6511 118.186 15.6443H116.079V12.233H118.186C118.211 12.2324 118.237 12.2324 118.262 12.233ZM124.105 13.8975C122.912 13.8975 122.012 14.3339 121.403 15.208L122.509 15.9035C122.917 15.3128 123.473 15.0167 124.174 15.0167C124.621 15.0112 125.054 15.1746 125.387 15.4743C125.55 15.6095 125.682 15.7795 125.771 15.9719C125.861 16.1642 125.907 16.3741 125.905 16.5864V16.8725C125.423 16.5991 124.809 16.4631 124.063 16.4631C123.189 16.4631 122.491 16.6685 121.968 17.078C121.444 17.486 121.183 18.037 121.183 18.7284C121.178 19.0395 121.242 19.348 121.37 19.6313C121.499 19.9146 121.689 20.1656 121.927 20.366C122.423 20.8024 123.039 21.022 123.776 21.022C124.64 21.022 125.331 20.6395 125.851 19.8745H125.905V20.8024H127.106V16.6813C127.106 15.8171 126.837 15.1371 126.302 14.6413C125.763 14.1455 125.032 13.8975 124.105 13.8975ZM127.31 14.1157L130.067 20.3802L128.512 23.7519H129.808L134 14.1143H132.633L130.695 18.9182H130.667L128.675 14.1157H127.31ZM124.27 17.4704C124.97 17.4704 125.517 17.6262 125.908 17.9379C125.908 18.4649 125.7 18.9239 125.285 19.3163C124.91 19.691 124.402 19.9019 123.872 19.9028C123.518 19.9095 123.173 19.7934 122.895 19.5741C122.765 19.4805 122.66 19.3574 122.588 19.215C122.516 19.0726 122.479 18.915 122.48 18.7553C122.48 18.3912 122.65 18.0895 122.994 17.8387C123.334 17.5936 123.76 17.4704 124.27 17.4704Z" fill="#FFF8F0"/>
<g clip-path="url(#clip0_114_14856)">
<path d="M161.846 12.4296C161.471 12.8468 160.871 13.1749 160.271 13.128C160.196 12.5655 160.491 11.9655 160.836 11.5999C161.211 11.1733 161.866 10.8687 162.401 10.8452C162.461 11.4265 162.216 12.003 161.846 12.4296ZM162.391 13.2358C161.521 13.189 160.776 13.6999 160.366 13.6999C159.946 13.6999 159.316 13.2593 158.626 13.2733C157.731 13.2874 156.901 13.7608 156.446 14.5155C155.506 16.0296 156.201 18.2655 157.111 19.4983C157.556 20.1077 158.086 20.778 158.786 20.7546C159.451 20.7312 159.711 20.3515 160.511 20.3515C161.316 20.3515 161.551 20.7546 162.251 20.7452C162.976 20.7312 163.431 20.1358 163.876 19.5265C164.381 18.8327 164.591 18.1624 164.601 18.1249C164.586 18.1108 163.201 17.614 163.186 16.114C163.171 14.8577 164.281 14.2624 164.331 14.2249C163.706 13.353 162.731 13.2593 162.391 13.2358ZM167.411 11.539V20.6749H168.926V17.553H171.021C172.936 17.553 174.276 16.3202 174.276 14.539C174.276 12.7577 172.956 11.539 171.071 11.539H167.411ZM168.926 12.7343H170.671C171.986 12.7343 172.736 13.3905 172.736 14.5437C172.736 15.6968 171.986 16.3624 170.666 16.3624H168.926V12.7343ZM177.036 20.7452C177.986 20.7452 178.866 20.2952 179.266 19.578H179.296V20.6749H180.696V16.128C180.696 14.8108 179.571 13.9577 177.841 13.9577C176.236 13.9577 175.046 14.8202 175.001 16.0015H176.366C176.481 15.439 177.036 15.0687 177.796 15.0687C178.721 15.0687 179.241 15.4718 179.241 16.2171V16.7233L177.351 16.8312C175.596 16.9296 174.646 17.6046 174.646 18.7765C174.651 19.9577 175.631 20.7452 177.036 20.7452ZM177.446 19.6624C176.641 19.6624 176.126 19.2968 176.126 18.7437C176.126 18.1671 176.621 17.8343 177.566 17.7827L179.246 17.6843V18.1999C179.246 19.053 178.471 19.6624 177.446 19.6624ZM182.571 23.1593C184.046 23.1593 184.741 22.6296 185.346 21.0312L188.001 14.0468H186.461L184.681 19.4421H184.651L182.871 14.0468H181.291L183.851 20.6983L183.711 21.1015C183.481 21.7858 183.106 22.053 182.436 22.053C182.316 22.053 182.086 22.039 181.991 22.0296V23.1265C182.081 23.1452 182.456 23.1593 182.571 23.1593Z" fill="#FFF8F0"/>
</g>
<path d="M66.3987 22.5285C66.4518 22.5734 66.5087 22.6183 66.5646 22.6623C65.4494 23.4045 64.1393 23.7994 62.7998 23.7972C61.7391 23.7972 60.693 23.5489 59.7454 23.0723C58.7978 22.5956 57.9748 21.9039 57.3424 21.0523C56.7099 20.2007 56.2855 19.2129 56.1032 18.1679C55.9208 17.1229 55.9855 16.0498 56.2921 15.0343C56.5987 14.0188 57.1387 13.0892 57.8688 12.3197C58.599 11.5503 59.4991 10.9624 60.4972 10.6031C61.4952 10.2438 62.5635 10.123 63.6166 10.2504C64.6697 10.3778 65.6783 10.7499 66.5618 11.3369C66.5068 11.3837 66.4518 11.4268 66.4106 11.4744C65.6165 12.1596 64.9794 13.0078 64.5427 13.9613C64.1059 14.9148 63.8798 15.9513 63.8797 17.0001C63.8799 18.0481 64.1049 19.0839 64.5394 20.0376C64.974 20.9913 65.608 21.8407 66.3987 22.5285ZM71.2029 10.2021C69.8096 10.2021 68.5162 10.6201 67.44 11.3369C67.495 11.3837 67.55 11.4268 67.5912 11.4744C68.3853 12.1596 69.0224 13.0078 69.4592 13.9613C69.8959 14.9148 70.122 15.9513 70.1222 17.0001C70.1216 18.048 69.8964 19.0837 69.4619 20.0373C69.0274 20.991 68.3936 21.8404 67.6032 22.5285C67.55 22.5734 67.4932 22.6183 67.4372 22.6623C68.5523 23.4047 69.8624 23.7997 71.202 23.7972C72.0948 23.7975 72.9789 23.622 73.8038 23.2805C74.6288 22.9391 75.3783 22.4385 76.0097 21.8073C76.6411 21.1761 77.1419 20.4266 77.4836 19.6018C77.8252 18.777 78.001 17.8929 78.0009 17.0001C78.0007 15.1972 77.2844 13.4683 76.0096 12.1934C74.7347 10.9186 73.0058 10.2023 71.2029 10.2021ZM67.0009 11.6596C66.1911 12.2942 65.5365 13.1049 65.0869 14.0303C64.6372 14.9556 64.4043 15.9713 64.4058 17.0001C64.404 18.0291 64.6368 19.045 65.0865 19.9705C65.5362 20.896 66.1909 21.7069 67.0009 22.3415C67.8107 21.7067 68.4653 20.8958 68.915 19.9703C69.3646 19.0448 69.5975 18.029 69.596 17.0001C69.5975 15.9713 69.3646 14.9556 68.9149 14.0303C68.4653 13.1049 67.8107 12.2942 67.0009 11.6596Z" fill="#FFF8F0"/>
<g clip-path="url(#clip1_114_14856)">
<path d="M223.181 12.4809C223.294 11.4769 223.094 10.7634 222.523 10.1128C221.839 9.33375 220.605 9 219.025 9H214.438C214.282 9.00007 214.131 9.05579 214.012 9.15717C213.894 9.25855 213.815 9.39894 213.791 9.55312L211.88 21.6647C211.871 21.7209 211.874 21.7785 211.89 21.8333C211.905 21.8881 211.932 21.9389 211.969 21.9823C212.006 22.0256 212.052 22.0603 212.104 22.0842C212.156 22.108 212.212 22.1203 212.269 22.1203H214.853L214.663 23.3203C214.65 23.4043 214.655 23.4902 214.678 23.5721C214.701 23.654 214.742 23.7298 214.797 23.7945C214.852 23.8592 214.921 23.9112 214.998 23.9468C215.075 23.9824 215.16 24.0009 215.245 24.0009H217.631C218.034 24.0009 218.375 23.7103 218.44 23.3156L218.463 23.1938L218.913 20.3409L218.941 20.1872L218.942 20.1806C218.954 20.1029 218.994 20.032 219.054 19.9809C219.113 19.9299 219.19 19.9019 219.268 19.9022H219.625C220.811 19.9022 221.898 19.6622 222.761 19.0491C223.116 18.7959 223.428 18.4837 223.691 18.1069C224.129 17.4978 224.412 16.7917 224.516 16.0491C224.743 14.8809 224.638 13.8403 223.982 13.0922C223.78 12.8664 223.538 12.6791 223.27 12.5391L223.181 12.4809ZM216.134 17.2687C216.227 17.2202 216.33 17.1948 216.435 17.1947H217.781C220.425 17.1947 222.494 16.1222 223.099 13.0172L223.102 13.0022C223.305 13.1184 223.477 13.2553 223.616 13.4128C224.127 13.9969 224.252 14.8519 224.037 15.9534C223.782 17.2631 223.226 18.1163 222.478 18.6478C221.726 19.1822 220.751 19.4119 219.626 19.4119H219.269C219.075 19.4116 218.886 19.4808 218.738 19.6069C218.59 19.733 218.491 19.9078 218.46 20.1L218.432 20.2537L217.982 23.1066L217.96 23.2284L217.959 23.2322C217.946 23.3097 217.906 23.3802 217.847 23.4311C217.787 23.4819 217.711 23.5098 217.632 23.5097H215.246C215.231 23.5097 215.217 23.5066 215.204 23.5006C215.191 23.4946 215.179 23.4858 215.17 23.4748C215.16 23.4639 215.153 23.451 215.149 23.4371C215.146 23.4232 215.145 23.4086 215.147 23.3944L215.342 22.1569L216.134 17.2687Z" fill="#FFF8F0"/>
</g>
<defs>
<clipPath id="clip0_114_14856">
<rect width="32" height="24" fill="white" transform="translate(156 5)"/>
</clipPath>
<clipPath id="clip1_114_14856">
<rect width="15" height="15" fill="white" transform="translate(210 9)"/>
</clipPath>
</defs>
</svg>
