<svg width="267" height="27" viewBox="0 0 267 27" fill="none" xmlns="http://www.w3.org/2000/svg">
<rect x="0.5" y="0.5" width="46" height="26" rx="3.5" stroke="black" stroke-opacity="0.1"/>
<path d="M18.9087 8.1955L14.4575 18.8149H11.5533L9.36317 10.3389C9.23 9.8176 9.11525 9.6264 8.71008 9.4068C8.04992 9.0484 6.95908 8.7126 6 8.503L6.06517 8.1955H10.7402C11.0457 8.1952 11.3412 8.3041 11.5735 8.5026C11.8057 8.7011 11.9594 8.9761 12.0067 9.2779L13.1641 15.4234L16.0229 8.1955H18.9087ZM30.2887 15.3483C30.3001 12.5447 26.4128 12.3903 26.4397 11.138C26.4482 10.7569 26.8108 10.3517 27.6042 10.2483C28.5339 10.16 29.4702 10.3244 30.3142 10.7243L30.7959 8.4718C29.9742 8.1629 29.1039 8.0031 28.2261 8C25.5103 8 23.5993 9.445 23.5823 11.512C23.5653 13.0405 24.9465 13.892 25.9877 14.402C27.0588 14.9219 27.4186 15.2562 27.4129 15.7209C27.4058 16.4349 26.5601 16.748 25.7696 16.7607C24.3883 16.782 23.5879 16.3881 22.9476 16.0906L22.4503 18.4168C23.0921 18.7115 24.2764 18.9693 25.5047 18.9806C28.3904 18.9806 30.2788 17.5555 30.2887 15.3483ZM37.4585 18.8149H40L37.7829 8.1955H35.4369C35.1863 8.1932 34.9407 8.2663 34.732 8.4052C34.5234 8.5441 34.3613 8.7425 34.2667 8.9747L30.1457 18.8149H33.03L33.6038 17.2282H37.1284L37.4585 18.8149ZM34.3942 15.0522L35.8392 11.0643L36.6722 15.0522H34.3942ZM22.8342 8.1955L20.5633 18.8149H17.815L20.0887 8.1955H22.8342Z" fill="black"/>
<rect x="55.5" y="0.5" width="46" height="26" rx="3.5" stroke="black" stroke-opacity="0.1"/>
<path d="M78.3967 19.3273C78.4498 19.3722 78.5067 19.4171 78.5626 19.4611C77.4474 20.2033 76.1373 20.5982 74.7978 20.596C73.7371 20.596 72.691 20.3477 71.7434 19.8711C70.7958 19.3944 69.9728 18.7027 69.3404 17.8511C68.7079 16.9995 68.2835 16.0117 68.1012 14.9667C67.9188 13.9217 67.9835 12.8486 68.2901 11.8331C68.5967 10.8176 69.1367 9.88801 69.8668 9.11851C70.597 8.34911 71.4971 7.76121 72.4952 7.40191C73.4932 7.04261 74.5615 6.92181 75.6146 7.04921C76.6677 7.17661 77.6763 7.54871 78.5598 8.13571C78.5048 8.18251 78.4498 8.22561 78.4086 8.27321C77.6145 8.95841 76.9774 9.80661 76.5407 10.7601C76.1039 11.7136 75.8778 12.7501 75.8777 13.7989C75.8779 14.8469 76.1029 15.8827 76.5374 16.8364C76.972 17.7901 77.606 18.6395 78.3967 19.3273ZM83.2009 7.00091C81.8076 7.00091 80.5142 7.41891 79.438 8.13571C79.493 8.18251 79.548 8.22561 79.5892 8.27321C80.3833 8.95841 81.0204 9.80661 81.4572 10.7601C81.8939 11.7136 82.12 12.7501 82.1202 13.7989C82.1196 14.8468 81.8944 15.8825 81.4599 16.8361C81.0254 17.7898 80.3916 18.6392 79.6012 19.3273C79.548 19.3722 79.4912 19.4171 79.4352 19.4611C80.5503 20.2035 81.8604 20.5985 83.2 20.596C84.0928 20.5963 84.9769 20.4208 85.8018 20.0793C86.6268 19.7379 87.3763 19.2373 88.0077 18.6061C88.6391 17.9749 89.1399 17.2254 89.4816 16.4006C89.8232 15.5758 89.999 14.6917 89.9989 13.7989C89.9987 11.996 89.2824 10.2671 88.0076 8.99221C86.7327 7.71741 85.0038 7.00111 83.2009 7.00091ZM78.9989 8.45841C78.1891 9.09301 77.5345 9.90371 77.0849 10.8291C76.6352 11.7544 76.4023 12.7701 76.4038 13.7989C76.402 14.8279 76.6348 15.8438 77.0845 16.7693C77.5342 17.6948 78.1889 18.5057 78.9989 19.1403C79.8087 18.5055 80.4633 17.6946 80.913 16.7691C81.3626 15.8436 81.5955 14.8278 81.594 13.7989C81.5955 12.7701 81.3626 11.7544 80.9129 10.8291C80.4633 9.90371 79.8087 9.09301 78.9989 8.45841Z" fill="black"/>
<rect x="110.5" y="0.5" width="46" height="26" rx="3.5" stroke="black" stroke-opacity="0.1"/>
<path d="M122.614 7.00036C121.573 7.00046 120.553 7.28986 119.667 7.83616C118.782 8.38256 118.065 9.16436 117.598 10.0944C117.205 10.8766 117 11.74 117 12.6154C117 13.4908 117.205 14.3541 117.598 15.1363C118.065 16.0664 118.782 16.8482 119.667 17.3946C120.553 17.9409 121.573 18.2303 122.614 18.2303C124.13 18.2303 125.405 17.7317 126.336 16.8746C127.395 15.8971 128.007 14.4521 128.007 12.7436C128.007 12.3608 127.974 11.9788 127.908 11.6018H122.616V13.7636H125.647C125.586 14.1089 125.455 14.4382 125.262 14.7316C125.07 15.025 124.82 15.2764 124.528 15.4707C124.024 15.8121 123.375 16.0076 122.616 16.0076C121.151 16.0076 119.908 15.0202 119.464 13.6899C119.229 12.9928 119.229 12.2379 119.464 11.5408C119.908 10.2092 121.151 9.22316 122.616 9.22316C123.416 9.21006 124.19 9.51226 124.769 10.0647L126.373 8.46376C125.357 7.50876 124.009 6.98426 122.614 7.00036ZM131.824 7.77956V17.5546H133.079V13.595H135.155C136.009 13.595 136.727 13.3173 137.311 12.762C137.601 12.5016 137.832 12.1814 137.987 11.8234C138.143 11.4654 138.219 11.0781 138.21 10.688C138.216 10.2999 138.139 9.91506 137.984 9.55926C137.829 9.20346 137.599 8.88506 137.311 8.62526C137.025 8.34866 136.687 8.13146 136.317 7.98606C135.947 7.84056 135.552 7.76996 135.155 7.77816L131.824 7.77956ZM135.262 8.98376C135.481 8.98756 135.697 9.03526 135.898 9.12406C136.098 9.21296 136.278 9.34106 136.428 9.50076C136.588 9.65606 136.715 9.84176 136.801 10.0469C136.888 10.252 136.933 10.4724 136.933 10.6951C136.933 10.9178 136.888 11.1382 136.801 11.3433C136.715 11.5484 136.588 11.7341 136.428 11.8893C136.268 12.0555 136.074 12.1863 135.86 12.2734C135.646 12.3605 135.417 12.4019 135.186 12.3951H133.079V8.98376H135.186C135.211 8.98316 135.237 8.98316 135.262 8.98376ZM141.105 10.6483C139.912 10.6483 139.012 11.0847 138.403 11.9588L139.509 12.6543C139.917 12.0636 140.473 11.7675 141.174 11.7675C141.621 11.762 142.054 11.9254 142.387 12.2251C142.55 12.3603 142.682 12.5303 142.771 12.7227C142.861 12.915 142.907 13.1249 142.905 13.3372V13.6233C142.423 13.3499 141.809 13.2139 141.063 13.2139C140.189 13.2139 139.491 13.4193 138.968 13.8288C138.444 14.2368 138.183 14.7878 138.183 15.4792C138.178 15.7903 138.242 16.0988 138.37 16.3821C138.499 16.6654 138.689 16.9164 138.927 17.1168C139.423 17.5532 140.039 17.7728 140.776 17.7728C141.64 17.7728 142.331 17.3903 142.851 16.6253H142.905V17.5532H144.106V13.4321C144.106 12.5679 143.837 11.8879 143.302 11.3921C142.763 10.8963 142.032 10.6483 141.105 10.6483ZM144.31 10.8665L147.067 17.131L145.512 20.5027H146.808L151 10.8651H149.633L147.695 15.669H147.667L145.675 10.8665H144.31ZM141.27 14.2212C141.97 14.2212 142.517 14.377 142.908 14.6887C142.908 15.2157 142.7 15.6747 142.285 16.0671C141.91 16.4418 141.402 16.6527 140.872 16.6536C140.518 16.6603 140.173 16.5442 139.895 16.3249C139.765 16.2313 139.66 16.1082 139.588 15.9658C139.516 15.8234 139.479 15.6658 139.48 15.5061C139.48 15.142 139.65 14.8403 139.994 14.5895C140.334 14.3444 140.76 14.2212 141.27 14.2212Z" fill="black"/>
<rect x="165.5" y="0.5" width="46" height="26" rx="3.5" stroke="black" stroke-opacity="0.1"/>
<path d="M177.848 8.5844C177.473 9.0016 176.873 9.3297 176.273 9.2828C176.198 8.7203 176.493 8.1203 176.838 7.7547C177.213 7.3281 177.868 7.0235 178.403 7C178.463 7.5813 178.218 8.1578 177.848 8.5844ZM178.393 9.3906C177.523 9.3438 176.778 9.8547 176.368 9.8547C175.948 9.8547 175.318 9.4141 174.628 9.4281C173.733 9.4422 172.903 9.9156 172.448 10.6703C171.508 12.1844 172.203 14.4203 173.113 15.6531C173.558 16.2625 174.088 16.9328 174.788 16.9094C175.453 16.886 175.713 16.5063 176.513 16.5063C177.318 16.5063 177.553 16.9094 178.253 16.9C178.978 16.886 179.433 16.2906 179.878 15.6813C180.383 14.9875 180.593 14.3172 180.603 14.2797C180.588 14.2656 179.203 13.7688 179.188 12.2688C179.173 11.0125 180.283 10.4172 180.333 10.3797C179.708 9.5078 178.733 9.4141 178.393 9.3906ZM183.413 7.6938V16.8297H184.928V13.7078H187.023C188.938 13.7078 190.278 12.475 190.278 10.6938C190.278 8.9125 188.958 7.6938 187.073 7.6938H183.413ZM184.928 8.8891H186.673C187.988 8.8891 188.738 9.5453 188.738 10.6985C188.738 11.8516 187.988 12.5172 186.668 12.5172H184.928V8.8891ZM193.038 16.9C193.988 16.9 194.868 16.45 195.268 15.7328H195.298V16.8297H196.698V12.2828C196.698 10.9656 195.573 10.1125 193.843 10.1125C192.238 10.1125 191.048 10.975 191.003 12.1563H192.368C192.483 11.5938 193.038 11.2235 193.798 11.2235C194.723 11.2235 195.243 11.6266 195.243 12.3719V12.8781L193.353 12.986C191.598 13.0844 190.648 13.7594 190.648 14.9313C190.653 16.1125 191.633 16.9 193.038 16.9ZM193.448 15.8172C192.643 15.8172 192.128 15.4516 192.128 14.8985C192.128 14.3219 192.623 13.9891 193.568 13.9375L195.248 13.8391V14.3547C195.248 15.2078 194.473 15.8172 193.448 15.8172ZM198.573 19.3141C200.048 19.3141 200.743 18.7844 201.348 17.186L204.003 10.2016H202.463L200.683 15.5969H200.653L198.873 10.2016H197.293L199.853 16.8531L199.713 17.2563C199.483 17.9406 199.108 18.2078 198.438 18.2078C198.318 18.2078 198.088 18.1938 197.993 18.1844V19.2813C198.083 19.3 198.458 19.3141 198.573 19.3141Z" fill="black"/>
<rect x="220.5" y="0.5" width="46" height="26" rx="3.5" stroke="black" stroke-opacity="0.1"/>
<mask id="mask0_10_462" style="mask-type:luminance" maskUnits="userSpaceOnUse" x="236" y="6" width="15" height="15">
<path d="M251 6H236V21H251V6Z" fill="white"/>
</mask>
<g mask="url(#mask0_10_462)">
<path d="M249.181 9.4809C249.294 8.4769 249.094 7.7634 248.523 7.1128C247.839 6.33375 246.605 6 245.025 6H240.438C240.282 6.00007 240.131 6.05579 240.012 6.15717C239.894 6.25855 239.815 6.39894 239.791 6.55312L237.88 18.6647C237.871 18.7209 237.874 18.7785 237.89 18.8333C237.905 18.8881 237.932 18.9389 237.969 18.9823C238.006 19.0256 238.052 19.0603 238.104 19.0842C238.156 19.108 238.212 19.1203 238.269 19.1203H240.853L240.663 20.3203C240.65 20.4043 240.655 20.4902 240.678 20.5721C240.701 20.654 240.742 20.7298 240.797 20.7945C240.852 20.8592 240.921 20.9112 240.998 20.9468C241.075 20.9824 241.16 21.0009 241.245 21.0009H243.631C244.034 21.0009 244.375 20.7103 244.44 20.3156L244.463 20.1938L244.913 17.3409L244.941 17.1872L244.942 17.1806C244.954 17.1029 244.994 17.032 245.054 16.9809C245.113 16.9299 245.19 16.9019 245.268 16.9022H245.625C246.811 16.9022 247.898 16.6622 248.761 16.0491C249.116 15.7959 249.428 15.4837 249.691 15.1069C250.129 14.4978 250.412 13.7917 250.516 13.0491C250.743 11.8809 250.638 10.8403 249.982 10.0922C249.78 9.8664 249.538 9.6791 249.27 9.5391L249.181 9.4809ZM242.134 14.2687C242.227 14.2202 242.33 14.1948 242.435 14.1947H243.781C246.425 14.1947 248.494 13.1222 249.099 10.0172L249.102 10.0022C249.305 10.1184 249.477 10.2553 249.616 10.4128C250.127 10.9969 250.252 11.8519 250.037 12.9534C249.782 14.2631 249.226 15.1163 248.478 15.6478C247.726 16.1822 246.751 16.4119 245.626 16.4119H245.269C245.075 16.4116 244.886 16.4808 244.738 16.6069C244.59 16.733 244.491 16.9078 244.46 17.1L244.432 17.2537L243.982 20.1066L243.96 20.2284L243.959 20.2322C243.946 20.3097 243.906 20.3802 243.847 20.4311C243.787 20.4819 243.711 20.5098 243.632 20.5097H241.246C241.231 20.5097 241.217 20.5066 241.204 20.5006C241.191 20.4946 241.179 20.4858 241.17 20.4748C241.16 20.4639 241.153 20.451 241.149 20.4371C241.146 20.4232 241.145 20.4086 241.147 20.3944L241.342 19.1569L242.134 14.2687Z" fill="black"/>
</g>
</svg>
