<svg xmlns="http://www.w3.org/2000/svg" id="Layer_1" data-name="Layer 1" viewBox="0 0 400.47 143.2"><defs><style>.cls-1{fill-rule:evenodd}.cls-1,.cls-2{fill:#d30001}.cls-1,.cls-2,.cls-3{stroke-width:0}.cls-3{fill:#f9f9f9}</style></defs><path d="m115.75 1.75 1.2-.15c3.33-.4 6.6-.61 9.72-.61h.72l2.66 8.1h-2.38c-3.22 0-6.03.13-8.6.39l-.81.08-2.52-7.83Z" class="cls-2"/><path d="m126.67 2 2 6.1h-1c-2.9 0-5.8.1-8.7.4l-1.9-5.9c3.3-.4 6.5-.6 9.6-.6m1.45-2h-1.45c-3.17 0-6.48.21-9.84.61l-2.41.29.74 2.31 1.9 5.9.5 1.54 1.61-.17c2.53-.26 5.31-.39 8.49-.39h3.76l-.86-2.62-2-6.1-.45-1.38Z" class="cls-3"/><path d="M173.8 19.03c-3.36-1.37-6.51-2.54-9.64-3.58l-.73-.24.52-8.61 1.2.34c6.19 1.77 8.87 3.01 9.91 3.59l.55.31-.52 8.72-1.29-.52Z" class="cls-2"/><path d="M164.87 7.9c6.3 1.8 8.8 3 9.7 3.5l-.4 6.7c-3.2-1.3-6.4-2.5-9.7-3.6l.4-6.6m-1.84-2.61-.15 2.49-.4 6.6-.09 1.53 1.46.49c3.1 1.03 6.24 2.2 9.58 3.56l2.58 1.05.17-2.78.4-6.7.07-1.26-1.1-.61c-1.32-.74-4.15-1.97-10.12-3.67l-2.4-.68Z" class="cls-3"/><path d="m8.47 142.2.11-1.1c.03-.3 3.26-30.23 24.14-65.01 21.21-35.37 56.85-61.92 86.66-64.59 3.02-.3 6.12-.46 9.22-.46 53.91 0 101 46.38 101.47 46.84l.84.84-.97.69s-1.69 1.2-3.44 2.65l-.6.5-.63-.47c-23.34-17.26-45.63-26.01-66.26-26.01-16.51 0-27.78 5.58-33.83 8.58l-1.28.63c-25.39 14.17-33.4 39.38-35.64 58.02-2.44 20.32 1.24 37.49 1.28 37.66l.27 1.21H8.47Z" class="cls-2"/><path d="M128.61 12.05c54.12 0 100.76 46.55 100.76 46.55s-1.7 1.2-3.5 2.7c-27.55-20.37-49.9-26.2-66.86-26.2s-28.23 5.69-34.27 8.68l-1.27.62c-50 27.9-34.9 96.8-34.9 96.8h-79s3-29.6 24-64.6c21-35 56.8-61.5 85.9-64.1 3.06-.31 6.11-.45 9.14-.45m0-2c-3.13 0-6.27.16-9.34.46-14.45 1.29-31.15 8.5-46.98 20.29-15.81 11.77-30.17 27.67-40.43 44.78C10.87 110.55 7.71 139.77 7.58 141l-.22 2.2h83.7l-.53-2.43c-.04-.17-3.68-17.23-1.25-37.39 1.42-11.75 4.59-22.25 9.44-31.2 6.02-11.1 14.66-19.85 25.68-26.02.36-.17.74-.36 1.15-.56l.08-.04c5.98-2.96 17.11-8.47 33.39-8.47 20.41 0 42.51 8.68 65.67 25.81l1.26.93 1.21-1.01c1.71-1.43 3.36-2.59 3.37-2.6l1.94-1.37-1.68-1.68c-.48-.48-12.03-11.93-30.43-23.55-17.03-10.76-43.31-23.59-71.75-23.59Z" class="cls-3"/><path d="M173.97 47.78c-3.23-.68-6.5-1.08-9.72-1.18l-1.03-.03.53-8.33 1 .06c3.51.22 6.8.65 10.04 1.32l.85.18-.53 8.22-1.13-.24Z" class="cls-2"/><path d="M164.67 39.3c3.2.2 6.5.6 9.9 1.3l-.4 6.2c-3.3-.7-6.6-1.1-9.9-1.2l.4-6.3m-1.87-2.12-.13 1.99-.4 6.3-.13 2.06 2.07.06c3.17.1 6.38.49 9.55 1.16l2.26.48.15-2.31.4-6.2.11-1.74-1.7-.35c-3.29-.68-6.62-1.11-10.18-1.34l-1.99-.12Z" class="cls-3"/><path d="m131.24 44.35.83-.37a72.38 72.38 0 0 1 8.92-3.24l.93-.27 2.83 8.48-.98.3c-2.69.83-5.49 1.96-8.56 3.45l-1.02.49-2.95-8.84Z" class="cls-2"/><path d="m141.27 41.7 2.2 6.6c-2.9.9-5.8 2.1-8.7 3.5l-2.3-6.9c2.5-1.1 5.4-2.2 8.8-3.2m1.29-2.46-1.85.54c-3.18.94-6.14 2.01-9.04 3.29l-1.67.73.58 1.73 2.3 6.9.72 2.16 2.05-.99c3.03-1.46 5.79-2.57 8.42-3.39l1.95-.61-.65-1.94-2.2-6.6-.61-1.83Z" class="cls-3"/><path d="m73.36 15.67.9-.53c2.34-1.39 4.76-2.72 7.85-4.33l.8-.42 5.61 8.6-1 .5c-2.67 1.33-5.23 2.88-7.62 4.36l-.83.51-5.71-8.69Z" class="cls-2"/><path d="m82.57 11.7 4.5 6.9c-2.6 1.3-5.1 2.8-7.7 4.4l-4.6-7c2.7-1.6 5.3-3 7.8-4.3m.69-2.61-1.61.84c-3.1 1.61-5.54 2.96-7.9 4.35l-1.8 1.07 1.15 1.75 4.6 7 1.07 1.62 1.65-1.02c2.37-1.46 4.91-3 7.55-4.31l2.01-1-1.23-1.88-4.5-6.9-.99-1.52Z" class="cls-3"/><path d="m106.34 63.55.45-.57c1.92-2.46 4.05-4.75 6.31-6.82l.86-.79 5.59 8.44-.55.58c-2.52 2.64-4.31 4.79-5.8 6.97l-.83 1.23-6.02-9.04Z" class="cls-2"/><path d="m113.77 56.9 4.5 6.8c-2.2 2.3-4.2 4.6-5.9 7.1l-4.8-7.2c1.8-2.3 3.9-4.6 6.2-6.7m.38-3.05-1.73 1.58c-2.31 2.1-4.47 4.44-6.43 6.94l-.89 1.14.8 1.2 4.8 7.2 1.65 2.47 1.67-2.46c1.45-2.13 3.21-4.24 5.69-6.84l1.1-1.15-.88-1.33-4.5-6.8-1.29-1.95Z" class="cls-3"/><path d="m91.96 96.2.14-.61c.78-3.51 1.69-7.28 3.03-11.11l.46-1.32 8.81 6.97-.16.63c-.98 3.84-1.68 7.72-2.07 11.55l-.19 1.81-10.02-7.92Z" class="cls-2"/><path d="m96.07 84.8 7.2 5.7c-1 3.9-1.7 7.8-2.1 11.7l-8.1-6.4c.8-3.6 1.7-7.3 3-11m-.95-3.31-.93 2.65c-1.36 3.88-2.28 7.69-3.07 11.23l-.27 1.23.98.78 8.1 6.4 2.86 2.26.37-3.62a78.82 78.82 0 0 1 2.05-11.41l.32-1.26-1.02-.81-7.2-5.7-2.2-1.74Z" class="cls-3"/><path d="m33.34 49.69.7-.76c2.08-2.26 4.51-4.73 7.44-7.54l.66-.64 8.58 7.49-.73.76c-2.27 2.36-4.53 4.99-6.73 7.82l-.64.83-9.28-7.96Z" class="cls-2"/><path d="m42.17 42.1 7.1 6.2c-2.4 2.5-4.7 5.2-6.8 7.9l-7.7-6.6c2.3-2.5 4.8-5 7.4-7.5m-.06-2.71-1.32 1.27c-2.95 2.83-5.39 5.31-7.49 7.59l-1.4 1.52 1.57 1.35 7.7 6.6 1.59 1.37 1.29-1.66c2.18-2.8 4.42-5.41 6.66-7.74l1.45-1.51-1.58-1.38-7.1-6.2-1.38-1.21Z" class="cls-3"/><path d="m1.29 101.39.35-.94c.94-2.54 2.96-7.39 5.02-12.06l.38-.86 13.37 4.88-.42.97c-1.65 3.82-3.71 8.64-4.98 11.96l-.35.92-13.37-4.88Z" class="cls-2"/><path d="m7.57 88.8 11.5 4.2c-1.6 3.7-3.7 8.6-5 12l-11.5-4.2c1-2.7 3.1-7.7 5-12M6.5 86.28l-.76 1.71c-1.72 3.9-3.95 9.15-5.05 12.11l-.7 1.88 1.89.69 11.5 4.2 1.85.68.7-1.84c1.27-3.31 3.32-8.11 4.97-11.92l.84-1.95-1.99-.73-11.5-4.2-1.76-.64Z" class="cls-3"/><path d="m91.88 134.54-.1-.58c-.43-2.59-.99-6.9-1.21-12.73l-.06-1.48 12.77 4.61.08.61c.5 3.94 1.26 8.04 2.38 12.9l.41 1.78-14.28-5.12Z" class="cls-2"/><path d="m91.57 121.2 10.8 3.9c.6 4.7 1.5 9.1 2.4 13l-12-4.3c-.5-3-1-7.3-1.2-12.6m-2.11-2.89.11 2.96c.22 5.87.79 10.23 1.23 12.85l.19 1.16 1.11.4 12 4.3 3.45 1.24-.82-3.57c-1.12-4.83-1.87-8.9-2.36-12.8l-.15-1.21-1.15-.42-10.8-3.9-2.79-1.01Z" class="cls-3"/><path d="m165.45 142.2-15.17-15.72v15.72h-21.2V68.9h39.2c.32.03 22.2 2.46 22.2 25.7 0 18.66-11.74 23.52-16.47 24.72l22.67 22.88h-31.22Zm-1.09-39.1c.7-.35 3.61-2.1 3.61-7.2s-2.82-6.76-3.51-7.1h-14.19v14.3h14.09Z" class="cls-1"/><path d="M168.27 69.9s21.2 2.1 21.2 24.7-17.5 24.1-17.5 24.1l22.3 22.5h-28.4l-16.6-17.2v17.2h-19.2V69.9h38.2m-19 34.2h15.3s4.4-1.7 4.4-8.2-4.3-8.1-4.3-8.1h-15.4v16.3m19.1-36.2h-40.3v75.3h23.2v-14.25l13.16 13.64.59.61h34.05l-3.38-3.41-19.81-19.99c5.62-1.91 15.59-7.76 15.59-25.2 0-12.59-6.27-19.19-11.53-22.52-5.64-3.56-11.24-4.15-11.47-4.17h-.1Zm-17.1 21.9h12.94c.71.42 2.76 1.98 2.76 6.1s-2.1 5.74-2.87 6.2h-12.83V89.8Z" class="cls-3"/><path d="M235.57 142.2v-12.5h-16.3v12.5h-21.5V89c0-6.14 4.94-19.6 19.6-19.6h19.5c5.08 0 19.6 3.6 19.6 19.6v53.2h-20.9Zm-.1-34.7V91.2c-.01-.26-.27-2.9-4.5-2.9h-6.7c-5.04 0-5.1 2.87-5.1 2.9v16.3h16.3Z" class="cls-1"/><path d="M236.87 70.4c4.8 0 18.6 3.4 18.6 18.6v52.2h-18.9v-12.5h-18.3v12.5h-19.5V89c0-6 4.7-18.6 18.6-18.6h19.5m-18.7 38.1h18.3V91.2s-.1-3.9-5.5-3.9h-6.7c-6.1 0-6.1 3.9-6.1 3.9v17.3m18.7-40.1h-19.5c-15.41 0-20.6 14.15-20.6 20.6v54.2h23.5v-12.5h14.3v12.5h22.9V89c0-16.82-15.26-20.6-20.6-20.6Zm-16.7 22.85c.08-.9 1.2-1.95 4.1-1.95h6.7c3.04 0 3.45 1.47 3.5 1.97v15.23h-14.3V91.25Zm14.31.08v-.04.05Z" class="cls-3"/><path d="M263.37 69.4h22.3v72.8h-22.3z" class="cls-2"/><path d="M284.67 70.4v70.8h-20.3V70.4h20.3m2-2h-24.3v74.8h24.3V68.4Z" class="cls-3"/><path d="M291.97 142.2V69.4h22.2v52.5h27.3v20.3h-49.5z" class="cls-2"/><path d="M313.17 70.4v52.5h27.3v18.3h-47.5V70.4h20.2m2-2h-24.2v74.8h51.5v-22.3h-27.3V68.4Z" class="cls-3"/><path d="M346.17 142.2v-20.1l33.1-.1v-6.8h-5.32v.04l-9.08-.04c-7.94 0-19.7-6.23-19.7-19.6v-6.3c0-7.45 3.64-12.17 6.7-14.82 3.67-3.18 8.53-5.08 13-5.08h32v20.2h-32.3V96h15.3c9.63 0 19.6 7.33 19.6 19.6v7c-.42 14.29-12.24 19.6-19.6 19.6h-33.7Z" class="cls-2"/><path d="M395.87 70.4v18.2h-32.3V97h16.3c9 0 18.6 6.9 18.6 18.6v7c-.4 13.7-11.9 18.6-18.6 18.6h-32.7v-18.1l33.1-.1v-8.8c-12.25 0-7.61.03-6.32.04-.77 0-3.21-.02-9.08-.04-8.1 0-18.7-6.3-18.7-18.6v-6.3c0-12.3 10.7-18.9 18.7-18.9h31m2-2h-33c-8.68 0-20.7 7.26-20.7 20.9v6.3c0 12.72 10.74 20.6 20.7 20.6 5.58.02 8.06.04 8.95.04h.12v-.04h4.33v4.81l-31.11.09h-1.99v22.1h34.7c7.73 0 20.16-5.58 20.6-20.54v-7.06c0-5.94-2.34-11.33-6.58-15.17-3.82-3.45-8.92-5.43-14.02-5.43h-14.3v-4.4h32.3V68.4Z" class="cls-3"/></svg>