<svg viewBox="0 0 1701.92 300" version="1.1" xmlns="http://www.w3.org/2000/svg" id="Layer_1">
  
  <defs>
    <style>
      .st0 {
        fill: #fff;
        fill-rule: evenodd;
      }
    </style>
  </defs>
  <path d="M309.79,156.54v-19.98c0-10.92-3.46-15.45-8.79-15.45-7.46,0-11.99,9.33-13.06,35.7h21.85s0-.27,0-.27ZM411.58,148.54c0-9.33-5.6-12.26-11.72-12.26-4.26,0-9.33,2.13-11.19,3.46v65.28c0,7.99,2.93,10.13,9.59,11.46v2.13h-54.09v-2.13c3.73-.8,8.79-3.46,8.79-11.99v-72.48c0-8.79-2.4-10.92-8.79-12.26v-2.13h45.83l-1.07,19.98c6.39-11.72,17.32-21.85,32.51-21.85,13.32,0,26.91,6.39,26.91,29.04v59.69c0,6.39,1.07,10.66,7.46,11.99v2.13h-51.16v-2.13c4.8-1.07,7.73-4.53,7.73-11.99v-55.96h-.8ZM465.93,131.76c0-6.39-1.87-10.92-8.26-12.26v-2.13h44.23v86.86c0,6.39,2.4,11.19,8.79,11.99v2.13h-53.82v-2.13c6.39-.8,8.79-5.6,8.79-11.99v-72.48h.27,0ZM502.97,91.79c0,10.66-8.79,19.18-19.45,19.18s-19.18-8.53-19.18-19.18,8.79-18.92,19.18-18.92,19.45,8.26,19.45,18.92h0ZM579.44,148.54c0-9.33-5.6-12.26-11.72-12.26-4.26,0-9.33,2.13-11.19,3.46v65.28c0,7.99,2.66,10.13,9.59,11.46v2.13h-53.02v-2.13c3.46-.8,7.46-3.46,7.46-11.99v-72.48c0-8.79-2.4-10.92-8.79-12.26v-2.13h45.83l-1.07,19.98c6.39-11.72,17.32-21.85,32.51-21.85,13.32,0,26.91,6.39,26.91,29.04v59.69c0,6.39,1.07,10.66,7.46,11.99v2.13h-51.16v-2.13c4.8-1.07,7.73-4.53,7.73-11.99v-55.96h-.53ZM679.63,148.01c0-19.18-2.13-27.44-8.79-27.44s-9.59,8.53-9.59,27.44v3.2c0,19.18,2.66,27.44,9.59,27.44,6.39,0,8.79-8.53,8.79-27.44v-3.2ZM1033.48,200.77c-3.46,8.79-14.65,18.92-32.51,18.92s-23.71-11.99-23.71-23.71v-72.21h-8.79v-2.4c13.32-2.13,32.24-13.32,42.63-24.51h2.13v20.78h19.72v6.39h-19.72v69.28c0,6.66,3.2,10.66,9.59,10.66,4.26,0,7.73-2.13,9.06-4l1.6.8h0ZM1200.55,148.54c0-9.33-5.6-12.26-11.72-12.26-4.26,0-9.33,2.13-11.19,3.46v65.28c0,7.99,2.66,10.13,9.59,11.46v2.13h-53.56v-2.13c3.73-.8,7.99-3.46,7.99-11.99v-72.48c0-8.79-2.4-10.92-8.79-12.26v-2.13h45.83l-1.07,19.98c6.39-11.72,17.32-21.85,32.51-21.85,13.32,0,26.91,6.39,26.91,29.04v59.69c0,6.39,1.07,10.66,7.46,11.99v2.13h-51.69v-2.13c4.8-1.07,7.73-4.53,7.73-11.99v-55.96h0ZM1310.06,193.31c0,8.53-7.46,12.52-12.26,12.52-10.13,0-15.19-7.19-15.19-18.65v-49.83c0-10.92,7.19-15.45,14.65-15.45,6.39,0,13.06,4.8,13.06,13.86v57.55h-.27,0ZM67.85,97.12c0-8.26-3.2-15.19-16.25-16.25v-3.46h111.64v36.24h-3.73c-12.52-20.52-16.52-30.38-29.58-30.38h-21.05v62.08h8.79c14.12,0,18.65-6.13,25.58-23.18h3.2v51.96h-3.2c-7.19-17.05-11.46-23.18-25.58-23.18h-8.79v50.89c0,7.19,2.66,10.92,13.32,10.92h5.86c20.52,0,26.38-13.59,39.7-35.97h3.46l-4,42.1H51.6v-3.46c13.06-1.07,16.25-7.99,16.25-16.25,0,0,0-102.05,0-102.05ZM1355.62,218.62v-2.13c-8.53-1.33-9.59-5.6-9.59-11.99v-126.83h-46.9v2.66c9.59,1.07,10.92,1.6,10.92,6.93v36.24c-3.46-4.26-11.72-7.73-22.12-7.73-21.58,0-44.23,17.05-44.23,54.36,0,34.64,15.19,51.16,37.04,51.16,16.52,0,25.85-10.13,29.04-17.05v14.65h45.83v-.27h0ZM1605.02,193.31c0,8.79-7.46,12.52-12.52,12.52-10.13,0-15.19-7.19-15.19-18.65v-49.83c0-10.92,7.19-15.45,14.65-15.45,6.39,0,13.06,4.8,13.06,13.86v57.55h0ZM1650.32,218.62v-2.13c-8.53-1.33-9.33-5.6-9.33-11.99v-126.83h-46.9v2.66c9.59,1.07,10.92,1.6,10.92,6.93v36.24c-3.46-4.26-11.72-7.73-22.12-7.73-21.58,0-44.23,17.05-44.23,54.36,0,34.64,15.19,51.16,37.04,51.16,16.52,0,25.85-10.13,29.04-17.05v14.65h45.56v-.27h0ZM1408.38,203.7v-46.63c-1.87,10.39-17.05,12.79-17.05,30.91v.8c0,8.79,6.13,15.45,13.86,15.45.8-.27,1.87-.53,3.2-.53h0ZM1499.24,146.41v54.36c0,9.59,2.66,13.59,11.19,15.45v2.13h-55.42v-2.13c3.46-.8,7.99-3.2,7.99-11.99v-72.48c0-6.39-2.4-10.92-8.79-12.26v-2.13h45.56c-.53,9.59-.53,15.99-.53,29.04h0ZM1541.34,134.42c0,10.66-8.79,19.18-19.45,19.18s-19.18-8.53-19.18-19.18,8.53-18.92,19.18-18.92,19.45,8.53,19.45,18.92h0ZM1086.77,203.7v-46.63c-1.87,10.39-17.05,12.79-17.05,30.91v.8c0,8.79,6.13,15.45,13.86,15.45.8-.27,1.87-.53,3.2-.53h0ZM625.54,149.34c0-20.78,19.98-33.84,45.3-33.84,7.99,0,15.45,1.33,22.12,3.73,2.66.27,5.33.27,7.99.27,9.86,0,18.92-1.87,27.71-5.86v17.05h-1.07c-5.06-.53-18.92-5.06-28.51-8.79,10.13,6.13,17.05,15.45,17.05,27.44,0,21.32-19.98,34.37-45.03,34.37-23.45.27-45.56-10.92-45.56-34.37h0ZM647.39,179.18c-1.87,1.6-3.2,3.73-3.2,6.39,0,3.2,1.87,6.13,9.06,6.13l38.64.53c25.31.27,33.04,14.39,33.04,26.11,0,30.91-35.44,43.43-61.02,43.43-32.24,0-43.7-9.59-43.7-21.05,0-6.93,6.93-13.86,21.05-13.86,1.87,0,3.73.27,5.86.53l.27.53c-3.46,2.66-5.6,6.93-5.6,11.19,0,8.26,7.73,16.79,28.78,16.79s33.84-8.53,33.84-17.85c0-7.99-5.6-11.19-19.98-11.72l-29.04-1.33c-21.32-1.07-29.31-11.19-29.31-22.92,0-8.26,6.93-19.18,19.18-23.18l2.13.27h0ZM893.59,154.14c-11.19-7.99-20.52-19.18-20.52-34.37,0-25.85,22.92-44.23,55.96-44.23,14.39,0,27.98,3.46,37.04,6.66l-1.07,33.31h-4c-10.13-21.85-17.05-33.84-31.97-33.84-11.46,0-19.98,7.73-19.98,19.98,0,8.26,5.6,15.19,13.32,20.78l21.05,15.45c16.25,11.72,26.11,20.78,26.11,37.3,0,28.51-27.71,45.3-55.69,45.3-17.85,0-34.37-5.06-42.37-9.59l-1.6-37.57h4c12.26,26.11,22.65,41.03,39.17,41.03,10.92,0,19.72-6.93,19.72-19.98,0-10.13-7.73-17.05-17.85-24.51l-21.32-15.72h0ZM343.36,185.85c-5.33,18.65-19.98,34.91-46.63,34.91-30.38,0-46.9-22.38-46.9-47.96,0-32.51,19.72-57.02,51.96-57.02,23.71,0,41.3,14.65,41.3,43.43v4h-55.16c0,26.11,12.52,36.24,26.65,36.24,9.59,0,19.18-3.46,26.65-14.12l2.13.53h0ZM1136.86,208.23c-6.66,7.19-17.05,12.52-29.84,12.52s-18.92-5.6-20.25-14.12c-5.06,7.99-13.32,13.86-25.85,13.86-15.72,0-26.91-10.66-26.91-25.58,0-17.85,12.26-24.51,31.71-29.58,15.72-4,21.58-9.59,21.58-21.58v-.8c0-12.26-10.13-20.52-22.38-20.52-3.2,0-6.13.53-9.33,1.33,9.06.8,16.52,8.26,16.52,17.32,0,9.86-7.99,17.59-18.12,17.59-9.59,0-16.79-7.46-16.79-17.05,0-16.25,22.38-26.38,46.9-26.38s38.9,9.59,38.9,26.91c0,.27,0,23.18-.53,58.62,0,4.26,1.87,7.46,6.39,7.46,1.87,0,4.26-.53,6.66-1.87l1.33,1.87h0ZM1458.47,208.23c-6.66,7.19-17.05,12.52-29.84,12.52s-18.92-5.6-20.25-14.12c-5.06,7.99-13.32,13.86-25.85,13.86-15.72,0-26.91-10.66-26.91-25.58,0-17.85,12.26-24.51,31.71-29.58,15.72-4,21.58-9.59,21.58-21.58v-.8c0-12.26-10.13-20.52-22.38-20.52-3.2,0-6.13.53-9.33,1.33,9.06.8,16.52,8.26,16.52,17.32,0,9.86-7.99,17.59-18.12,17.59-9.33,0-16.79-7.46-16.79-17.05,0-16.25,22.38-26.38,46.9-26.38s38.9,9.59,38.9,26.91c0,.27,0,23.18-.27,58.62,0,4.26,1.87,7.46,6.39,7.46,1.87,0,4-.53,6.66-1.87l1.07,1.87h0ZM223.46,218.62h-29.31l-27.44-84.47c-2.93-8.79-6.39-13.06-10.39-14.39v-2.13h61.55v2.13c-10.66,1.87-14.65,5.86-11.72,15.45l18.65,61.82,15.45-55.42c1.33-5.06,2.13-9.06,2.13-12.79,0-6.66-4.53-8.26-10.13-9.06v-2.13h31.44v2.13c-5.6,1.87-9.59,4.8-14.92,21.05l-25.31,77.8h0Z" class="st0"></path>
  <path d="M830.18,160c.27-.27.27-.53.27-1.07-.27-.27-.53-.53-.8-.53h-.53c-.27,0-.53.27-.27.53,0,.8.53,1.07,1.33,1.07h0ZM767.03,129.36c-1.07-.27-1.87-.53-2.66-.53-1.07-.27-2.4-.27-3.46-.53-.53-.27-.8-.27-1.33,0l2.66,1.6s.27,0,.27.27h.53c1.33,0,2.4,0,3.73-.27,0-.18.09-.36.27-.53h0ZM795,118.97v.27c0,.27.27.53.53.53.27.27.53.27.8,0,.8-.53,1.6-.8,2.4-1.07,2.13-.53,4.26-1.07,6.66-.27h.27c.27,0,.53-.27.27-.53,0-.27-.27-.27-.27-.27-.53-.27-1.07-.53-1.87-.53h-2.66c-1.87,0-3.73.27-5.33.8,0,.53-.53.8-.8,1.07h0ZM834.44,133.35c.27-.53.27-1.07.53-1.6v-.53c-.53-.8-1.6-.8-2.13,0-.27.53-.53,1.33-.27,1.87,0,.18.09.36.27.53.53,1.07,1.33,1.87,2.4,2.4.27.27.8.27,1.07.53.53.27,1.33.8,1.87,1.33.8.53,1.07,1.6,1.07,2.4,0,.27,0,.53.27.8.27-.8.27-1.33,0-2.13-.53-.8-.8-1.33-1.33-2.13l-1.6-1.6c-1.33-.53-1.6-1.33-2.13-1.87h0ZM822.71,189.04c-.27.27-.53.27-.8.53-.53.53-1.07.8-1.87,1.07-.8.27-1.6.27-2.4.27h-4.8c-.8,0-1.6.27-2.13,1.07-.53.53-.8,1.07,0,1.87.27.53.8.53,1.33.53s.8-.53.8-1.07v-.27c.53-.27,1.33-.53,2.13-.8h1.87c1.07,0,2.13-.27,2.93-.8.27-.27.53-.53,1.07-.53.53-.27,1.07-.8,1.6-1.33,0-.18.09-.36.27-.53h0ZM804.6,143.75c0,.53,0,1.07.27,1.33.27.8.53,1.6.53,2.4,0,.53.27,1.33.53,1.87.8,1.6,1.87,2.93,2.66,4.53.53,1.07,1.07,2.4,1.6,3.46-.53,1.07-.53,2.13-.27,3.2.27,0,.27-.27.27-.53.27-.8.27-1.6,1.07-2.13.53-.53.53-1.07.27-1.6-.53-1.33-1.07-2.66-2.13-4-.8-1.07-1.6-2.4-2.4-3.46-.53-.8-1.07-1.87-1.33-2.93.27-.53,0-1.6-1.07-2.13h0ZM841.9,112.3h0c0-.18-.09-.27-.27-.27-1.33,0-2.66-.27-4.26-.27-1.33,0-2.66,0-4,.27h-1.07c-2.4.27-4.53.53-6.93,1.07-1.6.27-2.93.8-4.53,1.07-2.4.53-4.53,1.33-6.93,2.13-1.87.8-4,1.33-5.86,2.13-.27,0-.53.27-.8.27s-.27.27-.53.53c.53.53,1.07.8,1.6,1.07l.8-.53c.53-.27,1.33-.8,1.87-1.07,1.6-.53,3.2-1.33,4.53-1.87s2.66-1.07,4-1.33c1.6-.53,3.2-.8,4.53-1.33,2.13-.53,4.53-1.07,6.66-1.33,3.2-.27,6.39-.53,9.59-.53h1.6ZM829.11,157.87c.53.53.8.53,1.33.53h1.07c1.33-.53,1.87-2.13,1.33-3.46,0-.27-.27-.53-.27-.8-.27-.53-.27-1.33,0-2.13.27-.53.8-1.07,1.07-1.6.8-1.07,1.6-1.6,2.66-2.4,1.33-1.07,2.4-2.4,2.66-4,.27-.53.27-1.33,0-1.87l-.27-.27s-.27,0-.27.27-.27.53-.27,1.07c-.27.53-.27,1.07-.53,1.33-.53.8-1.07,1.33-1.87,1.87-1.07.53-1.87,1.33-2.66,2.13-1.33,1.07-2.66,2.4-3.46,4-.8,1.07-1.07,2.4-.8,3.73.27.53.27,1.07.27,1.6h0ZM767.56,97.92c-7.99-6.93-13.86-15.19-17.32-25.05-.18,0-.36.09-.53.27-.27.27-.53.8-.53,1.33,0,.8,0,1.6.27,2.13.53,1.33,1.33,2.93,2.13,4.26,1.33,2.4,2.66,4.53,4.26,6.66,1.07,1.33,2.4,2.93,3.46,4.26,1.87,2.13,4,3.73,6.13,5.33.53.27.8.53,1.07.8.27.27.53.27,1.07,0h0ZM766.49,224.75c.27-.27.27-.53.27-.53,0-.53.27-1.33.27-1.87,0-1.07.27-2.13.53-2.93.53-1.6,1.07-2.93,1.6-4.53s1.07-3.2,1.6-4.53c.27-1.07.8-2.13,1.07-3.2.53-1.6,1.07-3.2,1.6-4.8.27-.8.53-1.6.8-2.4,0-.27.27-.53.27-.8.27-.27.27-.8.27-1.07,0-.53.27-1.07.53-1.6,0-.27.27-.53.27-.8.27-.53.27-1.07-.27-1.6,0-.27-.27-.27-.53-.27-.27.53-.53,1.07-.53,1.6s-.53.53-.8.27c-1.07-1.07-1.6-2.4-1.87-4,0-.53-.27-1.07-.27-1.6s-.27-.8-.53-.8c0,.27-.27.27-.27.53v2.13c0,.8.27,1.33.27,2.13v4.53c0,1.07,0,1.87-.27,2.93,0,.8,0,1.6-.27,2.4-.27,2.4-1.07,4.8-1.6,7.19-.27,1.33-.8,2.66-1.07,4-.27,1.6-.8,2.93-1.33,4.53-.53,1.33-.8,2.93-.8,4.53v.8c.53-.8.8-.53,1.07-.27h0ZM752.9,106.44c-.53.53-.53,1.6-.27,2.13.27.8.8,1.33,1.6,1.87.27,0,.53.27.53.27v1.6c.27,1.33.8,1.6,2.13,1.6h2.93c.53,0,1.07-.27,1.6-.53,1.6-.8,3.46-1.6,5.06-2.66,0,0,.27-.27.53-.27-.53-.27-.8-.27-1.07-.27-.8-.27-1.87-.53-2.66-1.07-1.33-.53-2.66-1.33-4.26-2.13-1.33-.53-2.66-1.33-4-2.13-.8-.53-1.6-1.07-2.4-1.87-1.07-1.07-2.13-2.13-2.93-3.46,0-.27-.27-.27-.27-.53s-.27-.27-.53,0c0,.53,0,1.33.27,1.87,0,.8.53,1.6,1.07,2.4,1.07,1.07,1.87,2.13,2.66,3.2h0Z" class="st0"></path>
  <path d="M771.56,105.38c.27-.27.27-.53,0-.53-1.6-1.07-3.2-2.13-4.8-3.46-2.4-1.6-5.06-3.2-7.19-5.33-1.33-1.33-2.93-2.4-4.26-3.73-.8-1.07-1.87-2.13-2.66-3.2-1.6-2.13-2.66-4.26-3.46-6.66-.8-1.87-1.07-4-.53-6.13v-.53c0-.8-.27-1.33-.53-2.13,0-.27-.27-.53-.53-.8-.53.53-.8,1.07-1.07,1.6-.8,2.13-.53,4.26,0,6.66s1.6,4.53,2.66,6.66c.27.27.27.53.53.8-.36.71-.44,1.42-.27,2.13.27.8.53,1.6,1.33,2.13.8.8,1.33,1.6,2.4,2.4s1.87,1.87,2.93,2.4c2.13,1.33,4.26,2.66,6.39,4s4.53,2.13,6.66,2.93c.8.27,1.6.53,2.4.8h0ZM786.21,114.44c.27,0,.27-.27.27-.27v-.53c0-1.87,0-3.46-.27-5.33-.27-1.33-.27-2.93-.8-4.26-.27-1.6-.8-2.93-1.33-4.26-.53-1.6-1.33-3.2-2.13-4.8-.53-1.33-1.33-2.66-1.87-4-.8-1.6-1.87-3.2-2.93-5.06-.27-.53-.8-1.07-1.07-1.87l-.53-.53v.53c0,.27.27.53.53.8.27,1.07.8,2.4,1.07,3.46.53,1.33.8,2.66,1.07,4s.27,2.66.27,4c.27,1.87-.27,3.73-.8,5.6-.27.8-.8,1.87-1.33,2.66-.53,1.07-1.07,2.13-2.13,2.93v.27c.27,0,.53.27,1.07.27,1.6.27,2.93.8,4.53,1.6,1.87,1.07,3.46,2.4,5.33,3.73l.8.8.27.27h0ZM775.82,156c-.53.53-1.33,1.07-1.87,1.6-1.07.8-2.13,1.6-2.93,2.4-1.07.8-.53.8-2.13.27-.27,0-.53-.27-.8-.53-.53-.27-.8-.8-1.33-1.07l-.8-.8c-.8-1.33-1.87-2.93-2.13-4.26l-.27-.27c-.27,0-.53-.27-.8-.27,0,.27-.27.27-.27.53-.53,1.07-1.07,2.13-1.87,2.93-1.07,1.33-1.87,2.93-2.66,4.53-.53,1.07-1.07,2.4-1.6,3.73,0,.27-.27.53,0,1.07.27,0,.53-.27.8-.27.53-.27,1.07-.27,1.33-.27,1.33,0,2.66.27,3.73.53,1.87.53,3.73.53,5.33-.53,1.07-.53,1.87-.8,2.93-1.33.8-.27,1.87-.53,2.66-.53,1.6,0,2.93-.27,4.53-.27h.53c.8-.27,1.6-.53,2.4-1.07.8-.27,1.33-1.07,2.13-1.07l.27-.27c1.6-1.07,2.66-2.66,3.73-4.26.27-.27.27-.53,0-.8h-.27c-.27,0-.53.27-.8.27-.53.27-1.33.27-1.87.53-1.6,0-2.93.27-4.53.27-1.33-.53-2.4-.8-3.46-.8h0ZM762.5,236.74c-.53.36-1.15.62-1.87.8-1.07.27-2.4.27-3.46.53-1.33,0-2.66.27-4,.27h-.27l-.27.27c-.27.53-.27,1.07,0,1.33,0,.27.27.53.53.53h25.05c.53,0,.53-.27.53-.53v-.53c0-.8-.27-1.07-.8-1.07-.8-.27-1.6-.27-2.66-.53h-.8c-.27-.8-.27-1.6-1.07-2.13h-1.07c-.53,0-.8,0-1.33.27-.8.27-1.33.27-2.13,0-1.33-.53-2.4-1.07-3.46-2.13-.27-.27-.53-.8-.8-1.07,0-.27-.27-.53-.27-.8-.27-.53-.53-1.07-.27-1.87v-.8c0-1.07-.8-1.6-1.87-1.6h-.53c-.53,0-1.07-.27-1.33-1.07v-.8c.27-.8.53-1.6,1.07-2.4,1.07-2.13,1.87-4.53,2.4-6.66.27-1.87.8-3.46,1.07-5.33.27-1.07.53-2.13.53-3.2,0-1.6.27-3.2.8-4.53.27-1.07.53-2.13.8-3.46v-.8c0-1.07-.27-2.13,0-3.2-.53-.18-.98-.09-1.33.27-.53.53,0,.27-.27.53-1.07,2.13-1.87,4-2.93,6.13-.53,1.07-.8,2.13-.8,3.46s.27,2.4.27,3.73v2.66c-.27.8-.27,1.87-.53,2.66-.27,1.33-.8,2.4-1.07,3.73s-.8,2.66-1.6,4c0,.27-.27.27-.27.53-.53.53-.8,1.33-1.33,1.87-.53,1.33-.53,2.4.27,3.46.8,1.07,1.33,2.4,1.87,3.73.27.8.53,1.6,1.07,2.4,1.33.27,1.6.8,2.13,1.33h0ZM755.3,113.64c-.53.27-.53.8-.53,1.33.53,1.33,1.33,2.66,2.66,3.46-.53,1.07-1.33,1.87-1.33,3.2,0,1.07.27,2.4.8,3.2h.27c1.33-.27,2.66,0,3.73.27.53.27,1.07.27,1.87,0,.8-.27,1.6-.27,2.66-.27h2.13c.27,0,.53-.27.53-.53,0-.53-.27-.8-.53-1.33-.27-.8-.53-1.33-.27-2.13l.27-.27c1.07-.53,2.13-.8,3.46-1.07.18,0,.27-.09.27-.27-.27,0-.53-.27-.8-.27-.8,0-1.6-.27-2.4,0-1.33,0-2.4-.53-3.46-.8-.27,0-.27-.27-.53-.27-.27-.53-.53-1.07-.8-1.6,0-.27,0-.53.27-.8.53-.53,1.6-1.07,2.4-1.33,1.07-.27,2.13-.53,2.93-.8.53-.27,1.07-.27,1.6-.27s.8,0,1.07.27c.8.8,1.6,1.6,2.13,2.93.27,1.07.8,2.13,1.07,3.2.27.8.53,1.87.8,2.93v2.66h.27c.8,0,1.6-.27,2.4-.53,2.13-.8,4-.8,5.86.27.8.53,1.6.8,2.13,1.33.27.27.53.27.8.53h.27v-.27s0-.27-.27-.27c-1.07-1.6-2.13-3.2-3.2-4.8-1.07-2.13-2.4-4-4-5.86-1.07-1.33-2.13-2.66-3.46-3.73-.27-.27-.53-.53-.8-.53-1.33-.8-2.93-1.07-4.26-1.6-.53-.27-1.07-.27-1.6,0l.8,1.07c-.27,0-.53,0-.8.27-1.07,0-1.87.27-2.66.53s-1.87.53-2.66,1.07h-.27c-1.87.8-3.73,1.33-5.6,1.6-.8.27-2.13.27-3.2-.53h0ZM753.7,126.43c-.53,0-.8.53-1.33.8-.53.27-.8.8-.8,1.33v1.33c.53.8.8,1.87,1.33,2.66,1.07,1.6,2.13,3.2,3.73,4.26,0,0,0,.27.27.27-.27.53-.8.8-1.07,1.07-1.07,1.07-2.93,1.33-4.26.8-.27,0-.53-.27-.8-.27-.8-.27-1.6-.27-2.13.53l-.8.8c-.8.8-1.07,1.87-1.07,2.93v1.33c0,.8,0,1.87-.53,2.4,0,.53.53,1.07,1.07,1.07.53.27,1.33.27,1.87,0s1.33-.53,2.13-.53h1.07c.27,0,.53-.27.53-.53,0-.53,0-1.07-.27-1.6-.27-.27-.53-.53-1.07-.53-.27,0-.53.27-.8,0-.53,0-1.07,0-1.6.53-.27.27-.53.53-1.07.27,0-1.33.27-2.4,1.07-3.2.53-.53,1.07-1.07,1.87-1.07.8-.27,1.6-.53,2.4-.53,1.07-.27,1.87-.53,2.93-1.07h.53v.53c0,.53-.27,1.07-.53,1.87v1.6c.27,1.07.8,1.6,1.6,2.13l.27.27-.27.53c-.27.53-.27.8-.53,1.33-.27,1.07-.27,2.13.53,2.93.53.53,1.07,1.33,1.87,1.6.53.27.8.27,1.07,0,1.33-1.07,2.66-1.6,4.26-1.87.53,0,1.07-.53,1.33-.8.53-1.07,1.33-1.87,1.87-2.93s1.33-1.87,2.13-2.4c.53-.53.8-1.07.8-1.87s.27-1.6.27-2.13c.27-.8.53-1.33.8-2.13.27-.53.53-1.07.8-1.33,0,0,.27-.27.27-.53h-.53c-.8,0-1.6-.27-2.4-.53-.27,0-.27-.27-.53-.27-.8-.53-1.6-.8-2.66-.8h-.8s-.27,0-.53-.27c.27-.27.53-.27.53-.27.53-.27,1.07-.27,1.6,0,.8.27,1.6.53,2.4.8.53.27,1.33.27,1.87.8.53.27.8,0,1.07-.27s.53-.27.8-.53c.27.53,0,.8.27,1.07,0,.53.27.8.27,1.33v.53c0,.8.27,1.33.53,2.13.27.53.53,1.33.8,1.87.27.53.53,1.07.8,1.6.27.53.8,1.07,1.6,1.33v-.53c0-.27-.27-.53-.53-.8-.53-1.07-1.07-1.87-1.6-2.93,0-.27-.27-.53-.27-.8,0-1.07-.27-2.13-.27-3.2,0-1.33.27-2.93.27-4.26,0-.53,0-1.07.27-1.6v-.8c-.53-.27-1.07-.53-1.33-.8-.27,0-.53-.27-1.07-.27l-.27.27.27.27c.27,0,.27.27.53.27,0,0,.27.27,0,.27,0,.27-.27.27-.53.27s-.53,0-.8-.27c-.27,0-.53-.27-.8-.27s-.8.53-.8.8l.27.27h.53c.53,0,1.07,0,1.6.27,0,.8,0,1.07-.53,1.07h0c-.8,0-1.87.27-2.66,0-.18,0-.27.09-.27.27,0,.27,0,.53.27.53h1.33c.27,0,.53.27.8.53v.53s-.27.27-.27,0c-.53,0-1.33-.27-1.87-.53-.53,0-1.33-.27-1.87-.53s-.8-.53-1.33-.8c-.27,0-.53-.27-.8,0-1.07.53-2.4,1.07-3.46,1.6-.8.53-1.6,1.07-2.4,1.33-.53.27-1.07.27-1.6,0-1.07-.53-2.13-1.07-2.93-2.13-.8-1.07-1.6-2.4-2.13-3.46-.27-.53-.27-1.33,0-2.13-.53,0-.27-.27-.53-.8h0Z" class="st0"></path>
  <path d="M786.21,122.96h0v-1.33c-.53-1.6-1.07-3.46-1.6-5.06-1.07-2.13-2.13-4.26-3.2-6.39,0-.27-.27-.27-.27-.53-.53-1.07-1.33-1.87-1.87-2.93-.8-1.6-1.87-3.2-2.66-4.8-.53-.8-.8-1.6-1.33-2.4-.8-1.6-1.6-2.93-2.4-4.53-.53-1.07-1.07-2.13-1.6-3.2-.53-1.07-.8-1.87-1.33-2.93-.27-.53-.27-1.07-.53-1.6-.53-1.87-1.33-3.46-2.13-5.33-.27-.8-.53-1.6-.8-2.13-.27-.53-.53-1.33-.8-1.87-.53-1.07-1.07-2.4-1.87-3.46-.53-.8-1.33-1.33-2.13-1.6h-.53c-.8,0-1.6.27-2.13,1.07-1.07.8-1.6,2.13-1.87,3.46-.27.8-.27,4.26-.27,5.06,0,.27,0,.53-.27.53-.8-.53-1.87-1.07-3.2-1.07-1.07,0-1.87.53-2.4,1.33,0,.27-.27.53-.27.8-1.07,2.66-1.07,5.6-.27,7.99.53,1.33,1.07,2.4,1.6,3.73.8,2.13,1.87,4,3.2,5.86,1.07,1.87,2.4,3.73,3.46,5.33s1.87,2.93,2.93,4.26c1.33,1.87,3.2,3.46,4.8,5.06l2.4,2.4c1.33,1.07,2.93,2.13,4.26,3.2,0,0,.27,0,.27.27h.27v-.27c0-.18-.09-.36-.27-.53-.53-.53-1.07-.8-1.33-1.33-.53-.53-1.33-1.07-1.87-1.6l-1.6-1.6c-1.33-1.33-2.66-2.4-3.73-4-.53-.8-1.33-1.6-2.13-2.4-1.33-1.33-2.13-2.93-3.46-4.53-2.13-2.93-3.46-6.13-4.8-9.59-.8-1.87-1.07-4-1.6-6.13-.27-1.07-.27-2.4,0-3.46,0-.53.27-.8.53-1.33s.53-.8,1.33-.53c.53,0,.8.27,1.07.8.53,1.87.8,3.73,1.6,5.6.8,2.66,1.87,5.33,2.93,7.73,1.33,2.66,2.66,5.06,4.53,7.46,1.87,2.66,4,5.06,6.39,7.19l1.33,1.33c.8.53,1.6,1.33,2.4,1.87.27.27.53,0,.53-.27-.8-1.07-1.6-2.13-2.66-3.2-1.33-1.6-2.4-3.2-3.46-4.8-.53-1.07-1.07-1.87-1.6-2.93-1.07-1.87-2.13-3.73-3.2-5.6-1.07-2.13-2.13-4.26-2.93-6.39,0-.18-.09-.36-.27-.53-.53-.8-.53-1.33-.8-2.13-.27-1.07-.53-1.87-.8-2.93-.53-1.33-.8-2.66-1.07-4-.27-1.6-.27-3.2-.27-5.06,0-.8.27-1.6.8-2.13l.53-.53c.27-.27.8-.27,1.07,0,.53.27,1.07.8,1.33,1.33.53,1.07,1.33,2.4,1.87,3.46,1.07,2.4,2.13,4.8,3.46,7.19.53,1.07,1.07,2.4,1.87,3.46,1.07,2.13,2.4,4.26,3.46,6.39,1.07,1.87,2.13,3.46,3.2,5.06,1.07,1.6,2.13,3.2,3.2,5.06,1.07,1.6,1.87,3.2,2.66,4.53.53,1.07,1.07,2.13,1.6,3.2.8,2.4,1.87,4.8,2.66,6.93h0ZM766.76,216.75c.27,0,.53,0,.53-.27v-.53c-.27-1.07-.27-2.4,0-3.46l.27-1.33c0-.53,0-1.07-.27-1.6-.53-1.6-1.07-3.46-.8-5.06,0-2.93.27-5.86,1.07-8.79,0-.8.53-1.33,1.33-1.6.53-.27,1.33-.53,1.87-.8.8-.27,1.07,0,1.33.8v.27l.27,1.87c.8,3.2,1.33,6.13,1.6,9.33v.27c.27,1.33.53,2.66.27,4v2.93c.53,0,.53-.27.8-.53.27-.8.53-1.6.8-2.4.53-1.87.8-3.73,1.07-5.6.27-1.33.27-2.66.53-4v-2.93c0-2.13-.27-4-.27-6.13,0-.53,0-1.07.53-1.33.53-.8,1.07-1.33,1.87-2.13,0-.27.27-.27,0-.53-.53,0-1.07.53-1.33.8-1.87,1.07-3.73,2.13-5.6,3.2-.27,0-.53.27-.53.27-1.6.8-3.46,1.07-4.8,2.13-.27,0-.53.27-.53.27-1.07.27-2.4.53-3.46.8-1.6.27-3.2.8-4.53,1.33-.53.27-1.07.27-1.6.27-1.33,0-2.93.27-4.26-.27-.8-.27-1.6-.53-2.4-1.07-.27,0-.27-.27-.53-.53-.27-.53-.27-.8,0-1.07s.8-.27,1.07,0,.8.53,1.33.53c1.07.27,1.87.53,2.93.8,1.6.27,3.46.27,5.06-.8.53-.27,1.07-.53,1.6-.53,1.07,0,2.13-.53,2.93-.53,1.33-.27,2.66-.8,4-1.33.53-.27,1.07-.27,1.6-.53,1.87-.8,4-1.87,5.86-2.66,1.6-.8,3.2-1.6,4.53-2.66,0,0,.27-.27,0-.27h-.27c-.8.27-1.6.8-2.13,1.07-1.6.8-2.93,1.07-4.53,1.07-1.07,0-1.87,0-2.93.53s-1.87.8-2.93,1.33c-.27.27-.8.27-1.07.53-.53,0-.8.27-1.07.27-1.07.27-2.13.27-3.2-.27-1.07-.27-1.87-.53-2.93-.53-.8,0-1.6.27-2.13.53-.8.27-1.87.27-2.66.27s-1.6-.53-2.13-1.07c0,0-.27-.27-.27-.53-.27-.27-.27-.8,0-1.33.53-1.33,1.07-2.66,1.87-4,.27-.27.27-.53.53-.8.53-.8,1.07-1.33,1.33-2.13.8-1.33,1.87-2.66,2.93-3.73l.53-.53v-.27h-.27c-.27.27-.8.53-1.07.8-1.87,1.6-3.73,3.46-5.06,5.6,0,.27-.27.53-.53.53h-.27c-2.13-.53-3.73,0-5.6,1.33-1.33,1.07-2.66,2.13-3.73,3.2-.53.53-.8,1.07-1.33,1.33-.8.53-1.6,1.07-2.66,1.07-.27,0-.53.27-.8.27l.53.53c1.07.27,1.87.53,2.93.53.8,0,1.6-.27,2.13-.27s1.07-.27,1.6-.53,1.07-.53,1.6-.8c.89-1.24,1.6-1.95,2.13-2.13-.8,1.6-1.33,3.2-1.87,4.8-.27.27-.53.27-1.07.53-1.6.8-2.93,1.87-4,3.2l-.53.53c-1.07.8-2.13,1.87-2.93,2.66l-.27.27c0,.27-.27.8-.27,1.07s0,.8.27,1.07v.27c-.53.8-.53,1.07.27,1.6l.27.27c0,1.33.27,1.33,1.6,1.87,0,.18.09.36.27.53.53,1.07,1.33,1.07,2.13.53l.53-.53c.27-.8,1.07-1.07,1.6-1.6.8-.27,1.33-1.07,1.6-1.6s.53-1.33.8-1.87c0-.53.27-1.07.8-1.33.27.53.27.8.53,1.33,0,.8.53,1.07,1.07,1.33.53.27,1.07.27,1.87.53.53,0,1.33,0,1.87-.53.27-.27.8-.53,1.07-.8,1.6-1.07,3.2-2.4,4.8-3.73.27-.27.53-.27.8-.27.8-.27,1.87-.27,2.66-.53h.53c.27,0,.53-.27.53,0v1.07c-.27,1.33-.53,2.4-.53,3.73,0,2.4.53,4.8,1.6,7.19.27.53.53.8.53,1.07.27.53.27,1.07.27,1.6,0,1.6.27,2.93.27,4.53-.27,0,0,.53.27.8h0Z" class="st0"></path>
  <path d="M766.76,216.49c-.27-.53-.53-.8-.53-1.33-.27-1.6-.53-2.93-.27-4.53,0-.53,0-1.07-.27-1.6-.27-.27-.53-.8-.53-1.07-1.07-2.13-1.6-4.8-1.6-7.19,0-1.33,0-2.66.53-3.73,0-.27.27-.8,0-1.07s-.53,0-.53,0h-.53c-.8.27-1.87.27-2.66.53-.27,0-.53.27-.8.27-1.6,1.33-3.2,2.4-4.8,3.73-.27.27-.8.53-1.07.8-.53.27-1.07.53-1.87.53-.53,0-1.07-.27-1.87-.53-.53-.27-1.07-.53-1.07-1.33,0-.53-.27-.8-.53-1.33-.53.27-.8.8-.8,1.33-.27.8-.53,1.33-.8,1.87-.27.8-1.07,1.33-1.6,1.6-.8.27-1.33.8-1.6,1.6,0,.27-.27.53-.53.53-.8.8-1.6.53-2.13-.53,0-.18-.09-.36-.27-.53-1.33-.27-1.33-.53-1.6-1.87l-.27-.27c-.8-.53-1.07-.8-.27-1.6v-.27c0-.27-.27-.8-.27-1.07,0-.53.27-.8.27-1.07l.27-.27c1.07-.8,2.13-1.87,2.93-2.66l.53-.53c1.07-1.33,2.66-2.4,4-3.2.27-.27.53-.27,1.07-.53.53-1.6,1.07-3.2,1.87-4.8-.71.18-1.42.89-2.13,2.13-.53.27-1.07.53-1.6.8-.53.27-1.07.27-1.6.53-.8.27-1.6.27-2.13.27-1.07,0-2.13-.27-2.93-.53-.27,0-.27-.27-.53-.53.27,0,.53-.27.8-.27,1.07,0,1.87-.27,2.66-1.07l1.33-1.33c1.07-1.33,2.4-2.4,3.73-3.2,1.6-1.33,3.46-1.87,5.6-1.33h.27c0-.27.27-.27.53-.53,1.6-2.13,3.2-4,5.06-5.6.27-.27.8-.53,1.07-.8h.27v.27c0,.27-.27.53-.53.53-1.07,1.07-2.13,2.4-2.93,3.73-.53.8-.8,1.33-1.33,2.13-.27.27-.53.53-.53.8-.53,1.33-1.07,2.66-1.87,4-.27.53-.27.8,0,1.33,0,.27.27.27.27.53.53.8,1.07,1.07,2.13,1.07.8,0,1.87,0,2.66-.27s1.33-.27,2.13-.53c1.07,0,2.13,0,2.93.53,1.07.53,2.13.27,3.2.27.27,0,.8-.27,1.07-.27.53,0,.8-.27,1.07-.53,1.07-.53,1.87-1.07,2.93-1.33.8-.27,1.87-.53,2.93-.53,1.6.27,3.2-.27,4.53-1.07l2.13-1.07h.27v.27c-1.6.8-2.93,1.87-4.53,2.66-1.87.8-4,1.87-5.86,2.66-.53.27-1.07.53-1.6.53-1.33.53-2.66.8-4,1.33-1.07.27-1.87.53-2.93.53-.53,0-1.07.27-1.6.53-1.6.8-3.2,1.07-5.06.8-1.07-.27-1.87-.53-2.93-.8-.53-.27-.8-.27-1.33-.53s-.8-.27-1.07,0-.27.8,0,1.07c0,.27.27.27.53.53.8.27,1.6.8,2.4,1.07,1.33.27,2.93.27,4.26.27.53,0,1.07-.27,1.6-.27,1.6-.53,3.2-.8,4.53-1.33,1.07-.27,2.4-.53,3.46-.8.27,0,.53,0,.53-.27,1.6-.8,3.2-1.33,4.8-2.13.27,0,.53,0,.53-.27,1.87-1.07,3.73-1.87,5.6-3.2.53-.27.8-.53,1.33-.8.18.18.18.36,0,.53-.53.8-1.07,1.6-1.87,2.13-.27.27-.53.8-.53,1.33.27,1.87.27,4,.27,6.13v2.93c-.27,1.33-.27,2.66-.53,4-.27,1.87-.8,3.73-1.07,5.6-.27.8-.53,1.6-.8,2.4,0,.27-.27.53-.8.53v-2.93c0-1.33,0-2.66-.27-4v-.27c-.27-3.2-1.07-6.13-1.6-9.33,0-.53-.27-1.07-.27-1.87v-.27c-.27-.8-.53-.8-1.33-.8-.8.27-1.33.53-1.87.8-.53.27-1.07,1.07-1.33,1.6-.8,2.93-1.07,5.86-1.07,8.79,0,1.87.27,3.46.8,5.06.27.53.27,1.07.27,1.6l-.27,1.33c-.27,1.07-.27,2.4,0,3.46v.53c.27.8,0,1.07-.27.8h0ZM786.21,122.7c-1.07-2.13-1.87-4.26-2.66-6.66-.53-1.07-1.07-2.13-1.6-3.2-.8-1.6-1.87-3.2-2.66-4.53-1.07-1.6-2.13-3.2-3.2-5.06-1.07-1.6-2.13-3.2-3.2-5.06-1.07-2.13-2.4-4.26-3.46-6.39-.53-1.07-1.07-2.4-1.87-3.46-1.33-2.4-2.13-4.8-3.46-7.19-.53-1.07-1.07-2.4-1.87-3.46-.27-.53-.8-1.07-1.33-1.33-.27-.27-.8-.27-1.07,0-.27,0-.27.27-.53.53-.53.53-.8,1.33-.8,2.13,0,1.6,0,3.2.27,5.06.27,1.33.53,2.66,1.07,4,.27,1.07.53,1.87.8,2.93.27.8.53,1.6.8,2.13,0,.27.27.27.27.53.8,2.13,1.87,4.26,2.93,6.39.8,1.87,1.87,3.73,3.2,5.6.53.8,1.07,1.87,1.6,2.93,1.07,1.6,2.13,3.2,3.46,4.8.8,1.07,1.6,2.13,2.66,3.2,0,.27-.27.27-.53.27-.8-.53-1.6-1.33-2.4-1.87l-1.33-1.33c-2.4-2.13-4.53-4.8-6.39-7.19-1.6-2.4-3.2-4.8-4.53-7.46-1.33-2.4-2.13-5.06-2.93-7.73-.53-1.87-1.07-3.73-1.6-5.6-.27-.53-.27-.8-1.07-.8-.53,0-1.07,0-1.33.53s-.27.8-.53,1.33c-.27,1.07-.27,2.4,0,3.46.53,2.13.8,4,1.6,6.13,1.33,3.2,2.66,6.66,4.8,9.59,1.07,1.6,2.13,3.2,3.46,4.53.8.8,1.33,1.6,2.13,2.4,1.07,1.33,2.4,2.66,3.73,4l1.6,1.6c.53.53,1.07,1.07,1.87,1.6.53.53,1.07.8,1.33,1.33,0,0,.27.27.27.53v.27h-.27s-.27,0-.27-.27c-1.33-1.07-2.93-2.13-4.26-3.2l-2.4-2.4c-1.6-1.6-3.2-3.2-4.8-5.06-1.07-1.33-2.13-2.93-2.93-4.26-1.07-1.87-2.4-3.46-3.46-5.33s-2.13-4-3.2-5.86c-.53-1.07-1.07-2.4-1.6-3.73-1.07-2.66-1.07-5.6.27-7.99,0-.27.27-.53.27-.8.53-.8,1.33-1.33,2.4-1.33s2.13.27,3.2,1.07c.18-.18.27-.36.27-.53,0-1.6,0-3.46.27-5.06.27-1.33.8-2.4,1.87-3.46.53-.53,1.33-.8,2.13-1.07h.53c.8.27,1.6.8,2.13,1.6.8,1.07,1.33,2.13,1.87,3.46.27.53.53,1.33.8,1.87.27.8.53,1.6.8,2.13.53,1.87,1.33,3.46,2.13,5.33.27.53.53,1.07.53,1.6.27,1.07.8,1.87,1.33,2.93s1.07,2.13,1.6,3.2c.8,1.6,1.6,2.93,2.4,4.53.53.8.8,1.6,1.33,2.4.8,1.6,1.87,3.2,2.66,4.8.53,1.07,1.33,1.87,1.87,2.93,0,.27.27.27.27.53,1.07,2.13,2.13,4.26,3.2,6.39.8,1.6,1.07,3.2,1.6,5.06.27,0,.27.53,0,1.07h0ZM753.7,148.54c.27.53,0,.8,0,1.07-.27.8-.27,1.33,0,2.13.53,1.33,1.33,2.4,2.13,3.46s1.87,1.6,2.93,2.13c.53.27,1.07.27,1.6,0,.8-.27,1.6-.8,2.4-1.33,1.07-.8,2.4-1.07,3.46-1.6h.8c.53.27,1.07.53,1.33.8.53.27,1.07.53,1.87.53.53,0,1.33.27,1.87.53h.27c.27-.27,0-.27,0-.53-.27-.27-.27-.53-.8-.53h-1.33c-.27,0-.27-.27-.27-.53s.27-.27.27-.27c.8.27,1.87,0,2.66,0h0c.53,0,.8-.27.53-1.07-.53-.27-1.07-.27-1.6-.27h-.53s-.27,0-.27-.27.27-.8.8-.8c.27,0,.53.27.8.27s.53.27.8.27.27-.27.53-.27v-.27c0-.27-.27-.27-.53-.27l-.27-.27.27-.27c.27,0,.53,0,1.07.27.53.27.8.53,1.33.8v.8c0,.53-.27,1.07-.27,1.6,0,1.33-.27,2.93-.27,4.26,0,1.07.27,2.13.27,3.2,0,.27.27.53.27.8.53,1.07,1.07,1.87,1.6,2.93.27.27.27.53.53.8v.53c-.53-.27-1.07-.8-1.6-1.33-.27-.53-.53-1.07-.8-1.6-.27-.53-.53-1.33-.8-1.87-.27-.53-.53-1.33-.53-2.13v-.53c0-.53-.27-.8-.27-1.33,0-.27,0-.8-.27-1.07-.27.27-.53.53-.8.53-.27.27-.8.27-1.07.27-.53-.27-1.33-.53-1.87-.8-.8-.27-1.6-.53-2.4-.8-.53-.27-1.07-.27-1.6,0-.27,0-.27.27-.53.27.27,0,.27.27.53.27h.8c.8,0,1.87.27,2.66.8.27,0,.27.27.53.27.8.27,1.33.53,2.4.53h.53c0,.18-.09.36-.27.53-.27.53-.53.8-.8,1.33-.27.8-.53,1.33-.8,2.13-.27.8-.27,1.6-.27,2.13,0,.8-.27,1.33-.8,1.87-.8.8-1.6,1.6-2.13,2.4-.53,1.07-1.33,1.87-1.87,2.93-.27.53-.8.8-1.33.8-1.6.27-2.93.8-4.26,1.87-.27.27-.53.27-1.07,0-.8-.27-1.33-1.07-1.87-1.6-.8-1.07-.8-1.87-.53-2.93,0-.53.27-.8.53-1.33l.27-.53-.27-.27c-.8-.53-1.33-1.33-1.6-2.13-.27-.53-.27-1.07,0-1.6s.27-1.07.53-1.87v-.53h-.53c-.8.53-1.87.8-2.93,1.07-.8.27-1.6.53-2.4.53s-1.33.53-1.87,1.07c-.53,1.07-1.07,2.13-1.07,3.2.53,0,.8,0,1.07-.27.53-.27,1.07-.53,1.6-.53h.8c.53,0,.8,0,1.07.53s.27,1.07.27,1.6c0,.27-.27.53-.53.53h-1.07c-.8,0-1.33,0-2.13.53-.53.27-1.33.27-1.87,0s-1.07-.53-1.07-1.07c.53-.8.8-1.6.53-2.4v-1.33c0-1.07.27-2.13,1.07-2.93l.8-.8c.53-.53,1.33-.8,2.13-.53.27,0,.53.27.8.27,1.33.53,2.93.27,4.26-.8.53-.27.8-.8,1.07-1.07,0,0,0-.27-.27-.27-1.6-1.07-2.93-2.66-3.73-4.26-.53-.8-.8-1.87-1.33-2.66-.27-.53-.27-1.07,0-1.33,0-.53.27-1.07.8-1.33,1.07-.53,1.33-.8,1.87-1.07h0ZM755.3,135.75c1.33.8,2.66.53,4,.53,1.87-.27,3.73-.8,5.6-1.6,0,0,.27,0,.27-.27.8-.53,1.87-.8,2.66-1.07s1.87-.53,2.66-.53c.27,0,.53,0,.8-.27l-.8-1.07h1.6c1.6.27,2.93.8,4.26,1.6.27.27.53.27.8.53,1.33,1.07,2.4,2.4,3.46,3.73,1.6,1.87,2.66,3.73,4,5.86,1.07,1.6,1.87,3.46,3.2,4.8,0,0,0,.27.27.27v.27h-.27c-.27,0-.53-.27-.8-.53-.8-.53-1.33-.8-2.13-1.33-1.87-1.07-4-1.07-5.86-.27-.8.27-1.6.53-2.4.53h-.27v-2.66c-.27-1.07-.53-1.87-.8-2.93-.27-1.07-.8-2.13-1.07-3.2-.53-1.07-1.07-2.13-2.13-2.93-.27-.27-.8-.53-1.07-.27-.53,0-1.07.27-1.6.27-1.07.27-1.87.53-2.93.8-.8.27-1.6.53-2.4,1.33-.27.27-.27.53-.27.8,0,.53.53,1.07.8,1.6,0,0,.27.27.53.27,1.07.53,2.4,1.07,3.46.8h2.4c.27,0,.53,0,.8.27,0,.27-.27.27-.27.27-1.33.27-2.4.53-3.46,1.07,0,0-.27,0-.27.27-.27.8,0,1.6.27,2.13.27.53.27.8.53,1.33,0,.27,0,.53-.53.53h-2.13c-.8,0-1.87,0-2.66.27h-1.87c-1.33-.27-2.4-.53-3.73-.27h-.27c-.53-1.07-.8-2.13-.8-3.2,0-1.33.53-2.13,1.33-3.2-1.33-.8-2.13-2.13-2.66-3.46-1.07-.27-.8-.53-.27-1.07h0ZM762.5,258.85c-.53-.53-.8-1.33-1.33-1.87-.53-.8-.8-1.6-1.07-2.4-.27-1.33-.8-2.66-1.87-3.73-.8-1.07-1.07-2.13-.27-3.46.27-.8.53-1.33,1.33-1.87,0,0,.27-.27.27-.53.53-1.33,1.07-2.66,1.6-4,.27-1.33.8-2.66,1.07-3.73.27-.8.27-1.87.53-2.66s.27-1.87,0-2.66c0-1.33-.27-2.4-.27-3.73,0-1.07.27-2.4.8-3.46l2.93-6.13s.27-.27.27-.53c.18-.36.62-.44,1.33-.27-.27,1.07,0,2.13,0,3.2v.8c-.27,1.07-.53,2.13-.8,3.46-.53,1.6-.8,2.93-.8,4.53,0,1.07-.27,2.13-.53,3.2-.27,1.87-.8,3.73-1.07,5.33-.53,2.4-1.07,4.53-2.4,6.66-.53.8-.8,1.6-1.07,2.4v.8c0,.53.53,1.07,1.33,1.07h.53c1.07-.27,1.87.27,1.87,1.6v.8c0,.53,0,1.07.27,1.87,0,.27.27.53.27.8.27.53.53.8.8,1.07,1.07,1.07,2.13,1.6,3.46,2.13.8.27,1.33.27,2.13,0,.53,0,.8-.27,1.33-.27h1.07c.53.53.53,1.33,1.07,2.13h.8c.8,0,1.6.27,2.66.53.53,0,.8.53.8,1.07v.53c0,.53-.27.53-.53.53h-25.05c-.27,0-.53-.27-.53-.53-.27-.53-.27-1.07,0-1.33,0-.27.27-.27.27-.27h.27c1.33,0,2.66-.27,4-.27,1.07,0,2.4-.27,3.46-.53,0,.53.27.27,1.07-.27h0Z" class="st0"></path>
  <path d="M775.82,156h3.2c1.6,0,2.93-.27,4.53-.27.53,0,1.33-.27,1.87-.53.27,0,.53-.27.8-.27h.27c.27.27.27.53,0,.8-1.07,1.6-2.13,3.2-3.73,4.26l-.27.27c-.8.27-1.33.8-2.13,1.07s-1.6.53-2.4,1.07h-.53c-1.6.27-2.93.53-4.53.27-1.07,0-1.87,0-2.66.53-1.07.27-1.87.53-2.93,1.33-1.6,1.07-3.46,1.07-5.33.53-1.33-.53-2.66-.53-3.73-.53-.53,0-1.07,0-1.33.27-.27,0-.53.27-.8.27-.27-.27,0-.53,0-1.07.53-1.33,1.07-2.4,1.6-3.73.8-1.6,1.6-3.2,2.66-4.53.53-1.07,1.07-1.87,1.87-2.93,0,0,.27-.27.27-.53l.8.27.27.27c.53,1.6,1.33,2.93,2.13,4.26l.8.8c.53.53.8.8,1.33,1.07.27.27.53.27.8.53,1.33.53,1.07.53,2.13-.27,1.07-.8,2.13-1.6,2.93-2.4.8.53,1.33,0,2.13-.8h0ZM786.21,114.44l-.53-.53-.8-.8c-1.87-1.33-3.46-2.66-5.33-3.73-1.33-.8-2.93-1.33-4.53-1.6-.27,0-.53,0-1.07-.27v-.27c1.07-.8,1.6-1.87,2.13-2.93.27-.8.8-1.87,1.33-2.66.53-1.87,1.07-3.73.8-5.6,0-1.33,0-2.66-.27-4s-.53-2.66-1.07-4c-.53-1.07-.8-2.4-1.07-3.46,0-.27-.27-.53-.53-.8v-.53c.27.27.53.27.53.53.27.53.8,1.07,1.07,1.87,1.07,1.6,1.87,3.2,2.93,5.06.8,1.33,1.33,2.66,1.87,4,.8,1.6,1.33,3.2,2.13,4.8.53,1.33,1.07,2.93,1.33,4.26s.53,2.93.8,4.26c.27,1.87.27,3.46.27,5.33v.53c.53.27.27.53,0,.53h0ZM771.56,105.38c-.8-.27-1.87-.53-2.66-.8-2.4-.8-4.53-1.6-6.66-2.93s-4.26-2.66-6.39-4c-1.07-.8-1.87-1.6-2.93-2.4l-2.4-2.4c-.53-.53-1.07-1.33-1.33-2.13-.18-.71-.09-1.42.27-2.13,0-.27-.27-.53-.53-.8-1.07-2.13-2.13-4.26-2.66-6.66-.53-2.13-.8-4.26,0-6.66.27-.53.53-1.07,1.07-1.6.27.27.53.53.53.8,0,.8.53,1.33.53,2.13v.53c-.53,2.13-.27,4,.53,6.13.8,2.4,1.87,4.53,3.46,6.66.8,1.07,1.87,2.13,2.66,3.2,1.33,1.33,2.93,2.4,4.26,3.73,2.13,2.13,4.8,3.46,7.19,5.33,1.6,1.07,3.2,2.13,4.8,3.46.53,0,.53.27.27.53h0ZM752.9,104.84c-.8-1.07-1.6-2.13-2.4-2.93-.53-.53-.8-1.6-1.07-2.4,0-.53-.27-1.33-.27-1.87.27-.27.27,0,.53,0,0,0,.27.27.27.53.8,1.33,1.87,2.4,2.93,3.46.8.53,1.6,1.33,2.4,1.87,1.33.8,2.66,1.6,4,2.13,1.33.53,2.93,1.33,4.26,2.13.8.53,1.87.8,2.66,1.07.27,0,.53.27,1.07.27-.18.18-.36.27-.53.27-1.6.8-3.46,1.6-5.06,2.66-.53.27-1.07.53-1.6.53h-2.93c-1.33,0-1.6-.27-2.13-1.6-.27-.53,0-1.07,0-1.6-.27,0-.27-.27-.53-.27-.8-.53-1.33-1.07-1.6-1.87-.53-1.07-.53-1.87,0-2.4h0ZM766.49,223.15c-.27-.27-.27-.53-.53-.8v-.8c0-1.6.27-2.93.8-4.53.53-1.6,1.07-2.93,1.33-4.53.27-1.33.8-2.66,1.07-4,.53-2.4,1.33-4.8,1.6-7.19,0-.8.27-1.6.27-2.4,0-1.07.27-1.87.27-2.93v-4.53c0-.8-.27-1.33-.27-2.13v-2.13c0-.27.27-.27.27-.53.27.27.53.53.53.8,0,.53.27,1.07.27,1.6.27,1.6.8,2.93,1.87,4,.27.27.53.27.8-.27.27-.53.27-1.07.53-1.6.18,0,.36.09.53.27.27.53.27,1.07.27,1.6,0,.27-.27.53-.27.8-.27.53-.27,1.07-.53,1.6,0,.53-.27.8-.27,1.07s-.27.53-.27.8c0,.8-.53,1.6-.8,2.4-.53,1.6-1.07,3.2-1.6,4.8-.27,1.07-.8,2.13-1.07,3.2-.53,1.6-1.07,3.2-1.6,4.53-.53,1.6-1.07,2.93-1.6,4.53-.27,1.07-.53,2.13-.53,2.93,0,.53,0,1.33-.27,1.87-.53.89-.8,1.42-.8,1.6h0Z" class="st0"></path>
  <path d="M767.56,97.92c-.53.27-.8,0-.8,0-.53-.27-.8-.53-1.07-.8-2.13-1.6-4.26-3.46-6.13-5.33-1.33-1.33-2.4-2.93-3.46-4.26-1.6-2.13-2.93-4.26-4.26-6.66-.8-1.33-1.33-2.66-2.13-4.26-.27-.8-.27-1.6-.27-2.13s0-.8.53-1.33c0,0,.27,0,.53-.27,3.2,9.86,9.06,18.39,17.05,25.05h0ZM829.11,157.87v-1.33c-.27-1.33.27-2.66.8-3.73.8-1.6,2.13-2.93,3.46-4,.8-.53,1.87-1.33,2.66-2.13.8-.53,1.33-1.33,1.87-1.87.27-.27.27-.8.53-1.33,0-.27.27-.53.27-1.07l.27-.27s.27,0,.27.27c.27.53.27,1.33,0,1.87-.53,1.6-1.6,2.93-2.66,4-.8.8-1.87,1.33-2.66,2.4-.27.53-.8,1.07-1.07,1.6-.53.53-.53,1.33,0,2.13,0,.27.27.53.27.8.53,1.33,0,2.93-1.33,3.46-.27.27-.8.27-1.07,0-.53-.27-1.07-.53-1.6-.8h0ZM841.9,112.3h-.8c-3.2,0-6.39,0-9.59.53-2.13.27-4.53.8-6.66,1.33-1.6.53-3.2.8-4.53,1.33s-2.66.8-4,1.33c-1.6.53-3.2,1.33-4.53,1.87-.8.27-1.33.8-1.87,1.07l-.8.53c-.53-.27-1.07-.8-1.6-1.07l.53-.53c.27-.27.53-.27.8-.27,1.87-.8,4-1.6,5.86-2.13,2.4-.8,4.53-1.6,6.93-2.13,1.6-.27,3.2-.53,4.53-1.07,2.4-.53,4.53-.8,6.93-1.07h1.07c1.33,0,2.66,0,4-.27,1.33,0,2.66,0,4.26.27-.36,0-.53.09-.53.27h0ZM804.6,143.75c.8.53,1.33,1.6,1.6,2.4s1.07,2.4,1.33,2.93c.8,1.07,1.6,2.4,2.4,3.46.8,1.33,1.6,2.66,2.13,4,.27.53.27,1.07-.27,1.6s-.8,1.33-1.07,2.13c0,.18-.09.36-.27.53-.53-1.07-.27-2.13.27-3.2-.53-1.33-1.07-2.4-1.6-3.46-.8-1.6-1.87-2.93-2.66-4.53-.27-.53-.53-1.07-.53-1.87s-.53-1.6-.53-2.4c-.53-.53-.8-1.07-.8-1.6h0ZM822.71,189.04v.53c-.53.53-.8,1.07-1.6,1.33-.27,0-.53.53-1.07.53-1.07.53-1.87.8-2.93.8h-1.87c-.8,0-1.33.27-2.13.53v.27c0,.53-.27.8-.8,1.07-.53,0-1.07,0-1.33-.53-.53-.8-.53-1.33,0-1.87s1.33-.8,2.13-1.07h4.8c.8,0,1.6-.27,2.4-.27.53,0,1.33-.53,1.87-1.07-.27,0,0,0,.53-.27h0ZM834.44,133.35c.53.53,1.07,1.33,1.6,1.6s1.33.8,1.6,1.33c.53.53.8,1.33,1.33,2.13s.27,1.33,0,2.13c-.53-.27-.27-.53-.27-.8-.27-1.07-.53-1.87-1.07-2.4s-1.33-.8-1.87-1.33c-.27-.27-.53-.27-1.07-.53-1.07-.53-1.87-1.33-2.4-2.4,0-.27-.27-.27-.27-.53,0-.53,0-1.33.27-1.87.53-.8,1.6-.8,2.13,0v.53c.27.8.27,1.33,0,2.13h0ZM795,118.97c.27-.53.53-.53.8-.53,1.87-.53,3.46-1.07,5.33-.8h2.66c.53,0,1.07.27,1.87.53l.27.27c0,.27,0,.53-.27.53h-.27c-2.13-.8-4.53-.27-6.66.27-.8.27-1.6.53-2.4,1.07-.36.18-.62.18-.8,0l-.53-.53c.18-.36.18-.62,0-.8h0ZM767.03,129.36l-.27.27c-1.33.27-2.4.27-3.73.27h-.53s-.27,0-.27-.27l-2.66-1.6h1.33c1.07.27,2.13.53,3.46.53.8.27,1.6.53,2.66.8h0ZM830.18,160c-.8,0-1.07-.27-1.6-.8-.27-.27,0-.53.27-.53h.53c.27,0,.8.27.8.53.27,0,0,.53,0,.8h0ZM829.91,165.6h0q-.18,0,0,0-.18,0,0,0h0Z" class="st0"></path>
  <path d="M787.01,124.29c-.27-.53-.27-1.07-.27-1.6h2.66c.8,0,1.87-.27,2.66-.53s1.6-.53,2.66-1.07c-.36.53-.71.98-1.07,1.33-1.07.53-2.13,1.07-3.46,1.6-.53.27-1.33.27-1.87.53-.53,0-1.07,0-1.33-.27h0ZM820.05,124.83c-.27-.53-.27-1.07-.53-1.33-.27-1.07-1.07-1.33-1.87-1.6h-3.2c-1.33,0-2.66,0-3.73-.8-.53-.27-1.07-.53-1.6-.53-.27,0-.53,0-.53-.53,0-1.07-.53-1.87-1.07-2.93-1.07-3.2-3.2-6.13-5.06-8.79-.27-.53-.53-.8-.8-1.33-.53-.8-1.07-1.87-1.33-2.93-.27-.53-.27-1.07-.53-1.87h-.27c-.53.27-1.33.53-2.13.8-1.87.53-3.73,1.07-5.86,1.33-.27,0-.53,0-.8.27-1.6,1.07-3.46,1.6-5.33,1.6h-.8v.53h.53c1.6.27,2.93.27,4.53.27,1.07,0,1.33.27,1.33,1.07,0,.53-.27,1.07-.53,1.87-.53,1.33-1.6,2.4-2.66,3.2-.27.27-.8.53-1.07.8,0,.53.53.8.8.8h.8c.53,0,.8,0,1.33.27-.18.53-.36.89-.53,1.07l-.8.8c-.27.27-.27.8.27,1.07.27,0,.53.27.8.27h1.6c1.07-.27,2.13-.8,3.2-1.07.27,0,.27-.27.53,0-.53.8-.8,1.33-1.6,1.87-1.87,1.07-3.73,1.6-5.86,1.6-.89,0-1.33-.44-1.33-1.33,0-.27-.27-.53-.53-.53-.8.27-1.33,1.07-.8,1.87,0,.27.27.53.53.53v2.4c.27.53.53,1.07,1.33,1.6.8.27,1.6.53,2.4.53,1.33,0,2.66-.27,3.73-.53,1.33-.53,2.66-1.07,3.46-2.13.27-.53.53-1.07.8-1.6.8-1.33,1.07-2.66,1.6-4,.27-.53,0-1.33,0-1.87-.27-.53-.27-.8-.53-1.33s-.27-1.07-.53-1.6c-.27-.8,0-1.6.27-2.13.27-.53.53-.8,1.07-1.07.27,0,.53,0,.53.27,0,0,.27.27.27.53.53,1.6,1.33,2.93,2.4,4.26,1.33,1.6,2.66,2.93,4.26,4.53.27.27.53.8.8,1.33,0,.27,0,.53.27.8.53,1.33.8,1.6,2.13,1.33.53,0,1.07,0,1.6.27.8.53,1.87.53,2.66.8.8,0,1.33.53,2.13.8.27.27.53.53,1.07.53,1.07.27,1.87.53,2.93.8,1.6.53,3.2,1.07,5.06,1.07-.27.53-.27,1.33,0,1.87v.27c0,.27,0,.53-.27.8l-.53.53c-.27.27-.53.8-.8,1.07-1.07,1.6-1.33,3.46-.8,5.33.27,1.07.53,2.13.8,3.2.53,1.87.8,3.73.53,5.86,0,0,0,.27.27.27h.53c.27-.27.53-.53.8-1.07.27-.53.27-1.33.53-2.13.27-1.87.27-4,0-5.86,0-.53-.27-.8-.27-1.33-.27-1.6-.27-1.87,1.07-2.4.27-.27.8-.53,1.07-.8.53-.53.8-1.07.27-1.87,0-.27-.27-.53-.27-.53.27-.27.8-.53,1.07-1.07.27-.27,0-.8.27-1.33.27-.27.53-.27.53-.53,0-.53-.53-.8-.8-1.33h1.87c.8,0,1.07-.53.53-1.33,0-.27-.27-.27-.27-.53.27,0,.53,0,.53-.27.53-.27.53-.53.27-1.07-.27-.27-.53-.53-1.07-.53-.53-.27-1.33-.27-1.87-.27-.27-.53,0-.8.27-1.07h1.07c.27,0,.53,0,.53-.27.53-.27.8-.8,0-1.33-.27,0-.27-.27-.53-.27-.53-.27-1.07-.53-1.6-.8-.8-.53-1.33-.27-2.13.27l-.53.53c-.53.53-.8,1.07-1.07,1.6-.53.53-.8,1.33-.8,1.87v1.33c0,.53-.53,1.07-1.07.8-1.07.8-1.87.8-2.93.53h0ZM872.28,82.99c-.27-.8-.53-1.6-1.33-2.13-.53-.53-1.07-.8-1.6-1.33s-1.33-.8-2.13-1.07c-1.6-.8-3.2-1.33-4.53-1.87-.18,0-.36-.09-.53-.27-1.07-.27-2.4-.53-3.46-1.07-.53-.27-1.07-.27-1.6-.53-2.13-.53-4-1.07-6.13-1.33-1.33-.27-2.66,0-3.73-.53h-5.86c-.8,0-1.6,0-2.4.27-1.6.27-2.93.27-4.53.53s-2.93.53-4.53.8c-1.6.27-3.46.53-5.06,1.33-2.66,1.07-5.6,1.6-8.26,2.4-1.6.53-3.46,1.07-5.06,1.6s-3.46.8-5.33.27c-.8-.27-1.87-.27-2.66-.27,0,0-.27.27-.53.27,0,.18.09.36.27.53.53.27,1.07.27,1.6.53,1.07.27,1.87.53,2.66,1.33h-2.93c-1.07.27-1.87,0-2.93.27-1.07,0-2.13-.53-2.93-1.33l-1.07-1.07-.53-.53h-.53l-.27.27c0,.53.27,1.07.53,1.6.27.8.53,1.6.53,2.4,0,.18-.09.36-.27.53h-.27c-.8-.27-1.33-1.07-1.6-1.6-1.07-1.33-1.87-2.93-2.66-4.53-.8-1.07-1.07-2.4-1.33-4v-1.07c0-.27-.27-.27-.27-.27h-.53l-.27.27c-.53.8-.53,1.6-.53,2.4v4.53c0,.27,0,.53-.27.53-.27-.27-.53-.27-.53-.27-.27-.27-.8-.53-1.07-1.07-.27-.27-.53-.27-.8,0-.27.8,0,1.87,0,2.66,0,.27.27.53.27.8.53.8.8,1.33,1.33,2.13.27.27.27.8.53,1.07s.53.8.53,1.07c0,.53.27,1.07.27,1.33v3.73c-.27,1.6-.8,2.93-1.6,4.26-.8,1.07-1.6,2.13-2.13,3.2,0,.27-.27.27,0,.53.53,0,.8-.27,1.07-.8.27-.27.53-.8,1.07-1.07,0,0,.27-.27.53-.27.53,0,.8-.53,1.33-.8.53-.27.8-.27,1.33-.27.8.27,1.6.53,2.13,1.07.27.53.8.8,1.07,1.33.53.53,1.07.8,1.6.27.53-.27,1.07-.27,1.6-.53,1.6-.27,3.2,0,4.53,1.07.27,0,.27.27.53.27.27.27.53.27.8,0,1.33-1.07,2.4-2.4,3.2-3.73.27-.27.53-.8.8-1.07.8.27,1.87.27,2.66.53,1.6.27,3.2-.27,4.53-1.07.53-.27.8-.53,1.07-1.07,0-.27.27-.27.53-.53h1.33c.8,0,1.6,0,2.13-.27,1.33-.53,2.66-1.07,4-1.87.27,0,.53-.27.8-.53.27-.27.27-.53.53-.8.8.27,1.33.27,2.13,0,1.87-.27,3.46-.8,4.26-2.66h.8c1.6,0,2.93,0,4.26-.27.8,0,1.87-.53,2.4-.8.27-.27.53-.53.53-.8v-.27h.53c1.33.27,2.4.53,3.73.8,1.07.27,2.13.27,3.2,0,1.07-.27,1.07-.53.53-1.33,0-.27-.27-.27-.27-.53h1.07c1.07.27,2.4.27,3.46.27h1.87c1.07,0,1.87,0,2.93-.27.53,0,1.07-.27,1.33-.27.53,0,.53-.8.53-1.07s-.27-.53-.53-.8c0,0,0-.27-.27-.27h.53c1.33.27,2.4.27,3.73.53,3.2.27,6.39.27,9.86,0,0,.8,0,.53.27.53h0ZM805.66,90.72h-.53c-.27,0-.53-.27-1.07,0-.27.27,0,.8-.27,1.33l-.8.8v.8c-.27.27-.8.53-1.07.8v1.6c-.27.27-.53.27-.8.27s-.53-.27-.53-.53c-.53-.27-.8-.53-1.33-.8-.53-.27-.8-.53-1.33-1.07-1.07-1.6-2.13-2.93-2.93-4.53v-.53c1.07-.53,2.13-.8,3.2-.8h1.87c1.6,0,3.2-.27,4.8-.53h.53c.27,0,.53,0,.53.53-.27.53,0,1.6-.27,2.66h0Z" class="st0"></path>
</svg>