<svg width="1447" height="227" viewBox="0 0 1447 227" fill="none" xmlns="http://www.w3.org/2000/svg">
<path d="M110.066 0.938019C174.282 0.938019 209.844 41.3291 213.638 96.2242L172.213 97.9489C169.108 65.4916 149.775 38.9145 110.066 38.9145C71.3991 38.9145 45.8489 67.9143 45.8489 113.833C45.8489 159.751 71.3991 188.751 110.066 188.751C149.767 188.751 169.1 162.166 172.213 129.716L213.638 131.441C209.844 186.681 174.282 226.727 110.066 226.727C48.2715 226.727 0.97339 180.809 0.97339 113.833C0.965368 46.8564 48.2635 0.938019 110.066 0.938019Z" fill="#FFF8F0"/>
<path d="M334.868 227C271.341 227 224.388 181.082 224.388 114.105C224.388 47.1291 271.341 1.21078 334.868 1.21078C398.05 1.21078 445.003 47.1291 445.003 114.105C444.995 181.082 398.042 227 334.868 227ZM334.868 39.1873C294.822 39.1873 269.272 68.532 269.272 114.105C269.272 159.679 294.822 189.024 334.868 189.024C374.914 189.024 400.465 159.679 400.465 114.105C400.457 68.54 374.914 39.1873 334.868 39.1873Z" fill="#FFF8F0"/>
<path d="M500.548 0.938023V189.449H619.892V226.719H455.753V0.929993L500.548 0.938023Z" fill="#FFF8F0"/>
<path d="M675.437 0.938023V189.449H794.781V226.719H630.642V0.929993L675.437 0.938023Z" fill="#FFF8F0"/>
<path d="M850.334 0.938019V226.727H805.539V0.938019H850.334Z" fill="#FFF8F0"/>
<path d="M861.084 0.938019H946.383C1019.13 0.938019 1064.29 43.2304 1064.29 113.833C1064.29 184.435 1019.13 226.727 946.383 226.727H861.084V0.938019ZM943.511 190.885C991.178 190.885 1018.06 162.214 1018.06 113.472C1018.06 65.4435 991.178 36.7726 943.511 36.7726H905.879V190.877H943.511V190.885Z" fill="#FFF8F0"/>
<path d="M1244.56 226.727H1075.75V0.938019H1241.33V38.2086H1119.84V93.0394H1215.17V129.957H1119.84V189.449H1244.56V226.727Z" fill="#FFF8F0"/>
<path d="M1401.13 226.727C1396.47 220.63 1393.61 205.228 1391.82 180.135C1390.03 154.689 1378.56 143.225 1352.75 143.225H1299.71V226.727H1255.63V0.938019H1357.76C1415.47 0.938019 1443.78 27.82 1443.78 69.7513C1443.78 103.797 1421.55 123.507 1393.96 127.093C1419.77 132.107 1433.03 147.164 1435.53 173.685C1438.4 207.017 1439.48 218.481 1447 226.727H1401.13ZM1351.67 108.105C1384.28 108.105 1399.34 97.3553 1399.34 72.9842C1399.34 50.4021 1384.29 37.1416 1351.67 37.1416H1299.71V108.105H1351.67Z" fill="#FFF8F0"/>
<path d="M380.955 112.926V114.811L380.097 114.843C345.064 116.352 337.347 124.061 335.847 159.101L335.807 159.96H333.938L333.905 159.101C332.397 124.069 324.68 116.352 289.648 114.843L288.789 114.811V112.926L289.648 112.894C324.672 111.386 332.397 103.677 333.905 68.6363L333.938 67.7779H335.807L335.847 68.6363C337.355 103.669 345.072 111.386 380.097 112.894L380.955 112.926Z" fill="#FFF8F0"/>
</svg>
