<svg viewBox="0 0 1104.59 300" version="1.1" xmlns="http://www.w3.org/2000/svg" id="Layer_1">
  
  <defs>
    <style>
      .st0 {
        fill: #fff;
      }
    </style>
  </defs>
  <g id="g10">
    <g id="g12">
      <path d="M328.47,218.56l-13.62-58.71-13.13,58.71-29.51.04-24.23-110.87h30.32l10.67,55.77,11.83-55.78h28.24l12.52,55.74,11.76-55.74h29.84l-25.16,110.85h-29.52" class="st0" id="path14"></path>
      <path d="M569.07,218.59h31.33v-107.39h-31.33v107.41h0Z" class="st0" id="path16"></path>
      <path d="M870.1,218.7h31.34v-107.44h-31.34v107.44Z" class="st0" id="path18"></path>
      <path d="M671.86,145.86c0-14.48-6.56-17.43-17.11-17.43-11.95,0-15.93,5.46-16.57,18.48-.29,5.44-.09,6.15-.09,6.15l33.81.06-.04-7.26h0ZM637.98,173.12c0,10.97,1.81,17.73,7.55,20.49,3.22,1.37,9.11,2.36,14.63,2.36,10.81,0,24.89-1.6,37.24-6.48v25.03c-15.52,5.04-28.62,6.5-40.81,6.5-17.25,0-29.68-3.66-37.27-10.74-9.66-8.9-12.88-23.75-12.88-46.37,0-20.11,2.07-33.57,9.21-43.63,6.91-9.82,19.55-15.08,39.81-15.08,19.09,0,30.38,4.79,37.04,14.16,7.14,10.29,8.06,24.67,8.06,39.3l-.12,14.62-60.95-.15h-1.47" class="st0" id="path20"></path>
      <path d="M533.18,221.34c-37.73,0-47.97-14.66-47.97-57.95,0-45.58,11.18-58.18,50.07-58.18,12.97.16,24.54,3.96,27.16,5.42v26.88c-6.7-2.97-15.68-6.24-26.69-6.43-10.94,0-16.74,2.83-17.91,11.07-1.17,7.33-1.4,17.18-1.4,21.3,0,6.64.47,13.06,1.4,19.23,1.4,8.25,7.18,12.52,18.14,12.52,7.68,0,17-.92,26.55-3.89l-.04,26.52c-10.58,3.06-20.46,3.48-29.3,3.48" class="st0" id="path22"></path>
      <path d="M569.07,95.63v9.49h31.33v-19.83c-15.4-.55-28.36,8.17-31.33,10.35" class="st0" id="path24"></path>
      <path d="M870.1,95.87v9.44h31.34v-19.9c-15.58-.51-28.63,8.47-31.34,10.45" class="st0" id="path26"></path>
      <path d="M768.92,106.62c-12.92,0-23.31,5.73-30.47,10.77l-3.06-9.09c-13.86.13-25.43,7.66-28.81,10.1v100.24h31.07l-.07-74.4c4.17-2.75,14.64-7.14,20.18-7.14,9.01,0,11.26,7.62,11.26,14.72l-.03,66.84h29.7v-81.32c0-12.37-7.62-30.69-29.78-30.69" class="st0" id="path28"></path>
      <path d="M220.92,146.44c0-14.53-6.54-17.47-17.09-17.47-11.93,0-15.93,5.48-16.57,18.52-.29,5.45-.09,6.16-.09,6.16l33.81.06-.04-7.27h-.01ZM187.07,173.78c0,11,1.81,17.79,7.55,20.53,3.22,1.37,9.11,2.36,14.62,2.36,10.81,0,24.89-1.62,37.24-6.51v25.09c-15.52,5.06-28.63,6.51-40.83,6.51-17.25,0-29.68-3.66-37.27-10.77-9.66-8.93-12.88-23.82-12.88-46.5,0-20.15,2.07-33.67,9.21-43.74,6.91-9.85,19.55-15.11,39.81-15.11,19.09,0,30.37,4.81,37.04,14.21,7.14,10.3,8.06,24.73,8.06,39.4l-.12,14.66-60.95-.15h-1.47" class="st0" id="path30"></path>
      <path d="M430.1,191.03c14.53-.51,15.96-8.5,15.91-11.9-.16-9.66-9.6-12.87-26.75-18.68l-1.09-.36c-15.74-5.51-30.63-10.71-31.02-35.23-.26-16.49,3.07-27.7,10.52-35.26,7.42-7.53,19.21-11.35,35.06-11.35,10.99,0,31.36,2.33,41.21,7.33v31.21c-8.17-4.02-24.26-9.35-39.14-9.03-10.27.22-15.01,3.95-14.88,11.74.12,7.3,6.54,9.53,16.28,12.91,5.44,1.88,12.21,4.23,19.83,8.07,14,7.31,23.21,13.74,23.56,35.55.23,14.41-3.35,25.49-10.67,32.92-8.01,8.15-20.85,12.27-38.15,12.27-19.12,0-35.18-5-43.54-8.2v-30.6c11.31,6.24,26.05,9.25,42.87,8.66" class="st0" id="path32"></path>
      <path d="M946.49,221.21c-16.06,0-30.08-3.66-38.96-6.85v-26.86c9.94,5.54,23.72,8.1,38.92,7.62,9.06-.29,12.78-3.82,12.69-8.39-.13-7.08-8.54-9.37-23.97-14.16-14.27-4.56-27.37-8.9-27.73-29-.32-18.27,4.93-38.13,40.74-38.13,10.46,0,28.69,2.1,36.95,6.22v27.2c-6.08-3.09-21.77-8.13-35.61-7.85-9.06.17-11.88,3.23-11.79,8.26.15,8,12.92,7.3,31.21,15.75,12.9,6.16,20.79,11.61,21.1,29.2.44,24.89-14.25,37-43.55,37" class="st0" id="path34"></path>
      <path d="M848.44,194.34c-13.14.36-11.41-10.71-11.45-18.46-.04-7.75.04-40.65.04-40.65h26.46v-24.01l-26.52.04-.06-31.01c-16.66-.35-30.35,10.04-31.34,10.81v20.14s-2.55,1.41-3.85,2.35c-1.3.93-1.97,1.44-1.97,1.44l5.92,20.41-.09,51.87c0,30.45,13.9,33.86,30.4,33.86,10.13,0,20.25-1.82,27.57-3.86v-25.91c-4.47,1.82-9.66,2.96-15.08,2.96" class="st0" id="path36"></path>
      <path d="M1039,194.73c-13.14.36-11.42-10.71-11.45-18.46-.04-7.75.04-40.65.04-40.65h26.46v-24.01l-26.52.04-.06-31.01c-16.66-.35-30.34,10.04-31.34,10.81v20.14s-2.55,1.41-3.85,2.35c-1.3.93-1.97,1.44-1.97,1.44l5.9,20.41-.09,51.87c0,30.45,13.9,33.86,30.4,33.86,10.13,0,20.27-1.82,27.57-3.86v-25.91c-4.47,1.82-9.66,2.96-15.08,2.96" class="st0" id="path38"></path>
      <path d="M118.07,80.44l-.04,73.08-36.49-72.76c-15.94-.31-29.14,9.24-31.05,10.68v127.15h31.68l.03-69.43,36.3,69.45h30.89V80.44h-31.3" class="st0" id="path40"></path>
    </g>
  </g>
</svg>